<?xml version="1.0" encoding="UTF-8"?>
<svg version="1.1" xmlns="http://www.w3.org/2000/svg" width="512" height="512">
<path d="M0 0 C2.47244166 2.18701158 4.87113837 4.43070037 7.25390625 6.71484375 C8.07375 7.47152344 8.89359375 8.22820312 9.73828125 9.0078125 C32.05348548 30.24883765 47.08330273 62.84300338 48.37841797 93.67944336 C49.28297697 131.75238779 40.14490737 168.2506978 13.28320312 196.57470703 C11.94499633 197.95949697 10.5995855 199.3373141 9.25390625 200.71484375 C8.526875 201.50375 7.79984375 202.29265625 7.05078125 203.10546875 C-13.66207736 225.04575602 -46.6410431 239.57644502 -76.71069336 240.83935547 C-114.78363779 241.74391447 -151.2819478 232.60584487 -179.60595703 205.74414062 C-180.99074697 204.40593383 -182.3685641 203.060523 -183.74609375 201.71484375 C-184.535 200.9878125 -185.32390625 200.26078125 -186.13671875 199.51171875 C-208.07700602 178.79886014 -222.60769502 145.8198944 -223.87060547 115.75024414 C-224.82376906 75.63152945 -214.42248229 40.09482276 -186.55078125 10.26171875 C-178.96722427 2.33007467 -171.02397418 -4.42465744 -161.74609375 -10.28515625 C-161.13040527 -10.67541992 -160.5147168 -11.06568359 -159.88037109 -11.46777344 C-110.12185282 -42.42806206 -44.79764134 -37.27826484 0 0 Z " fill="#FECC6D" transform="translate(343.74609375,151.28515625)"/>
<path d="M0 0 C26.98314453 22.18614106 44.80159628 53.71737413 48.81689453 88.66235352 C51.68873807 125.32622273 43.31796009 161.80891492 19.62695312 190.67285156 C16.5484936 194.245678 13.29484309 197.62717246 10 201 C9.27296875 201.78890625 8.5459375 202.5778125 7.796875 203.390625 C-12.91598361 225.33091227 -45.89494935 239.86160127 -75.96459961 241.12451172 C-115.11128971 242.05458139 -151.32407776 232.21764555 -180.2578125 204.6953125 C-184.19831664 200.82216741 -188.13704295 196.95075153 -192 193 C-191.01 192.67 -190.02 192.34 -189 192 C-187.1171875 193.1171875 -187.1171875 193.1171875 -184.875 194.875 C-156.99622928 215.0700114 -122.06312004 221.7022885 -88.18359375 217.49609375 C-84.38587724 216.83611322 -80.72258711 215.99647054 -77 215 C-75.66800768 214.67952563 -74.33597498 214.3592191 -73.00390625 214.0390625 C-39.7991158 205.59359795 -12.1414943 184.28643663 6.1875 155.6875 C25.54456925 122.9111128 31.49532936 85.53095038 22.1875 48.375 C17.5096439 31.91714131 10.54473684 16.51889338 0 3 C0 2.01 0 1.02 0 0 Z " fill="#FEC24F" transform="translate(343,151)"/>
<path d="M0 0 C3.4400633 1.32726852 4.98262662 2.66614363 6.984375 5.765625 C7.61927062 8.8947534 7.75531545 11.66059589 6.984375 14.765625 C4.5073476 18.38375491 1.6972672 20.98280009 -1.765625 23.640625 C-2.64863281 24.33800781 -3.53164062 25.03539062 -4.44140625 25.75390625 C-5.97184284 26.9499227 -7.50864102 28.13797936 -9.05859375 29.30859375 C-24.10142399 41.37387409 -32.15972194 60.11295915 -37.91015625 78.0078125 C-38.98814323 80.69706623 -39.73540872 82.03105241 -42.015625 83.765625 C-45.62135204 84.96753401 -48.2258685 85.09232815 -52.015625 84.765625 C-55.38764613 82.66747852 -57.93547361 80.65417002 -59.015625 76.765625 C-58.54476616 71.07251355 -57.38616004 66.06482342 -55.453125 60.703125 C-55.18991455 59.9706958 -54.9267041 59.2382666 -54.65551758 58.48364258 C-47.07282563 38.11160863 -33.80835975 20.52830475 -17.015625 6.765625 C-16.19964844 6.07726562 -15.38367188 5.38890625 -14.54296875 4.6796875 C-9.70923291 0.89936241 -6.215264 -1.36647648 0 0 Z " fill="#FEFEFC" transform="translate(208.015625,160.234375)"/>
<path d="M0 0 C2.25390625 1.71826172 2.25390625 1.71826172 4.625 3.9296875 C5.93609741 5.14906006 5.93609741 5.14906006 7.27368164 6.39306641 C11.70830175 10.63349566 16.09723836 14.91300417 20.4375 19.25 C21.32115234 20.12140625 22.20480469 20.9928125 23.11523438 21.890625 C23.96279297 22.73625 24.81035156 23.581875 25.68359375 24.453125 C26.44212646 25.20754883 27.20065918 25.96197266 27.98217773 26.73925781 C31.09114574 30.22250569 32.87336929 32.81811339 33.375 37.5 C32.96942028 41.28541073 32.37361222 43.05344689 30 46 C27.18564519 48.26711915 25.25888289 48.95603875 21.6875 49.5625 C12.5282727 48.16532973 5.61412514 38.9557053 -0.69262695 32.62304688 C-2.31795113 30.99453819 -3.95624561 29.3798902 -5.59570312 27.765625 C-6.64403876 26.71956072 -7.69159287 25.67271251 -8.73828125 24.625 C-9.22267166 24.14981934 -9.70706207 23.67463867 -10.20613098 23.18505859 C-13.68376335 19.65976103 -16.6660541 15.88550132 -17.25 10.83984375 C-16.58251497 5.76069987 -15.1707336 3.27700497 -11 0 C-7.00956717 -1.33014428 -3.92824327 -1.4025843 0 0 Z " fill="#FECE68" transform="translate(385,369)"/>
<path d="M0 0 C3.55664131 2.49721624 5.22824961 4.6628534 6.0625 8.875 C6.72829331 13.23457809 4.32717311 16.50231193 2 20 C0.15785276 22.22192897 -1.84476988 24.24364498 -3.90234375 26.265625 C-4.46192276 26.82570251 -5.02150177 27.38578003 -5.59803772 27.96282959 C-6.77359423 29.13606143 -7.95280628 30.30564099 -9.13549805 31.47167969 C-10.93786033 33.2503556 -12.72643342 35.04207873 -14.51367188 36.8359375 C-15.66327147 37.9799621 -16.81363639 39.12321827 -17.96484375 40.265625 C-18.49520737 40.79690002 -19.02557098 41.32817505 -19.57200623 41.87554932 C-23.59604243 45.82396782 -26.8004331 48.76433212 -32.5 49.375 C-36.28541073 48.96942028 -38.05344689 48.37361222 -41 46 C-43.26711915 43.18564519 -43.95603875 41.25888289 -44.5625 37.6875 C-43.16532973 28.5282727 -33.9557053 21.61412514 -27.62304688 15.30737305 C-25.99453819 13.68204887 -24.3798902 12.04375439 -22.765625 10.40429688 C-21.71956072 9.35596124 -20.67271251 8.30840713 -19.625 7.26171875 C-19.14981934 6.77732834 -18.67463867 6.29293793 -18.18505859 5.79386902 C-12.69602119 0.37904834 -7.49086973 -2.48154326 0 0 Z " fill="#FECE68" transform="translate(138,369)"/>
<path d="M0 0 C4.14613048 1.79037453 6.20962547 3.85386952 8 8 C8.56101274 11.30374169 8.7430116 13.68203209 7.05444336 16.67724609 C2.42638172 22.83956036 -2.92787357 28.26583908 -8.37695312 33.69262695 C-10.00546181 35.31795113 -11.6201098 36.95624561 -13.234375 38.59570312 C-14.28043928 39.64403876 -15.32728749 40.69159287 -16.375 41.73828125 C-16.85018066 42.22267166 -17.32536133 42.70706207 -17.81494141 43.20613098 C-21.34023897 46.68376335 -25.11449868 49.6660541 -30.16015625 50.25 C-33.85137212 49.76491208 -35.8177831 49.12793953 -38.9375 46.9375 C-41.43570215 43.37945451 -42.67170227 40.36229116 -42 36 C-39.32744271 30.7456813 -36.28387955 26.84818106 -32.09765625 22.734375 C-31.53807724 22.17429749 -30.97849823 21.61421997 -30.40196228 21.03717041 C-29.22640577 19.86393857 -28.04719372 18.69435901 -26.86450195 17.52832031 C-25.06213967 15.7496444 -23.27356658 13.95792127 -21.48632812 12.1640625 C-20.33672853 11.0200379 -19.18636361 9.87678173 -18.03515625 8.734375 C-17.50479263 8.20309998 -16.97442902 7.67182495 -16.42799377 7.12445068 C-11.17430065 1.96948237 -7.54102838 -0.80796733 0 0 Z " fill="#FECE68" transform="translate(410,94)"/>
<path d="M0 0 C7.16367916 4.03856323 12.93318092 10.59384894 18.69262695 16.37695312 C20.31795113 18.00546181 21.95624561 19.6201098 23.59570312 21.234375 C24.64403876 22.28043928 25.69159287 23.32728749 26.73828125 24.375 C27.22267166 24.85018066 27.70706207 25.32536133 28.20613098 25.81494141 C31.68376335 29.34023897 34.6660541 33.11449868 35.25 38.16015625 C34.76491208 41.85137212 34.12793953 43.8177831 31.9375 46.9375 C28.37945451 49.43570215 25.36229116 50.67170227 21 50 C15.7456813 47.32744271 11.84818106 44.28387955 7.734375 40.09765625 C7.17429749 39.53807724 6.61421997 38.97849823 6.03717041 38.40196228 C4.86393857 37.22640577 3.69435901 36.04719372 2.52832031 34.86450195 C0.7496444 33.06213967 -1.04207873 31.27356658 -2.8359375 29.48632812 C-3.9799621 28.33672853 -5.12321827 27.18636361 -6.265625 26.03515625 C-6.79690002 25.50479263 -7.32817505 24.97442902 -7.87554932 24.42799377 C-11.82396782 20.40395757 -14.76433212 17.1995669 -15.375 11.5 C-14.96942028 7.71458927 -14.37361222 5.94655311 -12 3 C-8.06312617 -0.17137058 -4.98255472 -0.76005072 0 0 Z " fill="#FECE68" transform="translate(109,94)"/>
<path d="M0 0 C0.90136185 -0.01283524 1.80272369 -0.02567047 2.73139954 -0.03889465 C4.18923103 -0.04997505 4.18923103 -0.04997505 5.67651367 -0.0612793 C7.18032845 -0.07338692 7.18032845 -0.07338692 8.71452332 -0.08573914 C10.83700841 -0.09957168 12.95951566 -0.11029754 15.08203125 -0.11816406 C18.32163803 -0.13537667 21.56022418 -0.1792708 24.79956055 -0.22338867 C26.86270409 -0.23351592 28.9258563 -0.24203192 30.98901367 -0.2487793 C31.95482864 -0.26628738 32.92064362 -0.28379547 33.91572571 -0.30183411 C39.76389699 -0.28304966 43.07460187 0.28556611 47.53198242 4.17700195 C49.38924858 7.89153427 49.11699332 12.13279621 48.53198242 16.17700195 C46.34175325 19.00124484 44.70181036 20.59208799 41.53198242 22.17700195 C40.07795938 22.28155121 38.61934461 22.32565664 37.16162109 22.33813477 C36.25695602 22.34774231 35.35229095 22.35734985 34.42021179 22.36724854 C33.44002579 22.37149841 32.45983978 22.37574829 31.44995117 22.38012695 C29.94045647 22.38867706 29.94045647 22.38867706 28.40046692 22.3973999 C26.26780247 22.40685781 24.13512335 22.41338701 22.00244141 22.41723633 C18.74314767 22.42693156 15.48448717 22.45794354 12.2253418 22.48950195 C10.154382 22.49603296 8.0834177 22.50128305 6.01245117 22.50512695 C5.03833786 22.51747375 4.06422455 22.52982056 3.06059265 22.5425415 C-5.58545991 22.51415616 -5.58545991 22.51415616 -9.46801758 19.17700195 C-11.48916403 15.60630988 -12.4878518 13.16871321 -12.40551758 9.05200195 C-11.30999329 5.69239412 -9.92367178 3.70488128 -7.46801758 1.17700195 C-4.66785592 0.24361473 -2.90062574 0.03603411 0 0 Z " fill="#FECC6C" transform="translate(431.468017578125,244.822998046875)"/>
<path d="M0 0 C2.61374292 1.93922862 2.94556379 2.83669136 4 6 C4.10587052 7.48674266 4.158487 8.97762518 4.17700195 10.46801758 C4.18983719 11.36937943 4.20267242 12.27074127 4.21589661 13.19941711 C4.22328354 14.17130478 4.23067047 15.14319244 4.23828125 16.14453125 C4.246353 17.14707443 4.25442474 18.14961761 4.26274109 19.18254089 C4.27657363 21.30502598 4.2872995 23.42753324 4.29516602 25.55004883 C4.31237862 28.78965561 4.35627275 32.02824175 4.40039062 35.26757812 C4.41051787 37.33072167 4.41903387 39.39387388 4.42578125 41.45703125 C4.44328934 42.42284622 4.46079742 43.38866119 4.47883606 44.38374329 C4.46005161 50.23191457 3.89143584 53.54261944 0 58 C-3.71453232 59.85726616 -7.95579425 59.58501089 -12 59 C-14.82424288 56.80977082 -16.41508603 55.16982793 -18 52 C-18.10454926 50.54597696 -18.14865468 49.08736219 -18.16113281 47.62963867 C-18.17074036 46.7249736 -18.1803479 45.82030853 -18.19024658 44.88822937 C-18.19449646 43.90804337 -18.19874634 42.92785736 -18.203125 41.91796875 C-18.20882507 40.91163895 -18.21452515 39.90530914 -18.22039795 38.8684845 C-18.22985585 36.73582005 -18.23638506 34.60314093 -18.24023438 32.47045898 C-18.2499296 29.21116524 -18.28094159 25.95250474 -18.3125 22.69335938 C-18.31903101 20.62239958 -18.32428109 18.55143527 -18.328125 16.48046875 C-18.3404718 15.50635544 -18.3528186 14.53224213 -18.36553955 13.52861023 C-18.33723935 4.90849163 -18.33723935 4.90849163 -15 1 C-9.24729841 -2.49674018 -6.05316137 -2.2194925 0 0 Z " fill="#FECC6C" transform="translate(263,421)"/>
<path d="M0 0 C1.3569976 -0.01441132 1.3569976 -0.01441132 2.7414093 -0.02911377 C3.72159531 -0.03336365 4.70178131 -0.03761353 5.71166992 -0.04199219 C7.22116463 -0.0505423 7.22116463 -0.0505423 8.76115417 -0.05926514 C10.89381862 -0.06872304 13.02649774 -0.07525225 15.15917969 -0.07910156 C18.41847343 -0.08879679 21.67713393 -0.11980878 24.9362793 -0.15136719 C27.00723909 -0.15789819 29.0782034 -0.16314828 31.14916992 -0.16699219 C32.12328323 -0.17933899 33.09739655 -0.19168579 34.10102844 -0.20440674 C42.72114704 -0.17610653 42.72114704 -0.17610653 46.62963867 3.16113281 C49.04302642 7.13154492 49.99246866 9.90363966 49.00463867 14.41113281 C47.16072215 19.43999605 47.16072215 19.43999605 44.62963867 21.16113281 C41.82947701 22.09452003 40.06224683 22.30210066 37.16162109 22.33813477 C36.26025925 22.35097 35.3588974 22.36380524 34.43022156 22.37702942 C32.97239006 22.38810982 32.97239006 22.38810982 31.48510742 22.39941406 C30.48256424 22.40748581 29.48002106 22.41555756 28.44709778 22.4238739 C26.32461269 22.43770644 24.20210543 22.44843231 22.07958984 22.45629883 C18.83998306 22.47351144 15.60139692 22.51740556 12.36206055 22.56152344 C10.298917 22.57165068 8.23576479 22.58016669 6.17260742 22.58691406 C4.72388496 22.61317619 4.72388496 22.61317619 3.24589539 22.63996887 C-2.6022759 22.62118442 -5.91298077 22.05256866 -10.37036133 18.16113281 C-12.22762749 14.4466005 -11.95537222 10.20533856 -11.37036133 6.16113281 C-7.94172467 1.73999607 -5.47745194 0.04688705 0 0 Z " fill="#FECC6C" transform="translate(43.370361328125,244.8388671875)"/>
<path d="M0 0 C2.82424288 2.19022918 4.41508603 3.83017207 6 7 C6.10454926 8.45402304 6.14865468 9.91263781 6.16113281 11.37036133 C6.17074036 12.2750264 6.1803479 13.17969147 6.19024658 14.11177063 C6.19449646 15.09195663 6.19874634 16.07214264 6.203125 17.08203125 C6.20882507 18.08836105 6.21452515 19.09469086 6.22039795 20.1315155 C6.22985585 22.26417995 6.23638506 24.39685907 6.24023438 26.52954102 C6.2499296 29.78883476 6.28094159 33.04749526 6.3125 36.30664062 C6.31903101 38.37760042 6.32428109 40.44856473 6.328125 42.51953125 C6.3404718 43.49364456 6.3528186 44.46775787 6.36553955 45.47138977 C6.33723935 54.09150837 6.33723935 54.09150837 3 58 C-0.9704121 60.41338775 -3.74250685 61.36282999 -8.25 60.375 C-13.27886323 58.53108348 -13.27886323 58.53108348 -15 56 C-15.93338722 53.19983834 -16.14096785 51.43260816 -16.17700195 48.53198242 C-16.18983719 47.63062057 -16.20267242 46.72925873 -16.21589661 45.80058289 C-16.22328354 44.82869522 -16.23067047 43.85680756 -16.23828125 42.85546875 C-16.246353 41.85292557 -16.25442474 40.85038239 -16.26274109 39.81745911 C-16.27657363 37.69497402 -16.2872995 35.57246676 -16.29516602 33.44995117 C-16.31237862 30.21034439 -16.35627275 26.97175825 -16.40039062 23.73242188 C-16.41051787 21.66927833 -16.41903387 19.60612612 -16.42578125 17.54296875 C-16.44328934 16.57715378 -16.46079742 15.61133881 -16.47883606 14.61625671 C-16.46005161 8.76808543 -15.89143584 5.45738056 -12 1 C-8.28546768 -0.85726616 -4.04420575 -0.58501089 0 0 Z " fill="#FECC6C" transform="translate(261,32)"/>
</svg>
