<?xml version="1.0" encoding="UTF-8"?>
<svg version="1.1" xmlns="http://www.w3.org/2000/svg" width="512" height="512">
<path d="M0 0 C1.22396484 0.99386719 1.22396484 0.99386719 2.47265625 2.0078125 C3.71208984 3.00167969 3.71208984 3.00167969 4.9765625 4.015625 C28.17058997 23.68880636 39.73852874 52.29216349 42.47265625 82.0078125 C43.73078125 81.6984375 44.98890625 81.3890625 46.28515625 81.0703125 C75.51493137 74.61044057 104.06208888 82.17430078 129.16015625 97.3203125 C139.86182999 104.41721193 148.80075157 112.68781449 156.47265625 123.0078125 C157.07464844 123.78382813 157.67664063 124.55984375 158.296875 125.359375 C172.39822876 144.30905938 178.88785464 166.83031606 178.78515625 190.2578125 C178.78169189 191.53817383 178.77822754 192.81853516 178.7746582 194.13769531 C178.64990071 204.97574424 177.52988891 214.69021309 173.66015625 224.8828125 C171.94591183 229.6844919 172.9505539 233.26618476 174.47265625 238.0078125 C174.99474822 239.7157616 175.51556334 241.42410148 176.03515625 243.1328125 C176.40833984 244.28136719 176.40833984 244.28136719 176.7890625 245.453125 C183.12952226 269.14832892 177.8878688 295.05676565 166.22265625 316.0703125 C157.57888331 330.3586182 145.9767572 341.74881532 131.47265625 350.0078125 C130.58449219 350.53117187 129.69632812 351.05453125 128.78125 351.59375 C122.68801203 354.93274271 116.52889847 357.03769021 109.84765625 358.8203125 C109.07228516 359.02736816 108.29691406 359.23442383 107.49804688 359.44775391 C98.13370881 361.79278962 88.8071422 362.15655348 79.19000244 362.14825439 C78.09694408 362.15122552 77.00388572 362.15419664 75.87770438 362.1572578 C72.23779762 362.16588629 68.59792397 362.16744805 64.95800781 362.16894531 C62.33888683 362.17357754 59.71976651 362.17860275 57.10064697 362.18399048 C50.00135367 362.19751541 42.90206606 362.2035889 35.80276203 362.20800114 C31.36325525 362.21077256 26.92375062 362.21501142 22.4842453 362.21950531 C10.17220827 362.23168861 -2.13982704 362.24199089 -14.45186996 362.2453804 C-15.2383167 362.24559997 -16.02476344 362.24581953 -16.8350419 362.24604575 C-17.62327053 362.24626403 -18.41149915 362.24648231 -19.2236135 362.2467072 C-20.82062515 362.24715065 -22.41763679 362.24759722 -24.01464844 362.24804688 C-24.80680584 362.2482683 -25.59896323 362.24848973 -26.4151254 362.24871787 C-39.24757953 362.252665 -52.07997685 362.27012062 -64.91240904 362.2934064 C-78.11360034 362.31716646 -91.31476317 362.32958431 -104.51597619 362.33074832 C-111.91743843 362.33166228 -119.31882654 362.33734426 -126.72026825 362.35556793 C-133.68394908 362.37265462 -140.64748746 362.37418693 -147.61118317 362.36542892 C-150.15960568 362.36466051 -152.70803586 362.36897536 -155.25643921 362.37888718 C-177.29222145 362.45953423 -196.74923552 361.1930866 -213.46557617 345.26538086 C-223.05431644 335.67338189 -231.3720243 322.02425262 -231.55290222 308.03045654 C-231.54438273 306.02290853 -231.53586324 304.01536051 -231.52734375 302.0078125 C-232.96847534 302.04708862 -232.96847534 302.04708862 -234.4387207 302.0871582 C-260.48786133 302.73454421 -284.43600105 302.67662495 -305.52734375 285.0078125 C-306.25566406 284.42386719 -306.98398437 283.83992188 -307.734375 283.23828125 C-321.23640502 271.94441969 -331.27032377 254.56364773 -333.52734375 237.0078125 C-335.28665273 215.3532983 -332.23438923 195.2545705 -318.65234375 177.6953125 C-317.29866821 176.11430213 -315.92375136 174.55121039 -314.52734375 173.0078125 C-313.8621875 172.24984375 -313.19703125 171.491875 -312.51171875 170.7109375 C-304.23826037 161.82463036 -293.22785645 154.46478216 -281.52734375 151.0078125 C-280.86734375 151.0078125 -280.20734375 151.0078125 -279.52734375 151.0078125 C-279.39199219 150.36457031 -279.25664062 149.72132813 -279.1171875 149.05859375 C-276.87983017 139.66705189 -272.90993967 130.77281787 -266.52734375 123.4453125 C-263.96519544 119.04162009 -264.48060693 116.6975793 -265.1171875 111.765625 C-268.03246581 85.0561228 -262.23571145 59.19893437 -245.65234375 37.7578125 C-244.29906932 36.15587063 -242.92359243 34.57243996 -241.52734375 33.0078125 C-240.80160156 32.18796875 -240.07585937 31.368125 -239.328125 30.5234375 C-222.19111164 12.28172411 -198.58234595 2.94164145 -173.76171875 1.99609375 C-167.69007956 1.91168595 -161.69427483 2.64730863 -155.68359375 3.4375 C-154.99523437 3.52628418 -154.306875 3.61506836 -153.59765625 3.70654297 C-152.19037996 3.91132822 -150.78855734 4.15682139 -149.39453125 4.43798828 C-145.880365 5.08208757 -144.02744086 5.30400097 -140.90234375 3.453125 C-140.11859375 2.68742187 -139.33484375 1.92171875 -138.52734375 1.1328125 C-124.3921168 -11.42098713 -106.01857788 -18.87291378 -87.52734375 -21.9921875 C-85.93019531 -22.26869141 -85.93019531 -22.26869141 -84.30078125 -22.55078125 C-54.04483383 -26.09003804 -24.24108271 -18.6469867 0 0 Z " fill="#40759D" transform="translate(333.52734375,107.9921875)"/>
<path d="M0 0 C2.47744808 2.17658856 4.80854257 4.42395298 7.10546875 6.7890625 C7.66621094 7.32917969 8.22695313 7.86929687 8.8046875 8.42578125 C17.25049812 17.22627159 20.87474148 29.12554562 23.10546875 40.7890625 C24.20149027 45.74102773 24.20149027 45.74102773 27.10546875 49.7890625 C29.53491651 50.10976048 29.53491651 50.10976048 32.29296875 50.0390625 C33.21464844 50.04421875 34.13632812 50.049375 35.0859375 50.0546875 C38.17807362 49.89149775 38.17807362 49.89149775 41.29296875 48.7890625 C46.23635675 47.49243614 50.8317695 47.4974576 55.91796875 47.5390625 C56.85189453 47.53132813 57.78582031 47.52359375 58.74804688 47.515625 C80.25484559 47.57532465 98.96009285 56.89341637 114.10546875 71.7890625 C127.68232591 86.78317101 135.12248089 106.5945056 134.359375 126.7890625 C133.18864528 147.51930589 124.73765927 167.0618096 109.43359375 181.26953125 C97.0561331 191.70645781 80.88531078 200.87939007 64.19773769 200.92607689 C62.74655455 200.9336887 62.74655455 200.9336887 61.26605457 200.94145429 C60.21101154 200.94195205 59.1559685 200.94244981 58.06895447 200.94296265 C56.94200513 200.9473449 55.81505579 200.95172715 54.65395647 200.9562422 C50.86948166 200.96961996 47.08503012 200.9758068 43.30053711 200.98193359 C40.59023763 200.98931087 37.87994301 200.99809955 35.16964722 201.00671387 C27.03071361 201.03120565 18.89177396 201.04586008 10.75281486 201.05877393 C8.45264854 201.06248815 6.15248282 201.06646119 3.85231709 201.0705266 C-10.44257839 201.0957649 -24.73747489 201.11781002 -39.03238773 201.13025475 C-42.34149746 201.13318426 -45.65060715 201.13614595 -48.9597168 201.13916016 C-49.78214186 201.13990621 -50.60456691 201.14065226 -51.45191395 201.14142092 C-64.76783244 201.15406835 -78.08361723 201.18728522 -91.39947326 201.22896199 C-105.08188052 201.27143371 -118.76421942 201.29495579 -132.44669241 201.30017531 C-140.12432837 201.30358343 -147.80175534 201.31526777 -155.47932625 201.34827805 C-162.01932056 201.37635182 -168.559063 201.38724593 -175.09911288 201.37608258 C-178.43251724 201.37091437 -181.76496978 201.37641687 -185.09836769 201.39854813 C-188.72239071 201.42129351 -192.34510034 201.41291779 -195.96913147 201.39706421 C-197.00855945 201.4109463 -198.04798743 201.42482838 -199.11891323 201.43913114 C-211.64467474 201.30478974 -221.92086743 195.80952944 -230.640625 187.03125 C-237.88834256 178.97019755 -241.29287445 170.32836917 -241.20703125 159.4765625 C-241.2013916 158.72818115 -241.19575195 157.9797998 -241.18994141 157.20874023 C-240.91779675 144.76149035 -236.22701472 134.62429268 -227.20703125 125.9765625 C-217.67434252 117.82834899 -208.38293013 115.71890146 -196.20703125 115.4609375 C-192.76444366 115.06009463 -192.76444366 115.06009463 -190.44140625 112.53125 C-188.72818097 109.49416882 -188.55367385 108.52319624 -189.14453125 105.1640625 C-191.65792638 85.63895089 -189.10568825 71.83820159 -177.64453125 55.6015625 C-167.21133021 44.93124326 -153.86749033 38.68192846 -139.01953125 38.4765625 C-127.3279708 38.53026742 -117.5818326 42.3308616 -107.89453125 48.7890625 C-104.08652621 49.36854153 -102.41523158 49.12041725 -99.14453125 47.0390625 C-96.35465146 43.00923614 -96.10800519 39.82467935 -95.46875 35.0390625 C-92.93455688 20.69587425 -83.67195251 6.99359504 -71.8828125 -1.33984375 C-49.40840075 -15.78198053 -21.88481926 -16.71633968 0 0 Z " fill="#77B8EA" transform="translate(360.89453125,251.2109375)"/>
<path d="M0 0 C1.22396484 0.99386719 1.22396484 0.99386719 2.47265625 2.0078125 C3.71208984 3.00167969 3.71208984 3.00167969 4.9765625 4.015625 C28.17058997 23.68880636 39.73852874 52.29216349 42.47265625 82.0078125 C43.73078125 81.6984375 44.98890625 81.3890625 46.28515625 81.0703125 C75.51493137 74.61044057 104.06208888 82.17430078 129.16015625 97.3203125 C139.86182999 104.41721193 148.80075157 112.68781449 156.47265625 123.0078125 C157.07464844 123.78382813 157.67664063 124.55984375 158.296875 125.359375 C172.39822876 144.30905938 178.88785464 166.83031606 178.78515625 190.2578125 C178.78169189 191.53817383 178.77822754 192.81853516 178.7746582 194.13769531 C178.64990071 204.97574424 177.52988891 214.69021309 173.66015625 224.8828125 C171.94591183 229.6844919 172.9505539 233.26618476 174.47265625 238.0078125 C174.99474822 239.7157616 175.51556334 241.42410148 176.03515625 243.1328125 C176.40833984 244.28136719 176.40833984 244.28136719 176.7890625 245.453125 C183.12952226 269.14832892 177.8878688 295.05676565 166.22265625 316.0703125 C157.57888331 330.3586182 145.9767572 341.74881532 131.47265625 350.0078125 C130.58449219 350.53117187 129.69632812 351.05453125 128.78125 351.59375 C122.68801203 354.93274271 116.52889847 357.03769021 109.84765625 358.8203125 C109.07228516 359.02736816 108.29691406 359.23442383 107.49804688 359.44775391 C98.13370881 361.79278962 88.8071422 362.15655348 79.19000244 362.14825439 C78.09694408 362.15122552 77.00388572 362.15419664 75.87770438 362.1572578 C72.23779762 362.16588629 68.59792397 362.16744805 64.95800781 362.16894531 C62.33888683 362.17357754 59.71976651 362.17860275 57.10064697 362.18399048 C50.00135367 362.19751541 42.90206606 362.2035889 35.80276203 362.20800114 C31.36325525 362.21077256 26.92375062 362.21501142 22.4842453 362.21950531 C10.17220827 362.23168861 -2.13982704 362.24199089 -14.45186996 362.2453804 C-15.2383167 362.24559997 -16.02476344 362.24581953 -16.8350419 362.24604575 C-17.62327053 362.24626403 -18.41149915 362.24648231 -19.2236135 362.2467072 C-20.82062515 362.24715065 -22.41763679 362.24759722 -24.01464844 362.24804688 C-24.80680584 362.2482683 -25.59896323 362.24848973 -26.4151254 362.24871787 C-39.24757953 362.252665 -52.07997685 362.27012062 -64.91240904 362.2934064 C-78.11360034 362.31716646 -91.31476317 362.32958431 -104.51597619 362.33074832 C-111.91743843 362.33166228 -119.31882654 362.33734426 -126.72026825 362.35556793 C-133.68394908 362.37265462 -140.64748746 362.37418693 -147.61118317 362.36542892 C-150.15960568 362.36466051 -152.70803586 362.36897536 -155.25643921 362.37888718 C-177.29222145 362.45953423 -196.74923552 361.1930866 -213.46557617 345.26538086 C-223.05431644 335.67338189 -231.3720243 322.02425262 -231.55290222 308.03045654 C-231.54438273 306.02290853 -231.53586324 304.01536051 -231.52734375 302.0078125 C-232.96847534 302.04708862 -232.96847534 302.04708862 -234.4387207 302.0871582 C-260.48786133 302.73454421 -284.43600105 302.67662495 -305.52734375 285.0078125 C-306.25566406 284.42386719 -306.98398437 283.83992188 -307.734375 283.23828125 C-321.23640502 271.94441969 -331.27032377 254.56364773 -333.52734375 237.0078125 C-335.28665273 215.3532983 -332.23438923 195.2545705 -318.65234375 177.6953125 C-317.29866821 176.11430213 -315.92375136 174.55121039 -314.52734375 173.0078125 C-313.8621875 172.24984375 -313.19703125 171.491875 -312.51171875 170.7109375 C-304.23826037 161.82463036 -293.22785645 154.46478216 -281.52734375 151.0078125 C-280.86734375 151.0078125 -280.20734375 151.0078125 -279.52734375 151.0078125 C-279.39199219 150.36457031 -279.25664062 149.72132813 -279.1171875 149.05859375 C-276.87983017 139.66705189 -272.90993967 130.77281787 -266.52734375 123.4453125 C-263.96519544 119.04162009 -264.48060693 116.6975793 -265.1171875 111.765625 C-268.03246581 85.0561228 -262.23571145 59.19893437 -245.65234375 37.7578125 C-244.29906932 36.15587063 -242.92359243 34.57243996 -241.52734375 33.0078125 C-240.80160156 32.18796875 -240.07585937 31.368125 -239.328125 30.5234375 C-222.19111164 12.28172411 -198.58234595 2.94164145 -173.76171875 1.99609375 C-167.69007956 1.91168595 -161.69427483 2.64730863 -155.68359375 3.4375 C-154.99523437 3.52628418 -154.306875 3.61506836 -153.59765625 3.70654297 C-152.19037996 3.91132822 -150.78855734 4.15682139 -149.39453125 4.43798828 C-145.880365 5.08208757 -144.02744086 5.30400097 -140.90234375 3.453125 C-140.11859375 2.68742187 -139.33484375 1.92171875 -138.52734375 1.1328125 C-124.3921168 -11.42098713 -106.01857788 -18.87291378 -87.52734375 -21.9921875 C-85.93019531 -22.26869141 -85.93019531 -22.26869141 -84.30078125 -22.55078125 C-54.04483383 -26.09003804 -24.24108271 -18.6469867 0 0 Z M-99.52734375 -0.9921875 C-100.53539062 -0.6415625 -101.5434375 -0.2909375 -102.58203125 0.0703125 C-115.23109328 4.80139025 -125.89504492 12.67162412 -135.52734375 22.0078125 C-136.12675781 22.53375 -136.72617188 23.0596875 -137.34375 23.6015625 C-152.38425618 37.2810948 -161.67023351 59.403958 -162.70458984 79.44140625 C-162.90517959 84.69272575 -163.06973772 89.93996841 -163.14990234 95.19433594 C-163.17262207 96.41668945 -163.1953418 97.63904297 -163.21875 98.8984375 C-163.23107666 100.00219727 -163.24340332 101.10595703 -163.25610352 102.24316406 C-163.52734375 105.0078125 -163.52734375 105.0078125 -165.52734375 108.0078125 C-170.16886134 109.58832927 -174.50305416 109.20170455 -179.03515625 107.54296875 C-185.16931545 105.60801738 -191.01132521 105.52920068 -197.40234375 105.5703125 C-198.49675781 105.55033203 -199.59117187 105.53035156 -200.71875 105.50976562 C-216.39506262 105.51904155 -229.67985933 112.1608414 -241.52734375 122.0078125 C-242.12160156 122.44480469 -242.71585937 122.88179688 -243.328125 123.33203125 C-254.95240886 132.23062096 -261.45470062 147.05016791 -264.55859375 160.94921875 C-266.32504291 164.70292322 -269.76608622 165.71300189 -273.47265625 167.1484375 C-275.04660156 167.69757813 -275.04660156 167.69757813 -276.65234375 168.2578125 C-292.44148186 174.25661695 -304.25421849 184.66848182 -311.52734375 200.0078125 C-317.30839076 214.68955688 -318.4653977 228.87299781 -313.52734375 244.0078125 C-313.26050781 244.85859375 -312.99367188 245.709375 -312.71875 246.5859375 C-307.67641364 260.83894161 -296.90875489 271.59221274 -283.65234375 278.3828125 C-283.02908203 278.70467529 -282.40582031 279.02653809 -281.76367188 279.3581543 C-269.85446255 285.09575884 -258.19890091 285.40508661 -245.27734375 285.1953125 C-243.64584579 285.18022706 -242.01433422 285.16654554 -240.3828125 285.15429688 C-236.43064643 285.1216227 -232.47915013 285.07005824 -228.52734375 285.0078125 C-228.20266113 284.27828369 -227.87797852 283.54875488 -227.54345703 282.79711914 C-220.70069482 267.5571114 -212.64320701 256.26078942 -197.46484375 248.5078125 C-196.82877197 248.18143799 -196.1927002 247.85506348 -195.53735352 247.51879883 C-190.36993811 245.05039709 -185.15943146 243.93580648 -179.52734375 243.0078125 C-179.5133252 242.11026245 -179.5133252 242.11026245 -179.49902344 241.19458008 C-179.05346127 218.45125243 -174.22946787 199.33907223 -157.359375 182.89453125 C-141.99078542 169.63687022 -123.50250547 164.75936489 -103.52734375 166.0078125 C-100.42195419 166.42371289 -97.52704757 167.11761262 -94.52734375 168.0078125 C-92.50665368 168.55001337 -90.48581587 169.09166387 -88.46484375 169.6328125 C-86.81842072 170.089023 -85.17236984 170.54659023 -83.52734375 171.0078125 C-83.09164062 169.96882812 -82.6559375 168.92984375 -82.20703125 167.859375 C-72.50498134 145.00163094 -58.97285921 128.52448294 -35.52734375 119.0078125 C-15.93437392 111.71425572 5.54062164 113.66107928 24.40625 122.01171875 C29.98102901 124.63522037 34.73725512 128.09137629 39.47265625 132.0078125 C40.10171875 132.47574219 40.73078125 132.94367188 41.37890625 133.42578125 C52.55306258 142.08575241 59.66087508 155.58977178 63.640625 168.88671875 C63.98762451 170.03857666 64.33462402 171.19043457 64.69213867 172.37719727 C64.94970947 173.24530029 65.20728027 174.11340332 65.47265625 175.0078125 C66.33431396 175.00257568 67.19597168 174.99733887 68.08374023 174.99194336 C71.32104235 174.97476646 74.55832101 174.96229719 77.7956543 174.95288086 C79.18921682 174.94789293 80.58277423 174.94110019 81.97631836 174.93237305 C109.42609049 174.76493633 132.48318254 183.58448946 152.47265625 203.0078125 C154.55839964 205.28560506 156.51822623 207.61363572 158.47265625 210.0078125 C165.15560326 197.53297807 162.41444548 178.84732438 158.6640625 165.7265625 C153.81754101 150.59905934 146.69951103 137.32136114 135.47265625 126.0078125 C134.62703125 125.1209375 133.78140625 124.2340625 132.91015625 123.3203125 C131.70359375 122.175625 131.70359375 122.175625 130.47265625 121.0078125 C129.94929688 120.48960937 129.4259375 119.97140625 128.88671875 119.4375 C110.75388049 102.37579987 85.65060837 95.97261245 61.3828125 96.6015625 C54.47819479 96.95087995 47.99740619 98.31534893 41.34765625 100.1328125 C31.72321354 102.30607376 31.72321354 102.30607376 27.0078125 99.5859375 C24.70859392 95.72465439 24.92508712 92.17444714 24.91015625 87.7578125 C24.18101335 61.61993343 15.1096106 38.56161566 -3.52734375 20.0078125 C-15.03206979 9.18083675 -29.35654212 1.40451541 -44.52734375 -2.9921875 C-45.41099609 -3.25491455 -45.41099609 -3.25491455 -46.3125 -3.52294922 C-53.66809417 -5.45310396 -61.09226107 -5.3884259 -68.65234375 -5.3671875 C-69.34365387 -5.36697601 -70.03496399 -5.36676453 -70.7472229 -5.36654663 C-80.91792288 -5.33541379 -89.97354437 -4.78377368 -99.52734375 -0.9921875 Z M-55.52734375 152.0078125 C-62.24280861 160.63669106 -67.07554305 170.57678619 -68.52734375 181.4453125 C-69.0837383 185.37613696 -69.45433911 186.90236136 -71.77734375 190.2578125 C-75.1104454 192.37887719 -76.63190584 192.35888283 -80.52734375 192.0078125 C-83.23828125 190.80078125 -83.23828125 190.80078125 -85.90234375 189.1953125 C-97.74985403 182.36083038 -109.5931949 180.19564908 -123.08203125 182.65625 C-138.54795123 186.99560884 -149.77352695 196.59960583 -157.859375 210.2578125 C-161.61510058 217.45980312 -162.84068379 224.20888987 -162.71484375 232.2578125 C-162.71129883 233.09393066 -162.70775391 233.93004883 -162.70410156 234.79150391 C-162.65178878 240.19332214 -162.29300867 245.45116192 -161.35546875 250.78125 C-161.6232002 254.24958919 -163.01539823 255.68193702 -165.52734375 258.0078125 C-168.59375 258.57421875 -168.59375 258.57421875 -172.08984375 258.5703125 C-181.33510848 258.91664916 -189.15566134 261.27428174 -196.52734375 267.0078125 C-197.16285156 267.48863281 -197.79835937 267.96945312 -198.453125 268.46484375 C-206.4857122 274.92419353 -211.91228384 283.7656409 -213.52734375 294.0078125 C-214.23036099 302.44611169 -214.81531647 311.44271995 -210.52734375 319.0078125 C-210.13675781 319.7915625 -209.74617188 320.5753125 -209.34375 321.3828125 C-202.91530866 333.32915108 -193.154336 339.79881508 -180.52734375 344.0078125 C-178.97468706 344.10059849 -177.41833995 344.13691652 -175.86291504 344.13924026 C-174.89882501 344.14308141 -173.93473497 344.14692255 -172.94143009 344.1508801 C-171.87987926 344.15001362 -170.81832842 344.14914713 -169.72460938 344.14825439 C-168.59866332 344.15122552 -167.47271727 344.15419664 -166.31265163 344.1572578 C-162.51962492 344.16596623 -158.72662969 344.16745487 -154.93359375 344.16894531 C-152.2219677 344.17303321 -149.51034499 344.17857585 -146.79872131 344.18399048 C-139.41616607 344.19757948 -132.03361624 344.20359996 -124.65105057 344.20800114 C-120.0395725 344.21076371 -115.42809653 344.2150012 -110.81661987 344.21950531 C-98.04506054 344.23170081 -85.27350289 344.24199821 -72.50193787 344.2453804 C-71.27545421 344.24570975 -71.27545421 344.24570975 -70.02419311 344.24604575 C-69.20458687 344.24626403 -68.38498063 344.24648231 -67.54053783 344.2467072 C-65.87972704 344.24715067 -64.21891626 344.24759723 -62.55810547 344.24804688 C-61.7342871 344.2482683 -60.91046872 344.24848973 -60.06168616 344.24871787 C-46.72560546 344.25266225 -33.38957953 344.270104 -20.05351996 344.2934064 C-6.35648939 344.31714587 7.34051375 344.32958351 21.03756523 344.33074832 C28.7257574 344.33166385 36.41387829 344.33738488 44.10205078 344.35556793 C50.65196432 344.37100428 57.20178458 344.37606877 63.75171286 344.36782983 C67.09084842 344.36393516 70.42964436 344.36644156 73.76878166 344.37888718 C77.39736562 344.39161588 81.02547176 344.38572417 84.65405273 344.37530518 C85.6977578 344.38336158 86.74146286 344.39141798 87.81679535 344.39971852 C94.78511822 344.3530968 100.84927372 343.14147403 107.47265625 341.0078125 C108.62636719 340.64300781 109.78007812 340.27820313 110.96875 339.90234375 C131.01759859 332.5271365 145.64962326 318.45853609 154.84765625 299.3828125 C162.65668206 281.45017428 164.63745316 260.47852748 157.47265625 242.0078125 C153.82452919 233.37648185 149.57696551 225.16341947 143.47265625 218.0078125 C143.04984375 217.44320312 142.62703125 216.87859375 142.19140625 216.296875 C131.9630613 203.15464108 114.51753947 194.36016849 98.375 191.44921875 C93.39295464 190.88568409 88.48236855 190.82367924 83.47265625 190.8203125 C82.51359375 190.80806641 81.55453125 190.79582031 80.56640625 190.78320312 C75.12553906 190.77199255 70.69909817 191.34719425 65.47265625 193.0078125 C62.48828125 193.30859375 62.48828125 193.30859375 59.72265625 193.3203125 C58.7996875 193.33707031 57.87671875 193.35382813 56.92578125 193.37109375 C54.47265625 193.0078125 54.47265625 193.0078125 52.73046875 191.953125 C50.85044898 189.04551679 50.57882964 185.9314732 50.09765625 182.5703125 C47.43435216 166.65868578 39.93275837 153.40408965 27.47265625 143.0078125 C21.26717284 138.79168591 14.72371652 135.0548315 7.47265625 133.0078125 C6.75207031 132.80414063 6.03148437 132.60046875 5.2890625 132.390625 C-17.74570646 126.86833228 -39.89060797 134.81205693 -55.52734375 152.0078125 Z " fill="#232021" transform="translate(333.52734375,107.9921875)"/>
<path d="M0 0 C-1.96005461 3.44864842 -3.93044658 6.88357061 -5.96484375 10.2890625 C-10.49705137 17.95342944 -14.2039141 25.50502147 -17 34 C-17.29648438 34.88171875 -17.59296875 35.7634375 -17.8984375 36.671875 C-20.94642782 47.1135052 -21.23555145 58.20164961 -22 69 C-23.36596313 68.96072388 -23.36596313 68.96072388 -24.75952148 68.9206543 C-45.94513589 68.39158319 -63.47216119 68.47013562 -82.265625 79.44921875 C-84.79596172 80.88428114 -87.27631926 81.99104527 -90 83 C-91.01366912 64.54082542 -89.082059 48.35934493 -78 33 C-77.45472656 32.23558594 -76.90945312 31.47117188 -76.34765625 30.68359375 C-63.96925914 14.09485749 -47.1554174 3.50362501 -26.80078125 -0.50390625 C-17.94752471 -1.65947005 -8.77733435 -1.70060853 0 0 Z " fill="#FC9611" transform="translate(176,129)"/>
<path d="M0 0 C6.49832272 4.84961802 12.15353462 10.97047675 17.875 16.6875 C18.72835937 17.52861328 19.58171875 18.36972656 20.4609375 19.23632812 C21.68296875 20.45545898 21.68296875 20.45545898 22.9296875 21.69921875 C23.66429199 22.42971436 24.39889648 23.16020996 25.15576172 23.9128418 C28.08898895 27.23242872 29.03478073 29.02613943 28.875 33.5 C27.91383374 37.34466506 27.18159919 38.70217836 24 41 C20.75691349 42.28016573 19.45628836 42.18664707 16.2121582 40.85961914 C12.60886652 38.77356056 9.86398289 36.26154308 6.98046875 33.30859375 C6.43642899 32.76268082 5.89238922 32.21676788 5.3318634 31.65431213 C4.19141704 30.50718025 3.05455532 29.35647448 1.92114258 28.20239258 C0.1824462 26.4323551 -1.56686914 24.67338581 -3.31835938 22.91601562 C-4.42771259 21.79749875 -5.53645848 20.67837913 -6.64453125 19.55859375 C-7.16739212 19.031483 -7.69025299 18.50437225 -8.22895813 17.96128845 C-11.65275056 14.4691198 -12.91187141 13.0927945 -13.3125 8.125 C-13.27809912 4.96585234 -13.14957689 4.20115512 -11.1875 1.5625 C-7.22416879 -1.26845086 -4.57924108 -1.3824124 0 0 Z " fill="#231F20" transform="translate(56,92)"/>
<path d="M0 0 C3.30430317 0.99067562 4.83297281 3.06880133 7.09765625 5.62890625 C8.35775734 8.05756635 9.4282059 10.34487216 10.4296875 12.87109375 C10.71116135 13.55769073 10.99263519 14.24428772 11.28263855 14.95169067 C11.87102334 16.39641778 12.45307341 17.84373951 13.02905273 19.29345703 C13.90777173 21.49792414 14.81260514 23.69030976 15.72070312 25.8828125 C16.29196342 27.29492717 16.86167736 28.7076686 17.4296875 30.12109375 C17.69836136 30.76924042 17.96703522 31.41738708 18.24385071 32.08517456 C19.93552404 36.40907247 20.5175666 40.00251328 20.09765625 44.62890625 C18.10240702 47.55942856 16.6692914 49.27412128 13.125 50.07421875 C9.76218529 50.2627878 7.63200789 50.06798927 5.00390625 47.90844727 C3.01640207 45.53174048 1.87392711 43.43681925 0.66015625 40.59375 C0.02980469 39.13098633 0.02980469 39.13098633 -0.61328125 37.63867188 C-1.03867188 36.62482422 -1.4640625 35.61097656 -1.90234375 34.56640625 C-2.32773438 33.57962891 -2.753125 32.59285156 -3.19140625 31.57617188 C-11.98024815 10.99248847 -11.98024815 10.99248847 -9.90234375 4.62890625 C-7.29816432 0.56638633 -4.7320587 0.15993041 0 0 Z " fill="#231F20" transform="translate(103.90234375,55.37109375)"/>
<path d="M0 0 C2.67822848 0.80008013 5.08566836 1.62830534 7.640625 2.703125 C8.33009216 2.98218689 9.01955933 3.26124878 9.72991943 3.54876709 C11.17459231 4.13727684 12.61650213 4.7326119 14.05566406 5.33447266 C16.25137442 6.25057344 18.45648059 7.14029007 20.6640625 8.02734375 C22.07354638 8.60523734 23.48242327 9.18461406 24.890625 9.765625 C25.87195404 10.16119598 25.87195404 10.16119598 26.87310791 10.5647583 C30.66208176 12.16759942 33.36828833 13.81928359 36 17 C37.13953566 20.09302537 37.02376488 21.86797289 36.4375 25.125 C35 28 35 28 32.4375 30 C23.9466542 32.47006423 14.5134887 26.94100647 6.8125 23.625 C5.66330078 23.14289063 4.51410156 22.66078125 3.33007812 22.1640625 C-10.96379748 16.07240503 -10.96379748 16.07240503 -13 12 C-13.48602588 7.70677141 -13.46241608 5.67917361 -11 2.0625 C-7.2574106 -0.51053021 -4.36603905 -0.48373799 0 0 Z " fill="#221E1F" transform="translate(23,144)"/>
<path d="M0 0 C3.14778894 2.85247473 4.24788816 5.11053217 4.53344727 9.25195312 C4.56644841 10.92809657 4.57612752 12.6048099 4.56640625 14.28125 C4.57570412 15.6179071 4.57570412 15.6179071 4.58518982 16.98156738 C4.59227675 18.86091014 4.58913366 20.74031582 4.57641602 22.61962891 C4.56254307 25.4910857 4.59664388 28.35928664 4.63476562 31.23046875 C4.63571682 33.05989663 4.63385795 34.88932858 4.62890625 36.71875 C4.64216446 37.57408325 4.65542267 38.4294165 4.66908264 39.31066895 C4.600297 43.72510957 4.4231975 45.46564022 1.59179688 49.04077148 C-0.9500347 50.96222951 -1.94709538 51.667792 -5.0625 51.5625 C-9 51 -9 51 -11.4375 49.125 C-14.46273462 45.01068092 -14.17770188 41.39681704 -14.203125 36.44921875 C-14.20882507 35.59826126 -14.21452515 34.74730377 -14.22039795 33.87055969 C-14.22985298 32.06744634 -14.23638392 30.26431567 -14.24023438 28.46118164 C-14.24992487 25.70883802 -14.28093675 22.95724592 -14.3125 20.20507812 C-14.31903163 18.45312943 -14.32428147 16.7011754 -14.328125 14.94921875 C-14.3404718 14.12822189 -14.3528186 13.30722504 -14.36553955 12.46134949 C-14.34746338 7.79954775 -13.9862825 4.80902444 -11 1 C-7.44724114 -1.79145339 -4.20120319 -1.12532228 0 0 Z " fill="#231F20" transform="translate(167,43)"/>
<path d="M0 0 C1.20416817 -0.00855011 1.20416817 -0.00855011 2.43266296 -0.01727295 C4.13144618 -0.02671539 5.83024765 -0.03325393 7.52905273 -0.03710938 C10.11670251 -0.04680004 12.70355271 -0.07782358 15.29101562 -0.109375 C16.94400572 -0.11590701 18.59700147 -0.12115671 20.25 -0.125 C21.01895096 -0.1373468 21.78790192 -0.1496936 22.58015442 -0.16241455 C27.38369909 -0.1426838 30.65893971 0.55448375 34.82421875 3.203125 C36.64500599 6.13221751 36.83979328 7.82154899 36.69921875 11.265625 C35.62983585 14.85569618 34.8557671 15.98943726 31.82421875 18.203125 C28.69226904 18.8030196 25.60290032 18.76356521 22.421875 18.734375 C21.04980141 18.74011536 21.04980141 18.74011536 19.65000916 18.74597168 C17.7175893 18.74869074 15.78513263 18.74132993 13.8527832 18.72460938 C10.90036562 18.70322385 7.95038821 18.72439811 4.99804688 18.75 C3.11848423 18.74735624 1.23892309 18.74223027 -0.640625 18.734375 C-1.96114113 18.74652039 -1.96114113 18.74652039 -3.30833435 18.75891113 C-7.44937531 18.69582031 -9.63905332 18.53579343 -13.23242188 16.30859375 C-15.45595505 13.89957992 -15.83237684 12.9355851 -15.73828125 9.703125 C-15.55706345 6.46252428 -15.31904188 5.40072587 -13.36328125 2.703125 C-9.11543111 -0.20968653 -4.9560893 0.02717694 0 0 Z " fill="#231F20" transform="translate(15.17578125,203.796875)"/>
</svg>
