<?xml version="1.0" encoding="UTF-8"?>
<svg version="1.1" xmlns="http://www.w3.org/2000/svg" width="512" height="512">
<path d="M0 0 C0.67675781 0.61230469 1.35351562 1.22460938 2.05078125 1.85546875 C23.68692806 22.19084521 35.02670243 53.18492379 36 82.41015625 C36.30629911 107.48839616 29.46382195 129.45082798 17 151 C17.65226562 151.44730469 18.30453125 151.89460937 18.9765625 152.35546875 C21.66632636 154.21608711 24.33484906 156.10433625 27 158 C28.5778125 159.11375 28.5778125 159.11375 30.1875 160.25 C37.14359314 167.05151329 41.36204178 175.70979932 44 185 C44 185.66 44 186.32 44 187 C45.18335938 186.96519531 46.36671875 186.93039062 47.5859375 186.89453125 C68.1415525 186.45722403 68.1415525 186.45722403 77.375 194.125 C83.7744815 200.34364843 86.48157456 206.64617917 87.03125 215.5234375 C86.92342356 224.06868257 83.95617021 230.68967481 78.2109375 236.94921875 C69.81468309 244.927333 60.82145544 245.46087386 49.609375 245.43359375 C48.34659729 245.4388356 47.08381958 245.44407745 45.78277588 245.44947815 C43.12667127 245.45587556 40.47143458 245.45604664 37.81542969 245.44604492 C34.4202741 245.43450164 31.02615041 245.45487431 27.63113022 245.48396206 C24.37387319 245.50674218 21.11669301 245.49985891 17.859375 245.49609375 C16.64473572 245.50732773 15.43009644 245.51856171 14.1786499 245.53013611 C13.04687317 245.52075516 11.91509644 245.51137421 10.74902344 245.50170898 C9.75690857 245.50154282 8.7647937 245.50137665 7.74261475 245.50120544 C4.18888634 244.85177117 2.49266899 243.58344427 0 241 C0 239.68 0 238.36 0 237 C-9.405 237.495 -9.405 237.495 -19 238 C-19.66 239.65 -20.32 241.3 -21 243 C-24.40079635 245.66664038 -28.41668305 245.28260961 -32.55093384 245.26069641 C-33.31500372 245.26452196 -34.07907361 245.26834751 -34.86629713 245.27228898 C-37.42867546 245.28261423 -39.99082951 245.27862767 -42.55322266 245.2746582 C-44.38978279 245.27900511 -46.22634111 245.28418819 -48.06289673 245.29014587 C-53.05492802 245.30355384 -58.04688367 245.30411222 -63.03892946 245.30158257 C-67.20857458 245.30051342 -71.37820436 245.30539514 -75.5478462 245.310188 C-85.39014478 245.3212908 -95.23240521 245.32171717 -105.07470703 245.31567383 C-115.21751856 245.30964144 -125.36019111 245.3219246 -135.50297892 245.3432439 C-144.21652853 245.36088354 -152.93003402 245.36685726 -161.64360082 245.36360615 C-166.84514794 245.36179588 -172.04659607 245.36440332 -177.24812698 245.37832069 C-182.14503268 245.39093173 -187.0417228 245.38892395 -191.93862534 245.37590981 C-193.73081791 245.37355107 -195.5230258 245.37625339 -197.31520081 245.38453293 C-211.50515239 245.44533223 -222.02950218 244.47213683 -232.6875 234.40625 C-238.3849667 228.36693529 -241.26482915 221.48591525 -241.1015625 213.171875 C-241.08689941 212.19831055 -241.07223633 211.22474609 -241.05712891 210.22167969 C-241.03827637 209.48852539 -241.01942383 208.75537109 -241 208 C-242.09799659 208.00276538 -242.09799659 208.00276538 -243.21817493 208.00558662 C-261.06406314 208.04983665 -278.90994033 208.08289103 -296.75587177 208.10362434 C-305.38617745 208.1139184 -314.01644641 208.12794281 -322.64672852 208.15087891 C-330.17257961 208.17087023 -337.6984041 208.18373002 -345.22428101 208.18817699 C-349.20580636 208.19077468 -353.18725562 208.19684102 -357.16875648 208.21146011 C-360.92386826 208.22513496 -364.67887333 208.22920284 -368.43400764 208.22621536 C-370.45366916 208.22701941 -372.47331933 208.23772884 -374.49295044 208.24884033 C-385.92057822 208.22322952 -396.10474867 207.85689515 -405 200 C-412.10120279 192.35020644 -413.5368795 185.08544315 -413.375 174.765625 C-412.59602597 166.94342741 -408.78750432 160.68734497 -402.96875 155.47265625 C-393.40973216 148.32235917 -382.37341284 149.56956516 -371 150 C-370.81932983 149.11139282 -370.81932983 149.11139282 -370.63500977 148.20483398 C-367.80541546 134.80759898 -361.00435222 124.73206815 -349.5 117.0625 C-342.61250712 112.97425353 -335.92890497 110.84350053 -328 110 C-327.88914062 108.83082031 -327.77828125 107.66164062 -327.6640625 106.45703125 C-325.43505493 88.79971866 -313.08666841 72.03630242 -299.62109375 61.05859375 C-297.0731029 59.39472503 -295.01764168 59 -292 59 C-291.25363281 59.38027344 -290.50726563 59.76054687 -289.73828125 60.15234375 C-284.87617726 61.65744584 -281.19491536 58.99429921 -276.83203125 56.859375 C-273.65812862 55.15888595 -273.65812862 55.15888595 -272.5 51.3125 C-272.335 50.219375 -272.17 49.12625 -272 48 C-262.52583087 40.95337599 -247.13534395 42.02732388 -236.015625 43.46484375 C-223.75360759 45.34419443 -212.67807408 49.70197669 -202 56 C-201.731875 55.1028125 -201.46375 54.205625 -201.1875 53.28125 C-190.65977848 19.75876831 -169.14336916 -6.66851487 -137.88720703 -23.06103516 C-91.50668004 -46.13729736 -36.82643073 -34.72911307 0 0 Z " fill="#010202" transform="translate(413,109)"/>
<path d="M0 0 C11.10995468 10.20183664 17.37268438 23.4276487 19.90698242 38.10742188 C20.53728522 41.51768393 21.0893396 43.83526827 23.078125 46.72265625 C26.09052679 48.72580098 28.40659532 48.89668122 32 49.1875 C41.77009467 50.3732895 48.87480463 53.70183959 55.6171875 60.94921875 C60.23102958 66.98822539 62.95991477 73.54185382 62.84375 81.1796875 C63.49505199 83.71784967 64.51261839 85.45922619 66.43994141 87.24609375 C71.0213407 89.62291862 76.78152303 88.86304921 81.8125 88.8125 C96.50954421 88.71114107 96.50954421 88.71114107 101.375 93.25 C103.76213778 96.1941366 104.33692889 97.90101478 104.75 101.6875 C104.20917794 106.82530953 102.87037593 109.86345922 99.06713867 113.38989258 C94.10112299 116.54217615 88.09840644 115.83319214 82.42578125 115.82421875 C80.55142647 115.84546562 80.55142647 115.84546562 78.63920593 115.86714172 C75.33097976 115.90191211 72.02322208 115.9203317 68.71484375 115.92993164 C64.04431095 115.9473674 59.37398748 115.99448334 54.70365906 116.03999329 C52.21967261 116.06249682 49.73561487 116.07830632 47.25154114 116.08683777 C45.56915596 116.09738945 45.56915596 116.09738945 43.8527832 116.1081543 C42.86494339 116.11163376 41.87710358 116.11511322 40.85932922 116.11869812 C38.24204347 116.14669826 38.24204347 116.14669826 35.375 117.25 C34.385 120.22 34.385 120.22 33.375 123.25 C26.775 123.25 20.175 123.25 13.375 123.25 C12.385 120.775 12.385 120.775 11.375 118.25 C7.73850955 115.82567303 5.08053492 115.97133076 0.87944031 115.9984436 C0.10931903 115.99547346 -0.66080224 115.99250333 -1.45426053 115.98944318 C-4.04290556 115.98178553 -6.63132487 115.98830441 -9.2199707 115.99462891 C-11.07272496 115.99187982 -12.92547803 115.98820043 -14.77822876 115.98365784 C-18.7724447 115.97553651 -22.76660462 115.97337973 -26.76082802 115.97560501 C-33.07629105 115.97843362 -39.39164179 115.96410279 -45.70707703 115.94662476 C-63.66724965 115.89955527 -81.62741495 115.87565662 -99.58764648 115.86914062 C-109.50357517 115.8653912 -119.41937714 115.84737018 -129.33525151 115.81404626 C-135.61338072 115.7938126 -141.89118357 115.79147182 -148.16933215 115.80232644 C-152.07675501 115.80493246 -155.98398765 115.7909346 -159.89136124 115.77224541 C-161.70296346 115.76692007 -163.51460064 115.76842605 -165.32618904 115.77728081 C-167.80074442 115.78840001 -170.27401257 115.77497365 -172.74848938 115.75552368 C-173.4643552 115.76464834 -174.18022102 115.773773 -174.91777974 115.78317416 C-179.93400756 115.70652504 -182.7437516 114.36376308 -186.625 111.25 C-191.33086389 106.02126234 -193.22189732 101.93579889 -193.06640625 94.91796875 C-192.16634824 89.47779511 -189.04921227 85.4382792 -185.01953125 81.80078125 C-180.30044531 78.60615063 -175.15194158 78.45125595 -169.625 79.25 C-167.60176387 80.20211112 -165.59800116 81.19773272 -163.625 82.25 C-159.01299297 82.87936756 -159.01299297 82.87936756 -155.03515625 80.96875 C-153.5549333 79.16460014 -152.68723738 77.50659297 -151.75 75.375 C-148.67888564 69.03575639 -143.5427256 64.89599208 -137.625 61.25 C-133.17076993 59.76525664 -128.53980165 59.96727597 -123.87304688 59.90820312 C-120.33598558 59.77583268 -118.16629238 59.58641069 -115.1171875 57.69140625 C-113.06801785 54.33870722 -113.16217802 51.30859783 -113.1875 47.5 C-112.6937693 29.40174496 -105.35101319 14.0400703 -92.625 1.25 C-91.95984375 0.55003906 -91.2946875 -0.14992187 -90.609375 -0.87109375 C-65.27994247 -25.66880156 -25.6861606 -21.52786142 0 0 Z " fill="#98E5FB" transform="translate(379.625,222.75)"/>
<path d="M0 0 C0.86109375 0.19335938 1.7221875 0.38671875 2.609375 0.5859375 C26.78552801 6.83279583 49.01932989 24.49770687 62.25 45.375 C76.33279849 69.3952571 82.54601598 97.06191023 75.96484375 124.5390625 C75.64644531 125.68117187 75.32804688 126.82328125 75 128 C74.50693359 129.80597656 74.50693359 129.80597656 74.00390625 131.6484375 C71.79214053 138.94956033 68.88876992 145.61884312 65.375 152.375 C64.99069824 153.11927246 64.60639648 153.86354492 64.21044922 154.63037109 C61.37599296 159.87466901 61.37599296 159.87466901 58 161 C57.72027344 160.06800781 57.44054687 159.13601562 57.15234375 158.17578125 C50.28961879 136.04437009 37.5061227 117.83503924 16.7265625 106.7890625 C-2.06061006 97.40045427 -24.52210865 94.44448168 -44.6875 100.8125 C-46.3271875 101.4003125 -46.3271875 101.4003125 -48 102 C-49.03125 102.350625 -50.0625 102.70125 -51.125 103.0625 C-59.28848563 106.12380711 -66.09812566 110.78949407 -73 116 C-73.74121094 116.54269531 -74.48242188 117.08539063 -75.24609375 117.64453125 C-88.82464031 128.43633385 -98.9631751 147.80272545 -101.39453125 164.75 C-101.47058594 165.554375 -101.54664063 166.35875 -101.625 167.1875 C-102 171 -102 171 -104 173 C-113.73064331 161.96292772 -121.1256603 149.95238848 -126 136 C-126.34272949 135.04939697 -126.34272949 135.04939697 -126.69238281 134.07958984 C-135.17414294 109.77630559 -133.28499294 80.35935356 -122.2109375 57.13671875 C-118.01303315 48.76114862 -112.9449615 41.25469485 -107 34 C-106.30261719 33.13761719 -105.60523438 32.27523437 -104.88671875 31.38671875 C-79.20723725 1.20041782 -37.75281704 -9.22272014 0 0 Z " fill="#FEE076" transform="translate(355,93)"/>
<path d="M0 0 C1.0828125 1.2684375 1.0828125 1.2684375 2.1875 2.5625 C3.5796875 3.7690625 3.5796875 3.7690625 5 5 C6.63490903 4.82233848 8.27021367 4.62604922 9.88793945 4.33032227 C27.7771421 1.53248489 45.47489654 4.73290875 61 14 C61.6185083 14.2784375 62.2370166 14.556875 62.87426758 14.84375 C65.10448208 16.033047 66.44498056 16.99334086 68 19 C68.94119764 23.37197686 68.78167601 27.67018042 68.6875 32.125 C68.94640233 60.21770122 77.72760358 84.65731947 95 107 C93.93072266 107.61875 93.93072266 107.61875 92.83984375 108.25 C85.23982312 112.83251581 79.91123827 117.63314259 75 125 C74.28199219 124.84015625 73.56398437 124.6803125 72.82421875 124.515625 C63.70846316 122.85133767 54.34426177 123.54339032 46.4453125 128.65234375 C43.02508348 131.2366382 40.39095884 133.41356174 38 137 C35.34997177 137.38031673 35.34997177 137.38031673 31.91546631 137.38768005 C30.61719406 137.39758469 29.31892181 137.40748932 27.98130798 137.41769409 C26.5340872 137.41345548 25.08686732 137.40889756 23.63964844 137.40405273 C22.12200923 137.40975239 20.60437432 137.41671507 19.08674622 137.42485046 C14.95636681 137.442847 10.8261991 137.44160077 6.6957922 137.43590808 C3.24909147 137.43282397 -0.19756814 137.43890035 -3.64426303 137.44494683 C-11.77768778 137.45901326 -19.91100757 137.45741468 -28.04443359 137.44604492 C-36.43438662 137.43457566 -44.82401955 137.44861436 -53.21393037 137.4754414 C-60.41487704 137.49760441 -67.61572329 137.50423401 -74.81670165 137.49836498 C-79.11833969 137.49499391 -83.41977278 137.49741966 -87.72138214 137.51461601 C-91.76965765 137.53009152 -95.81746008 137.52612317 -99.86571693 137.50731087 C-101.34997531 137.50362588 -102.83426875 137.50673092 -104.3184948 137.51719666 C-106.34813775 137.53041294 -108.37790299 137.51644703 -110.40753174 137.50120544 C-111.54242664 137.50099616 -112.67732155 137.50078688 -113.84660721 137.50057125 C-117.75420348 136.88027734 -119.92013218 135.44149886 -123 133 C-125.910372 128.634442 -126.6506249 125.20499921 -126 120 C-123.68149914 115.4521714 -120.81732609 111.88346164 -116 110 C-111.46099154 109.46443153 -106.94145519 109.48551864 -102.375 109.5 C-99.94530223 109.50765661 -97.51547139 109.49798947 -95.0859375 109.46875 C-93.4779126 109.47551758 -93.4779126 109.47551758 -91.83740234 109.48242188 C-88.31946011 108.88429299 -87.16240203 107.78418812 -85 105 C-84.31003463 102.3416043 -84.31003463 102.3416043 -84.125 99.4375 C-82.81191262 90.30152764 -79.24161464 83.51190486 -72.1875 77.5 C-65.24272153 72.42377179 -58.76459421 70.76043737 -50.26171875 70.30859375 C-47.67301307 69.9553852 -46.12431824 69.53909391 -44 68 C-42.99748275 65.58211075 -42.99748275 65.58211075 -42.5 62.6875 C-42.25765625 61.60855469 -42.0153125 60.52960938 -41.765625 59.41796875 C-41.38664062 57.72607422 -41.38664062 57.72607422 -41 56 C-37.213362 41.08564751 -30.17049922 29.47678988 -19 19 C-18.01 18.67 -17.02 18.34 -16 18 C-15.7215625 16.1128125 -15.7215625 16.1128125 -15.4375 14.1875 C-15.33308594 13.47980469 -15.22867188 12.77210938 -15.12109375 12.04296875 C-14.86095201 9.7974658 -14.86095201 9.7974658 -16 7 C-13.71070947 5.82845707 -11.41881638 4.66261926 -9.125 3.5 C-8.47402344 3.16613281 -7.82304687 2.83226562 -7.15234375 2.48828125 C-2.2265625 0 -2.2265625 0 0 0 Z " fill="#00BFF8" transform="translate(141,164)"/>
<path d="M0 0 C2.35249147 3.52873721 2.2714593 5.53763964 2.36328125 9.6484375 C3.41135832 13.51924973 4.65326524 14.71993781 8 17 C12.47664483 17.66702046 16.91871316 17.60790293 21.4375 17.5625 C36.13454421 17.46114107 36.13454421 17.46114107 41 22 C43.38713778 24.9441366 43.96192889 26.65101478 44.375 30.4375 C43.83417794 35.57530953 42.49537593 38.61345922 38.69213867 42.13989258 C33.72612299 45.29217615 27.72340644 44.58319214 22.05078125 44.57421875 C20.17642647 44.59546562 20.17642647 44.59546562 18.26420593 44.61714172 C14.95597976 44.65191211 11.64822208 44.6703317 8.33984375 44.67993164 C3.66931095 44.6973674 -1.00101252 44.74448334 -5.67134094 44.78999329 C-8.15532739 44.81249682 -10.63938513 44.82830632 -13.12345886 44.83683777 C-14.24504898 44.84387222 -15.3666391 44.85090668 -16.5222168 44.8581543 C-17.51005661 44.86163376 -18.49789642 44.86511322 -19.51567078 44.86869812 C-22.13295653 44.89669826 -22.13295653 44.89669826 -25 46 C-25.99 48.97 -25.99 48.97 -27 52 C-33.6 52 -40.2 52 -47 52 C-47.99 49.525 -47.99 49.525 -49 47 C-52.63649045 44.57567303 -55.29446508 44.72133076 -59.49555969 44.7484436 C-60.26568097 44.74547346 -61.03580224 44.74250333 -61.82926053 44.73944318 C-64.41790556 44.73178553 -67.00632487 44.73830441 -69.5949707 44.74462891 C-71.44772496 44.74187982 -73.30047803 44.73820043 -75.15322876 44.73365784 C-79.1474447 44.72553651 -83.14160462 44.72337973 -87.13582802 44.72560501 C-93.45129105 44.72843362 -99.76664179 44.71410279 -106.08207703 44.69662476 C-124.04224965 44.64955527 -142.00241495 44.62565662 -159.96264648 44.61914062 C-169.87857517 44.6153912 -179.79437714 44.59737018 -189.71025151 44.56404626 C-195.98838072 44.5438126 -202.26618357 44.54147182 -208.54433215 44.55232644 C-212.45175501 44.55493246 -216.35898765 44.5409346 -220.26636124 44.52224541 C-222.07796346 44.51692007 -223.88960064 44.51842605 -225.70118904 44.52728081 C-228.17574442 44.53840001 -230.64901257 44.52497365 -233.12348938 44.50552368 C-233.8393552 44.51464834 -234.55522102 44.523773 -235.29277974 44.53317416 C-240.30900756 44.45652504 -243.1187516 43.11376308 -247 40 C-251.13613925 35.40428973 -253.28921661 31.99023124 -253.125 25.75 C-253.09792969 24.41195313 -253.09792969 24.41195313 -253.0703125 23.046875 C-253.04710937 22.37140625 -253.02390625 21.6959375 -253 21 C-251.23440656 21.00276538 -251.23440656 21.00276538 -249.43314457 21.00558662 C-221.47465963 21.04892825 -193.5161773 21.08189402 -165.5576658 21.10213066 C-162.11437154 21.10463199 -158.67107735 21.10722064 -155.2277832 21.10986328 C-154.5423026 21.1103879 -153.856822 21.11091252 -153.15056925 21.11145304 C-142.0600789 21.12014906 -130.96960935 21.13591461 -119.87913132 21.15430559 C-108.49421326 21.17302699 -97.10931058 21.18397182 -85.72437614 21.18817699 C-79.33177428 21.19078368 -72.93921953 21.19690794 -66.54663277 21.21146011 C-60.52783803 21.22505018 -54.50910976 21.22921972 -48.49030113 21.22621536 C-46.28326176 21.22676488 -44.07622012 21.23073379 -41.86919403 21.23841095 C-38.85070828 21.2483944 -35.83247189 21.2459564 -32.8139801 21.24050903 C-31.5109263 21.24924756 -31.5109263 21.24924756 -30.18154818 21.25816262 C-20.59588444 21.21156144 -12.26553842 19.62488975 -5 13 C-2.19251927 9.04787148 -0.602529 4.82023201 0 0 Z " fill="#61DAFA" transform="translate(440,294)"/>
<path d="M0 0 C1.2278508 -0.00935994 1.2278508 -0.00935994 2.48050666 -0.01890898 C5.22742884 -0.03488223 7.97346895 -0.02221782 10.72039795 -0.00964355 C12.68828347 -0.01506292 14.65616494 -0.02218453 16.6240387 -0.03088379 C21.97344277 -0.04914685 27.32253885 -0.04203598 32.67194843 -0.02936745 C38.26962942 -0.01924956 43.86728381 -0.02863029 49.46496582 -0.03491211 C58.87030779 -0.04219445 68.27552425 -0.03258792 77.68084717 -0.0135498 C88.54856237 0.00819471 99.41597712 0.00118745 110.28368497 -0.02085543 C119.61462511 -0.03902289 128.94547491 -0.04156038 138.27642703 -0.03110075 C143.84904065 -0.02487 149.42151322 -0.02401827 154.99411774 -0.0372467 C160.23745419 -0.04882317 165.48040469 -0.04074637 170.72369957 -0.01766968 C172.64572955 -0.01239113 174.56779213 -0.01388171 176.48980904 -0.02272034 C179.11904784 -0.03369395 181.74705952 -0.01989055 184.3762207 0 C185.1322701 -0.00892289 185.8883195 -0.01784577 186.66727948 -0.02703905 C193.47492224 0.07246775 198.51215917 2.46459404 203.69207764 6.82043457 C209.2182209 13.4211057 211.24662556 18.85877351 210.94207764 27.50793457 C209.70670402 34.39541581 206.60554408 40.89407496 200.82879639 45.01574707 C192.64126822 49.83194011 184.67555134 49.71512064 175.37957764 49.75793457 C173.69445068 49.78887207 173.69445068 49.78887207 171.97528076 49.82043457 C170.89053467 49.82559082 169.80578857 49.83074707 168.68817139 49.83605957 C167.70518066 49.84540527 166.72218994 49.85475098 165.70941162 49.86437988 C162.16838198 49.40827902 159.48310443 48.04896136 156.94207764 45.50793457 C156.34802689 38.2605155 156.34802689 38.2605155 158.59979248 35.40783691 C161.54568143 33.01833224 163.08788101 33.01074425 166.84442139 33.00402832 C167.98201904 32.98533691 169.1196167 32.96664551 170.29168701 32.9473877 C171.47569092 32.94674316 172.65969482 32.94609863 173.87957764 32.94543457 C176.22211302 32.93647895 178.56464231 32.91481866 180.90692139 32.87902832 C182.46334351 32.87794067 182.46334351 32.87794067 184.0512085 32.87683105 C187.40152033 32.44930625 189.24065669 31.50810689 191.94207764 29.50793457 C194.25745359 26.69085262 194.25745359 26.69085262 193.75457764 23.50793457 C192.9238121 20.44049258 192.49941415 19.30754175 189.94207764 17.50793457 C186.10029877 16.16297703 182.14051243 16.36713572 178.12298584 16.37663269 C177.33018125 16.37451698 176.53737665 16.37240126 175.72054768 16.37022144 C173.06130423 16.36422505 170.40210828 16.36522132 167.74285889 16.36608887 C165.83745239 16.36305721 163.93204661 16.35953574 162.02664185 16.3555603 C157.92223022 16.34767273 153.81782728 16.34252698 149.71340942 16.33926964 C143.22620988 16.33336194 136.73906525 16.31682492 130.25189209 16.29792786 C128.03172306 16.29159063 125.81155399 16.285265 123.59138489 16.27895069 C122.47959429 16.27578488 121.36780369 16.27261907 120.22232246 16.26935732 C105.11817498 16.22725769 90.01405335 16.19428856 74.90985107 16.18200684 C64.72254714 16.17363807 54.53537939 16.15119352 44.34814358 16.11265117 C38.95562264 16.09285465 33.56330546 16.08049794 28.17074585 16.08548546 C23.10141391 16.09011713 18.03246879 16.07640786 12.96321487 16.04847336 C11.10078832 16.04153724 9.23832196 16.04146088 7.37589645 16.04867363 C4.83718946 16.05751415 2.2997714 16.04194752 -0.23883057 16.02018738 C-0.97929469 16.02862992 -1.71975882 16.03707245 -2.48266125 16.04577082 C-5.87729381 15.99180314 -7.75129249 15.73418658 -10.5153656 13.69466877 C-12.7752748 10.49101309 -12.60399277 8.33042742 -12.05792236 4.50793457 C-8.82878977 -0.11499564 -5.23915401 -0.06111121 0 0 Z " fill="#000000" transform="translate(77.05792236328125,452.4920654296875)"/>
<path d="M0 0 C1.02134537 -0.00717545 1.02134537 -0.00717545 2.06332397 -0.01449585 C3.50399078 -0.01789224 4.94473492 -0.00870736 6.38525391 0.01220703 C8.55943362 0.03873907 10.72833466 0.01259209 12.90234375 -0.01953125 C21.06224304 -0.0408536 28.19997677 0.6030584 34.9609375 5.6640625 C41.24049486 12.33480018 43.46736986 18.46309721 43.265625 27.59765625 C42.50171447 35.28573019 39.13162489 40.1187422 33.44921875 45.15625 C25.88451946 49.74019651 18.27941543 50.09543149 9.61987305 50.03637695 C8.41554123 50.04002762 7.21120941 50.04367828 5.97038269 50.04743958 C2.69375628 50.05411933 -0.58249358 50.0474888 -3.85908914 50.03410745 C-7.29783899 50.0227243 -10.73657544 50.0269054 -14.17533875 50.02885437 C-19.94254456 50.02973459 -25.7096322 50.0187091 -31.47680664 50.00024414 C-38.14060807 49.97903039 -44.80423718 49.97557889 -51.46806556 49.9818061 C-57.89187726 49.987501 -64.31562842 49.98185586 -70.73943138 49.97063255 C-73.46861073 49.96599335 -76.19775298 49.9651097 -78.9269352 49.9672184 C-82.73304831 49.9675883 -86.5388972 49.95499125 -90.3449707 49.9387207 C-91.47594177 49.94119812 -92.60691284 49.94367554 -93.77215576 49.94622803 C-94.80800308 49.93914322 -95.8438504 49.93205841 -96.91108704 49.92475891 C-97.81012914 49.92270604 -98.70917124 49.92065317 -99.63545704 49.91853809 C-102.22640663 49.64422792 -103.83311617 49.02802354 -106.0390625 47.6640625 C-108.1206527 44.98773224 -108.03493841 43.54652582 -107.9140625 40.1015625 C-107.0390625 36.6640625 -107.0390625 36.6640625 -105.30418301 34.9728775 C-102.6147807 33.41890716 -101.01445097 33.28797914 -97.9221344 33.28552246 C-96.88892059 33.27731979 -95.85570679 33.26911713 -94.79118347 33.26066589 C-93.09932671 33.26988823 -93.09932671 33.26988823 -91.37329102 33.27929688 C-90.18104919 33.2739241 -88.98880737 33.26855133 -87.76043701 33.26301575 C-84.49381885 33.25067136 -81.227493 33.25131411 -77.96086621 33.25674629 C-74.53985386 33.25853175 -71.11894948 33.24111584 -67.69798279 33.22497559 C-58.9991911 33.18712641 -50.3004239 33.17432214 -41.6015625 33.1640625 C-32.21359484 33.15298691 -22.82575618 33.13762201 -13.43787712 33.09334993 C-10.0333713 33.07801119 -6.62909093 33.06908578 -3.22455025 33.07475281 C0.57238572 33.07926416 4.36888037 33.06591349 8.16577148 33.04882812 C9.8545919 33.05805046 9.8545919 33.05805046 11.57752991 33.06745911 C12.61356354 33.05925644 13.64959717 33.05105377 14.71702576 33.04260254 C15.61426581 33.04189003 16.51150587 33.04117752 17.43593502 33.04044342 C20.53331817 32.57874252 22.42943096 31.4780443 24.9609375 29.6640625 C26.38135571 26.82322609 26.27546022 24.80928972 25.9609375 21.6640625 C23.82171269 18.83632954 22.63649048 17.78204005 19.10766602 17.16577148 C18.02928467 17.16391846 16.95090332 17.16206543 15.83984375 17.16015625 C14.06577148 17.13211914 14.06577148 17.13211914 12.25585938 17.10351562 C10.40831055 17.10254883 10.40831055 17.10254883 8.5234375 17.1015625 C6.08715547 17.09261028 3.65087912 17.0709608 1.21484375 17.03515625 C0.13533447 17.03443115 -0.9441748 17.03370605 -2.05639648 17.03295898 C-5.43637683 16.61492262 -7.3142613 15.67389057 -10.0390625 13.6640625 C-11.46568469 10.81081813 -11.34940118 8.82951701 -11.0390625 5.6640625 C-8.02355485 0.59036601 -5.7745585 0.0259281 0 0 Z " fill="#000000" transform="translate(312.0390625,380.3359375)"/>
<path d="M0 0 C1.08488708 -0.01416962 2.16977417 -0.02833923 3.28753662 -0.04293823 C4.47304108 -0.0379834 5.65854553 -0.03302856 6.87997437 -0.02792358 C8.75870239 -0.04325638 8.75870239 -0.04325638 10.67538452 -0.05889893 C14.1099122 -0.0819468 17.54347481 -0.08683594 20.97801256 -0.08177233 C23.85034602 -0.07963076 26.72259081 -0.08940607 29.59490526 -0.09898317 C36.37847241 -0.12117731 43.16181815 -0.12204915 49.94540405 -0.10995483 C56.92564566 -0.09790012 63.90507843 -0.12243117 70.88518202 -0.16509497 C76.88966757 -0.20043585 82.89389707 -0.21231197 88.89848268 -0.20581949 C92.4793656 -0.20220741 96.05967287 -0.20732499 99.64046097 -0.23524857 C103.64269834 -0.26528873 107.64331594 -0.24637307 111.64559937 -0.22323608 C113.40563797 -0.2461673 113.40563797 -0.2461673 115.20123291 -0.26956177 C123.07183997 -0.16935012 128.46611874 1.56306892 134.65097046 6.52139282 C139.5854513 11.74863235 141.38491931 17.2223586 141.96347046 24.39639282 C141.72996221 31.92703378 139.1142262 38.29566994 133.65097046 43.52139282 C124.88245568 49.50213581 116.95249854 49.70266069 106.58847046 49.70889282 C105.5127478 49.72113892 104.43702515 49.73338501 103.32870483 49.7460022 C101.76926147 49.74890259 101.76926147 49.74890259 100.17831421 49.75186157 C98.76666992 49.7580249 98.76666992 49.7580249 97.32650757 49.76431274 C94.37776195 49.49658741 92.2813603 48.87504209 89.65097046 47.52139282 C87.17058139 43.80080922 87.18759843 41.92342712 87.65097046 37.52139282 C89.75623931 34.73611313 90.94773689 33.65232819 94.41244507 33.00723267 C95.96717529 32.99490601 95.96717529 32.99490601 97.55331421 32.98233032 C98.69091187 32.9591272 99.82850952 32.93592407 101.00057983 32.91201782 C102.18458374 32.90686157 103.36858765 32.90170532 104.58847046 32.89639282 C106.93102326 32.87080513 109.27350573 32.83724904 111.61581421 32.79483032 C112.65342896 32.78886841 113.6910437 32.78290649 114.76010132 32.77676392 C118.46077267 32.44985722 121.56545227 31.80427796 124.02597046 28.89639282 C124.98176121 25.26438795 124.26616511 22.21256075 123.65097046 18.52139282 C117.31558727 16.25796628 111.40426168 16.24117488 104.72055054 16.26602173 C103.53601791 16.26240128 102.35148529 16.25878082 101.13105774 16.25505066 C97.89986487 16.24638314 94.66878893 16.2461352 91.43758988 16.24840212 C88.04950789 16.24765164 84.66149895 16.23257061 81.27345276 16.21801758 C69.74640448 16.17109781 58.21936986 16.14703765 46.69223022 16.14053345 C40.31627716 16.13678409 33.94052119 16.11877179 27.56465262 16.08543909 C24.19427386 16.06853824 20.8242536 16.05940665 17.45383644 16.06837845 C13.69998833 16.07541732 9.94697583 16.05823296 6.19320679 16.03555298 C5.0777951 16.04372543 3.96238342 16.05189789 2.81317139 16.06031799 C1.79126205 16.0492955 0.76935272 16.03827301 -0.28352356 16.0269165 C-1.17041461 16.02582697 -2.05730566 16.02473743 -2.9710722 16.02361488 C-6.15974163 15.35017129 -7.36111843 14.05710237 -9.34902954 11.52139282 C-9.84902954 8.02139282 -9.84902954 8.02139282 -9.34902954 4.52139282 C-6.49176563 0.84037847 -4.60556007 0.02007372 0 0 Z " fill="#000000" transform="translate(306.3490295410156,452.4786071777344)"/>
<path d="M0 0 C1.15113281 -0.020625 2.30226563 -0.04125 3.48828125 -0.0625 C13.57732293 -0.10851615 21.22177196 1.17905505 28.64453125 8.3203125 C34.31424069 14.64274244 35.03787789 20.48073177 34.75 28.91015625 C33.87531178 36.70034824 30.30788367 40.81632211 24.47265625 45.8046875 C19.08751196 49.51512212 14.20483257 49.54695861 7.87475586 49.54052734 C6.92460098 49.54724457 5.97444611 49.55396179 4.99549866 49.56088257 C1.86022695 49.57985413 -1.27483075 49.58378584 -4.41015625 49.5859375 C-6.59061267 49.59236414 -8.77106823 49.5990924 -10.95152283 49.60610962 C-15.51856487 49.61807893 -20.08553127 49.6217906 -24.65258789 49.62060547 C-30.5094896 49.62040187 -36.3659083 49.64774766 -42.22269535 49.68214989 C-46.72393532 49.70436216 -51.22505779 49.70844481 -55.72634697 49.70738602 C-57.88615019 49.70974886 -60.04595632 49.71861058 -62.20570564 49.73405075 C-65.22220126 49.75360318 -68.23763846 49.74791569 -71.25415039 49.73583984 C-72.14828644 49.74707886 -73.04242249 49.75831787 -73.96365356 49.76989746 C-80.00986971 49.70825688 -80.00986971 49.70825688 -83.17967224 47.34683228 C-85.62868753 43.79388432 -85.09641858 41.49276725 -84.625 37.25 C-83.33317947 35.527565 -83.33317947 35.527565 -81.625 34.25 C-78.69409379 33.95558494 -75.97383768 33.84349405 -73.04199219 33.86523438 C-71.72683876 33.85717522 -71.72683876 33.85717522 -70.38511658 33.84895325 C-68.47974605 33.83916441 -66.57433088 33.83623443 -64.66893768 33.83930969 C-61.65051477 33.84378165 -58.6326801 33.82980347 -55.61431885 33.81091309 C-49.20122229 33.7740846 -42.78818674 33.76042093 -36.375 33.75 C-28.95682488 33.73791715 -21.53893496 33.71630879 -14.12088776 33.66999817 C-11.15231578 33.65644603 -8.18410583 33.66059658 -5.21551514 33.66540527 C-3.3855341 33.65606048 -1.55555702 33.64589061 0.27441406 33.63476562 C1.0954512 33.64091385 1.91648834 33.64706207 2.7624054 33.65339661 C7.88918799 33.59885102 13.52285846 33.10214154 17.375 29.25 C17.9219623 23.98266351 17.9219623 23.98266351 16.0625 19.3125 C12.60578956 17.13605269 9.50977033 17.10566761 5.53515625 17.0390625 C3.8171582 16.99652344 3.8171582 16.99652344 2.06445312 16.953125 C-0.34945534 16.90112913 -2.76354217 16.85683189 -5.17773438 16.8203125 C-6.32435547 16.789375 -7.47097656 16.7584375 -8.65234375 16.7265625 C-9.70156006 16.70674316 -10.75077637 16.68692383 -11.83178711 16.66650391 C-14.99261345 16.19518411 -16.37284647 15.49141194 -18.625 13.25 C-19.625 9.875 -19.625 9.875 -19.625 6.25 C-14.95874421 -1.41599166 -8.07299474 0.03544674 0 0 Z " fill="#000000" transform="translate(87.625,342.75)"/>
<path d="M0 0 C19.20082297 15.20065152 29.96822816 40.06649342 33 64 C33.67386374 76.93075539 33.49246178 89.47238407 30 102 C29.67128906 103.20398438 29.34257812 104.40796875 29.00390625 105.6484375 C26.79214053 112.94956033 23.88876992 119.61884312 20.375 126.375 C19.99069824 127.11927246 19.60639648 127.86354492 19.21044922 128.63037109 C16.37599296 133.87466901 16.37599296 133.87466901 13 135 C12.72027344 134.07960937 12.44054687 133.15921875 12.15234375 132.2109375 C11.74928746 130.93169413 11.34417454 129.65309773 10.9375 128.375 C10.72577148 127.69493896 10.51404297 127.01487793 10.29589844 126.31420898 C9.13225908 122.7628047 7.87796123 119.60671321 5.86328125 116.44921875 C0.64839336 108.09190303 0.64839336 108.09190303 1.32910156 104.04199219 C2.76554101 99.76987659 4.93498987 95.88406527 7.0625 91.92529297 C16.87535532 71.77316353 14.13275004 40.38219579 7.25390625 19.76367188 C5.41277228 14.63872432 3.37939275 9.59435458 0.8203125 4.78125 C0 3 0 3 0 0 Z " fill="#FCCE5A" transform="translate(400,119)"/>
<path d="M0 0 C1.22150253 -0.0087616 2.44300507 -0.01752319 3.70152283 -0.02655029 C7.04916616 -0.04478908 10.39526464 -0.04051206 13.74282146 -0.02465487 C17.24788525 -0.0119882 20.75288342 -0.02373834 24.25794983 -0.03158569 C30.14506875 -0.04068132 36.03187402 -0.02869824 41.91894531 -0.00488281 C48.72086306 0.02231614 55.52203117 0.0135237 62.32393068 -0.01401484 C68.16699376 -0.03672282 74.00983145 -0.03989751 79.85292441 -0.02682149 C83.34132866 -0.01903445 86.82938088 -0.017964 90.31776237 -0.03450394 C94.20823041 -0.05166176 98.09786271 -0.02786523 101.98828125 0 C103.14221375 -0.01012115 104.29614624 -0.02024231 105.48504639 -0.03067017 C113.27095535 0.07276613 113.27095535 0.07276613 117.28199768 2.9960022 C119.45328132 6.23546558 119.71021684 7.82012134 119.05883789 11.64697266 C117.27899384 14.78288836 116.53575582 15.48800001 113.05883789 16.64697266 C111.39539305 16.74302359 109.72837079 16.78189385 108.06216431 16.78741455 C107.03032516 16.79312469 105.99848602 16.79883484 104.93537903 16.80471802 C103.23812935 16.80639481 103.23812935 16.80639481 101.5065918 16.80810547 C99.7184481 16.81555283 99.7184481 16.81555283 97.8941803 16.82315063 C94.62345959 16.83525882 91.35277462 16.84271719 88.08203554 16.84716129 C86.03819154 16.85009365 83.99435312 16.85419875 81.95051193 16.85866547 C75.5544931 16.87233675 69.15848706 16.88200545 62.76245463 16.88586736 C55.38142799 16.89034864 48.00058649 16.9079012 40.61961615 16.93686795 C34.91251453 16.95848754 29.20546498 16.96857177 23.49832284 16.96990848 C20.09043978 16.97095623 16.68273083 16.97685758 13.2748909 16.99472809 C9.47307477 17.01174498 5.6717116 17.00991878 1.86987305 17.00341797 C0.17869606 17.01724014 0.17869606 17.01724014 -1.54664612 17.03134155 C-2.58412491 17.0257724 -3.6216037 17.02020325 -4.69052124 17.01446533 C-6.03832955 17.01666517 -6.03832955 17.01666517 -7.41336632 17.01890945 C-10.51500275 16.56253844 -12.40755957 15.46358105 -14.94116211 13.64697266 C-16.3677843 10.79372828 -16.25150079 8.81242717 -15.94116211 5.64697266 C-12.65316511 -1.21920014 -6.67702811 -0.05846173 0 0 Z " fill="#000000" transform="translate(16.941162109375,413.35302734375)"/>
<path d="M0 0 C3.21142855 2.37366458 4.71584605 3.93442268 5.75 7.8125 C3.74314661 16.34162692 -6.55015053 23.86562392 -12.5 29.9375 C-12.95681152 30.41743408 -13.41362305 30.89736816 -13.88427734 31.3918457 C-15.23087772 32.80551356 -16.59961535 34.19798898 -17.96875 35.58984375 C-18.76732422 36.41347412 -19.56589844 37.23710449 -20.38867188 38.08569336 C-23.62913778 40.46120693 -26.02605153 40.78353052 -30 41 C-32.64816011 40.21270916 -33.62884529 39.47719891 -35.3125 37.3125 C-36.3463027 33.83516364 -35.8552753 31.52392616 -35 28 C-33.30856807 25.51053261 -31.24083604 23.51525275 -29.06640625 21.4453125 C-28.47327133 20.85829559 -27.88013641 20.27127869 -27.26902771 19.66647339 C-25.38050227 17.80477946 -23.47187402 15.96527929 -21.5625 14.125 C-20.28188621 12.86592137 -19.00257415 11.60551729 -17.72460938 10.34375 C-6.42195252 -0.75552383 -6.42195252 -0.75552383 0 0 Z " fill="#000000" transform="translate(456,62)"/>
<path d="M0 0 C6.7597696 4.93054088 12.55315643 11.40236676 18.4375 17.3125 C19.34693359 18.21806641 20.25636719 19.12363281 21.19335938 20.05664062 C22.05638672 20.92095703 22.91941406 21.78527344 23.80859375 22.67578125 C24.59032959 23.45864502 25.37206543 24.24150879 26.17749023 25.0480957 C29.1240995 28.2039083 29.41073343 30.69526105 29.33984375 35.01953125 C29 37 29 37 26.9375 39.5625 C23.01762642 41.48073601 21.21211135 41.08195227 17 40 C14.43852852 38.30305903 12.34812588 36.23728439 10.19140625 34.05859375 C9.57982162 33.45749283 8.968237 32.85639191 8.33811951 32.23707581 C7.05422668 30.96598666 5.77797152 29.68714168 4.5090332 28.40112305 C2.56791614 26.44296369 0.59239661 24.52505289 -1.38867188 22.60742188 C-2.63507473 21.36424314 -3.87929301 20.11886951 -5.12109375 18.87109375 C-5.71160019 18.30305527 -6.30210663 17.73501678 -6.9105072 17.14976501 C-9.8516612 14.10604047 -11.36954002 12.04604199 -11.50024414 7.72680664 C-11 4 -11 4 -8.875 1.5 C-5.3405323 -0.3440701 -3.92618718 -0.84682469 0 0 Z " fill="#000000" transform="translate(207,62)"/>
<path d="M0 0 C2.03437185 3.05155778 2.25448582 3.69369733 2.29052734 7.13256836 C2.3096669 8.37416969 2.3096669 8.37416969 2.32919312 9.64085388 C2.33141876 10.53152054 2.33364441 11.42218719 2.3359375 12.33984375 C2.3425943 13.2583461 2.3492511 14.17684845 2.35610962 15.1231842 C2.36623448 17.065745 2.37092669 19.00834057 2.37060547 20.95092773 C2.37497858 23.92294592 2.41129926 26.893479 2.44921875 29.86523438 C2.45508694 31.75259909 2.45905632 33.63997085 2.4609375 35.52734375 C2.47530853 36.41598618 2.48967957 37.3046286 2.50448608 38.22019958 C2.45884043 44.38381931 2.45884043 44.38381931 0.09619141 47.55664062 C-2.15470244 49.10652234 -3.29133326 49.56779036 -6 49.5625 C-6.99 49.59537109 -6.99 49.59537109 -8 49.62890625 C-11.23690935 48.61104999 -12.20832088 46.84225043 -14 44 C-14.58105124 40.97630056 -14.56109297 38.00939612 -14.53125 34.9375 C-14.5350769 34.06859131 -14.53890381 33.19968262 -14.54284668 32.30444336 C-14.54556179 30.47215614 -14.53822867 28.6398299 -14.52148438 26.80761719 C-14.50006798 24.00888353 -14.52129855 21.21271667 -14.546875 18.4140625 C-14.54423165 16.63020269 -14.53910652 14.84634447 -14.53125 13.0625 C-14.53934692 12.22904053 -14.54744385 11.39558105 -14.55578613 10.53686523 C-14.49163464 6.54635569 -14.28879354 4.4700153 -12.15429688 0.99609375 C-7.94497881 -2.90410849 -5.08442568 -1.84888207 0 0 Z " fill="#000000" transform="translate(334,12)"/>
<path d="M0 0 C1.3756311 -0.00574036 1.3756311 -0.00574036 2.77905273 -0.01159668 C4.71566873 -0.01431549 6.65232147 -0.00695646 8.58886719 0.00976562 C11.55226553 0.03117606 14.51323951 0.00996331 17.4765625 -0.015625 C19.35938035 -0.01298172 21.24219669 -0.00785673 23.125 0 C24.01050537 -0.00809692 24.89601074 -0.01619385 25.80834961 -0.02453613 C31.94179091 0.06890138 31.94179091 0.06890138 35.12133789 2.43725586 C37.56569268 5.98887894 37.03352208 8.29205125 36.5625 12.53125 C34.75086733 15.20556489 33.68488923 15.49045359 30.5625 16.53125 C27.74437044 16.65235727 24.95175304 16.71940045 22.1328125 16.734375 C20.89179276 16.74292511 20.89179276 16.74292511 19.6257019 16.75164795 C17.87564368 16.76109023 16.12556773 16.76762887 14.37548828 16.77148438 C11.70443569 16.78118847 9.03415325 16.81221785 6.36328125 16.84375 C4.66146289 16.85028058 2.95963904 16.85553084 1.2578125 16.859375 C0.46182648 16.8717218 -0.33415955 16.8840686 -1.15426636 16.89678955 C-6.16959747 16.87674034 -9.71858771 16.25016229 -13.4375 12.53125 C-14.02313041 5.38655899 -14.02313041 5.38655899 -12.00073242 2.43286133 C-8.15986265 -0.41660383 -4.66704924 -0.04267477 0 0 Z " fill="#000000" transform="translate(475.4375,186.46875)"/>
<path d="M0 0 C0.82773422 -0.01268417 1.65546844 -0.02536835 2.50828552 -0.03843689 C3.39895218 -0.03550125 4.28961884 -0.03256561 5.20727539 -0.02954102 C6.12577774 -0.03478287 7.04428009 -0.04002472 7.99061584 -0.04542542 C9.93318674 -0.05184886 11.87579651 -0.05050445 13.81835938 -0.04199219 C16.79050023 -0.03348856 19.76071544 -0.06222833 22.73266602 -0.09399414 C24.62003523 -0.0956064 26.50740785 -0.09502816 28.39477539 -0.09204102 C29.72773903 -0.10889198 29.72773903 -0.10889198 31.08763123 -0.12608337 C37.21609921 -0.05689117 37.21609921 -0.05689117 40.42822266 2.21630859 C42.54867282 5.43960867 42.40576623 7.63571062 41.86743164 11.40405273 C40.42822266 13.58959961 40.42822266 13.58959961 37.86743164 15.40405273 C34.71108176 16.00041716 31.59928381 15.96450082 28.39477539 15.93530273 C27.47531631 15.93912964 26.55585724 15.94295654 25.60853577 15.94689941 C23.66772362 15.94961797 21.72687481 15.94226071 19.78613281 15.92553711 C16.81175364 15.9041019 13.8397832 15.92535289 10.86547852 15.95092773 C8.97940547 15.94828493 7.09333392 15.94316092 5.20727539 15.93530273 C4.31660873 15.94339966 3.42594208 15.95149658 2.50828552 15.95983887 C-3.63327089 15.86628627 -3.63327089 15.86628627 -6.19140625 13.49804688 C-7.81487017 9.88599757 -7.50867707 7.35319418 -7.13256836 3.40405273 C-5.02895306 0.54274724 -3.48600843 0.02589343 0 0 Z " fill="#000000" transform="translate(10.132568359375,452.595947265625)"/>
<path d="M0 0 C0.87032364 -0.0038269 1.74064728 -0.00765381 2.63734436 -0.01159668 C4.47560789 -0.01431517 6.31391014 -0.00695835 8.15209961 0.00976562 C10.95970377 0.03115134 13.76474163 0.00997627 16.57226562 -0.015625 C18.36068271 -0.01298121 20.14909821 -0.00785516 21.9375 0 C22.77409653 -0.00809692 23.61069305 -0.01619385 24.47264099 -0.02453613 C28.45795113 0.03926919 30.57729721 0.25738212 34.06860352 2.34570312 C36.03515625 4.53125 36.03515625 4.53125 36.59765625 8.03125 C36.03515625 11.53125 36.03515625 11.53125 34.57617188 13.71679688 C30.78385957 16.42475855 27.37074934 16.10519896 22.81640625 16.0625 C21.47406921 16.06824036 21.47406921 16.06824036 20.10461426 16.07409668 C18.21507643 16.0768152 16.32550093 16.06945816 14.43603516 16.05273438 C11.54504435 16.03132323 8.65653858 16.05253734 5.765625 16.078125 C3.92837994 16.07548171 2.09113642 16.07035671 0.25390625 16.0625 C-1.04154114 16.07464539 -1.04154114 16.07464539 -2.36315918 16.08703613 C-8.31564769 15.99410736 -8.31564769 15.99410736 -11.50976562 13.71679688 C-13.6527885 10.49794776 -13.50421237 8.30683033 -12.96484375 4.53125 C-9.58202276 -0.4949763 -5.53589445 -0.05344933 0 0 Z " fill="#000203" transform="translate(157.96484375,186.46875)"/>
<path d="M0 0 C3.12791588 0.98358292 4.19184948 2.9607817 6 5.62890625 C7.484375 8.53125 7.484375 8.53125 8.75 11.56640625 C9.17796875 12.56542969 9.6059375 13.56445312 10.046875 14.59375 C11.31503089 18.63209887 11.70083235 22.00823143 10 25.94140625 C7.39982929 28.13530028 5.3530473 28.61058412 1.98828125 28.83203125 C-0.63725443 28.56380364 -2.1631816 27.5780786 -3.8359375 25.546875 C-7.6154035 19.31963404 -11.38670601 12.02467162 -10 4.62890625 C-7.41070178 0.42129664 -4.59743872 0.15264933 0 0 Z " fill="#000000" transform="translate(272,43.37109375)"/>
<path d="M0 0 C12.96680194 4.75142861 12.96680194 4.75142861 16 10 C16.68857448 14.04537506 16.32640639 15.52059062 14 18.9375 C11 21 11 21 7.4375 21.125 C1.25328536 19.88579668 -6.44638344 17.72276637 -10.828125 13.05078125 C-12.62593098 9.90462079 -12.44309949 7.54479595 -12 4 C-9.09525853 -0.72020489 -5.09969361 -1.07109552 0 0 Z " fill="#000000" transform="translate(190,127)"/>
<path d="M0 0 C2.81972931 2.36493426 2.97850831 3.8280665 3.4375 7.5 C2.91555381 11.67556956 2.15385706 12.35857868 -1 15 C-7.33131073 18.43699725 -13.76500963 21.29196257 -21 20 C-23.5625 17.9375 -23.5625 17.9375 -25 15 C-24.89989086 9.19366966 -24.89989086 9.19366966 -22.86328125 6.4921875 C-20.20085496 4.36001383 -17.36596064 3.12744183 -14.25 1.75 C-13.05890625 1.20859375 -11.8678125 0.6671875 -10.640625 0.109375 C-6.5705789 -1.13085364 -4.10407911 -1.00198232 0 0 Z " fill="#000000" transform="translate(476,129)"/>
<path d="M0 0 C1.9375 1.625 1.9375 1.625 3 4 C3.40419813 9.38496219 2.5225322 12.90949529 0.1875 17.75 C-0.33457031 18.85859375 -0.85664063 19.9671875 -1.39453125 21.109375 C-3.74110549 25.33435051 -3.74110549 25.33435051 -6 27 C-9.09620415 27.39316878 -11.04224982 27.61768277 -14 27 C-16.5625 25 -16.5625 25 -18 22 C-18.26764286 14.50599998 -14.82642062 7.32658773 -11 1 C-7.26417071 -1.62837001 -4.3520417 -1.10779243 0 0 Z " fill="#000000" transform="translate(393,45)"/>
<path d="M0 0 C2.56562006 2.95435038 3.03142617 4.21434564 2.875 8.125 C1.97213505 11.09155626 1.53808274 12.27772957 -1 14 C-8.02039155 16.26143586 -14.88152072 12.01797983 -21.14453125 8.94921875 C-23.67248393 7.4545898 -24.87937427 6.29402523 -26 3.5625 C-26 -0.52998153 -24.87946956 -3.12053044 -22 -6 C-15.26350618 -8.57656494 -5.67207514 -3.79947617 0 0 Z " fill="#000000" transform="translate(476,248)"/>
<path d="M0 0 C1.35351562 -0.03577148 1.35351562 -0.03577148 2.734375 -0.07226562 C9.31264617 -0.05766887 9.31264617 -0.05766887 12.59765625 2.90625 C14.29972303 6.1302205 14.53591246 7.96423065 14 11.5625 C12.22015595 14.6984157 11.47691793 15.40352736 8 16.5625 C5.1931541 16.73685601 2.43324549 16.83942257 -0.375 16.875 C-1.13039062 16.90400391 -1.88578125 16.93300781 -2.6640625 16.96289062 C-6.55995751 17.00716216 -8.57083378 16.81531183 -12.00390625 14.79296875 C-14.10316873 12.44721753 -14.6648537 11.64515268 -14.5625 8.5625 C-14.56378906 7.9025 -14.56507813 7.2425 -14.56640625 6.5625 C-12.5074943 -0.70758909 -6.3063121 -0.07657665 0 0 Z " fill="#000000" transform="translate(168,413.4375)"/>
<path d="M0 0 C3.16722321 2.05869508 3.84131567 3.25418364 4.625 6.9375 C3.91857192 10.39899761 2.80947236 11.75974714 -0.02734375 13.83203125 C-5.87157276 17.29227773 -12.11321678 20.10188532 -19 19 C-21.4375 17.375 -21.4375 17.375 -23 15 C-23.5625 12.0625 -23.5625 12.0625 -23 9 C-17.89782196 1.85695074 -8.4817661 -1.16989877 0 0 Z " fill="#000405" transform="translate(201,241)"/>
</svg>
