<?xml version="1.0" encoding="UTF-8"?>
<svg version="1.1" xmlns="http://www.w3.org/2000/svg" width="512" height="512">
<path d="M0 0 C2.50673989 2.21808499 4.95547853 4.48502128 7.390625 6.78125 C8.05578125 7.38195313 8.7209375 7.98265625 9.40625 8.6015625 C27.0546662 25.17385576 40.97348131 50.58265417 43.390625 74.78125 C43.98488281 74.80703125 44.57914062 74.8328125 45.19140625 74.859375 C61.43910288 75.9711925 75.31250919 84.15009253 86.390625 95.78125 C94.94768847 105.91504685 100.01509526 117.61885339 101.390625 130.78125 C102.49857422 130.98427734 102.49857422 130.98427734 103.62890625 131.19140625 C116.87801784 134.00284416 127.48162403 141.32125767 135.140625 152.53125 C142.16357707 164.91069094 143.27382652 178.50721568 140.73046875 192.3828125 C136.83713424 205.42801124 127.7172322 215.43138397 116.30859375 222.421875 C107.86689378 226.3545545 100.02064502 227.22532768 90.78076172 227.21362305 C89.56010513 227.2238147 88.33944855 227.23400635 87.08180237 227.24450684 C83.76625554 227.26935699 80.45115024 227.28133147 77.13554907 227.28736091 C73.6588305 227.29680142 70.18223721 227.32300893 66.70559692 227.34736633 C60.13629312 227.39088 53.56701384 227.41951951 46.99761021 227.44268972 C39.51256288 227.46982301 32.02764254 227.51372916 24.54268622 227.55897844 C9.15873129 227.65160769 -6.22524761 227.7233873 -21.609375 227.78125 C-21.05616577 228.3953624 -20.50295654 229.00947479 -19.9329834 229.64219666 C-19.20937622 230.44983963 -18.48576904 231.2574826 -17.74023438 232.08959961 C-17.02202515 232.88933701 -16.30381592 233.6890744 -15.56384277 234.51304626 C-13.43366627 236.98516392 -11.71058111 239.50160915 -10.109375 242.34375 C-9.6246875 243.19066406 -9.14 244.03757812 -8.640625 244.91015625 C-8.3003125 245.52761719 -7.96 246.14507812 -7.609375 246.78125 C-6.75601562 246.4925 -5.90265625 246.20375 -5.0234375 245.90625 C17.82861928 239.12130943 40.92239011 241.4662278 61.80078125 252.71875 C66.41219037 255.31079951 70.48350382 258.20922863 74.390625 261.78125 C75.28265625 262.58175781 76.1746875 263.38226563 77.09375 264.20703125 C90.4091157 276.77659095 100.65196422 294.79928251 101.5703125 313.42578125 C101.57708462 316.55111354 101.52658668 319.6591669 101.390625 322.78125 C103.30875 323.1215625 103.30875 323.1215625 105.265625 323.46875 C118.40270295 326.47033589 128.66739758 334.92509998 135.91796875 346.15234375 C142.50452066 357.91029981 143.13331076 371.27381645 140.73046875 384.3828125 C136.83713424 397.42801124 127.7172322 407.43138397 116.30859375 414.421875 C106.5246805 418.97984262 97.23358287 419.19713308 86.64990234 419.12182617 C84.97357193 419.12097865 83.29724041 419.12145747 81.62091064 419.12315369 C77.09675469 419.1240102 72.57284006 419.10644048 68.04873991 419.08543181 C63.31087708 419.06660736 58.57300799 419.06491004 53.83511353 419.06135559 C44.8751538 419.05205202 35.91530461 419.02746119 26.95539343 418.99730712 C16.74980904 418.96371044 6.54421922 418.94726388 -3.66140676 418.93222082 C-24.6441244 418.90091006 -45.62674272 418.84818254 -66.609375 418.78125 C-66.6020787 419.46541992 -66.59478241 420.14958984 -66.58726501 420.85449219 C-66.58159012 421.75329102 -66.57591522 422.65208984 -66.57006836 423.578125 C-66.56277206 424.46854492 -66.55547577 425.35896484 -66.54795837 426.27636719 C-66.8188074 437.32296983 -73.68878923 446.7352118 -80.921875 454.53125 C-93.89595397 466.81028902 -108.15723107 467.22726399 -125.01513672 467.18530273 C-127.08578865 467.19101113 -129.15643743 467.1979772 -131.2270813 467.20610046 C-136.83046758 467.22399561 -142.43369694 467.22287025 -148.03710318 467.21715808 C-152.72381431 467.21406079 -157.41049555 467.22016474 -162.09720242 467.22619683 C-173.15841431 467.24022865 -184.21954895 467.23869207 -195.28076172 467.22729492 C-206.6722391 467.21581647 -218.06348097 467.22988799 -229.45492733 467.2566914 C-239.25397833 467.2788803 -249.05295559 467.28547853 -258.85202992 467.27961498 C-264.6963211 467.27625169 -270.54046136 467.27861878 -276.38473129 467.29586601 C-281.88257811 467.31138375 -287.38007729 467.30732595 -292.87791061 467.28856087 C-294.88857458 467.28488828 -296.89926459 467.28794437 -298.90990448 467.29844666 C-316.42432875 467.38290344 -329.1187198 464.75329662 -342.359375 452.46875 C-352.27765525 441.98905766 -355.15259422 430.41898658 -355.09936523 416.39379883 C-354.65700033 401.89586401 -348.68503443 391.38809264 -338.296875 381.53125 C-331.09525271 375.37245207 -322.2181322 370.78125 -312.609375 370.78125 C-312.47402344 370.17539062 -312.33867187 369.56953125 -312.19921875 368.9453125 C-310.34796308 361.73982635 -307.15419032 356.61046965 -302.609375 350.78125 C-302.18140625 350.16507812 -301.7534375 349.54890625 -301.3125 348.9140625 C-294.25220142 339.45674897 -281.08886312 332.50608679 -269.609375 330.78125 C-251.1770085 329.62604178 -251.1770085 329.62604178 -243.609375 331.78125 C-243.35285156 330.90082031 -243.09632813 330.02039063 -242.83203125 329.11328125 C-237.66926952 315.04351844 -224.4462667 304.50759178 -211.609375 297.78125 C-208.60998817 296.54839858 -205.7456081 295.63175389 -202.609375 294.78125 C-202.691875 293.5025 -202.774375 292.22375 -202.859375 290.90625 C-202.76905284 269.5601128 -192.92184315 247.40667399 -178.95898438 231.57836914 C-178.33100952 230.86516006 -177.70303467 230.15195099 -177.05603027 229.41712952 C-176.57863403 228.87728928 -176.10123779 228.33744904 -175.609375 227.78125 C-176.68279711 227.77905016 -176.68279711 227.77905016 -177.77790451 227.77680588 C-195.232053 227.73967062 -212.68599068 227.68056729 -230.13998032 227.59734726 C-238.58079068 227.55762537 -247.02150874 227.52519823 -255.46240234 227.51025391 C-262.82392984 227.49720172 -270.18525364 227.47014668 -277.54666638 227.42663693 C-281.44050048 227.40410182 -285.33408411 227.3883345 -289.2279892 227.38936615 C-292.9020509 227.39011751 -296.5755606 227.37197849 -300.24947929 227.34008217 C-302.22237697 227.32766053 -304.19536775 227.33460993 -306.16828918 227.34239197 C-320.81448475 227.17299205 -331.67835513 222.37849273 -342.359375 212.46875 C-352.27765525 201.98905766 -355.15259422 190.41898658 -355.09936523 176.39379883 C-354.65700033 161.89586401 -348.68503443 151.38809264 -338.296875 141.53125 C-331.17410088 135.46056645 -323.7562438 132.40408156 -314.609375 130.78125 C-314.59519531 130.04003906 -314.58101563 129.29882812 -314.56640625 128.53515625 C-313.36625756 102.03457568 -299.48197074 78.26330851 -280.56640625 60.30078125 C-265.76023721 46.80264187 -242.68274447 34.47617228 -222.19360352 34.84228516 C-220.97084717 34.91753418 -219.74809082 34.9927832 -218.48828125 35.0703125 C-217.12707752 35.12678077 -215.76573881 35.18006908 -214.40429688 35.23046875 C-212.28326721 35.31056323 -210.16982684 35.40639486 -208.05249023 35.55615234 C-203.42549894 35.87117696 -199.14478267 35.95279024 -194.609375 34.78125 C-191.26299294 31.5504609 -189.52798405 27.97405477 -187.609375 23.78125 C-169.35856249 -1.46625736 -144.36103302 -17.79344124 -114.609375 -26.21875 C-113.43117187 -26.56035156 -112.25296875 -26.90195312 -111.0390625 -27.25390625 C-72.53868256 -36.35014986 -29.91867921 -25.43983502 0 0 Z " fill="#010101" transform="translate(362.609375,37.21875)"/>
<path d="M0 0 C14.06764477 13.11630764 30.65667163 36.36928324 31.5 56.1875 C31.45875 56.868125 31.4175 57.54875 31.375 58.25 C30.43140625 58.52972656 29.4878125 58.80945313 28.515625 59.09765625 C8.99746571 65.09852544 -4.68700629 75.38599903 -14.625 93.25 C-19.04133916 102.34540671 -20.79072203 111.23866438 -21.625 121.25 C-16.345 121.25 -11.065 121.25 -5.625 121.25 C-5.625 118.94 -5.625 116.63 -5.625 114.25 C-3.47497452 101.19896812 3.13791309 90.51841635 13.375 82.25 C25.7217182 74.15870409 38.121779 70.9993558 52.8125 73.9375 C67.08939794 77.97813149 77.96419555 85.73864275 85.3125 98.75 C90.44906444 109.04690928 90.64422999 117.89746878 90.375 129.25 C91.12523437 129.21519531 91.87546875 129.18039063 92.6484375 129.14453125 C103.64089485 128.85379875 112.95592165 130.78196568 121.375 138.25 C128.15741635 146.21027873 130.93308097 153.3330715 130.75390625 163.796875 C129.91582221 171.43467186 126.60842976 179.07070853 121.3203125 184.71875 C114.81028232 189.8431111 106.92291426 193.3486937 98.65510559 193.42408752 C97.46246597 193.43702347 96.26982635 193.44995941 95.04104614 193.46328735 C93.73046234 193.47226044 92.41987854 193.48123352 91.06958008 193.49047852 C89.67639378 193.50329344 88.28321039 193.51642899 86.89002991 193.52986145 C74.1376896 193.64603696 61.38456597 193.7024778 48.63179493 193.74662876 C39.21922043 193.77976973 29.80761716 193.83912931 20.395459 193.93413979 C13.76336979 193.99879636 7.13154257 194.03221558 0.49915045 194.04337829 C-3.45334066 194.05089066 -7.40465935 194.07165293 -11.35680199 194.12640572 C-27.84872317 194.34479603 -41.35450707 194.48983837 -55.625 185.25 C-80.05894188 174.59747328 -108.1872835 176.02317714 -132.68359375 185.45703125 C-134.91373029 186.38673747 -136.83051421 187.38452033 -138.857687 188.71141624 C-146.90830463 193.83436157 -154.27580418 194.09547538 -163.51025391 193.99462891 C-165.08347025 193.99949467 -166.65668038 194.00694292 -168.22987366 194.01675415 C-172.47176243 194.03544188 -176.71271772 194.01683547 -180.9545331 193.99008989 C-185.40925371 193.96732447 -189.86393293 193.97568617 -194.31869507 193.97958374 C-201.79497383 193.98134506 -209.27088831 193.95928234 -216.74707031 193.92236328 C-225.37405208 193.88000359 -234.00050124 193.87301743 -242.62756598 193.8854872 C-250.95115688 193.89689937 -259.27456144 193.88555604 -267.59812546 193.86314011 C-271.12982018 193.85388408 -274.66140028 193.85208468 -278.19310379 193.8563118 C-282.35483114 193.86009552 -286.51602089 193.84373426 -290.67762566 193.81219101 C-292.19931119 193.80374988 -293.72105151 193.80197407 -295.24275017 193.80757141 C-303.44633478 193.83315669 -310.416121 193.55080958 -317.625 189.25 C-318.82189453 188.58097656 -318.82189453 188.58097656 -320.04296875 187.8984375 C-327.16613779 182.7722717 -331.28318505 175.64859998 -333.625 167.25 C-334.50555277 159.08952844 -333.92716839 152.2996591 -329.625 145.25 C-329.20089844 144.55132812 -328.77679688 143.85265625 -328.33984375 143.1328125 C-323.54808766 136.05863219 -316.89096666 131.42207883 -308.625 129.25 C-305.95712358 129.11525877 -303.40853559 129.05802139 -300.75 129.125 C-300.06164062 129.13402344 -299.37328125 129.14304688 -298.6640625 129.15234375 C-296.98422162 129.17567487 -295.30456254 129.21153674 -293.625 129.25 C-293.68300781 128.02667969 -293.74101562 126.80335938 -293.80078125 125.54296875 C-294.61506349 100.74708139 -286.66144029 80.02113126 -270.625 61.25 C-269.76648438 60.23873047 -269.76648438 60.23873047 -268.890625 59.20703125 C-255.05872464 44.24529745 -232.94506027 33.99107071 -212.64453125 32.875 C-185.58779713 32.17180941 -161.68472603 41.17102226 -141.875 59.5625 C-135.36570285 66.39645038 -130.05996638 74.95854112 -125.625 83.25 C-124.78195313 82.8890625 -123.93890625 82.528125 -123.0703125 82.15625 C-121.42675781 81.46015625 -121.42675781 81.46015625 -119.75 80.75 C-118.11417969 80.05390625 -118.11417969 80.05390625 -116.4453125 79.34375 C-113.625 78.25 -113.625 78.25 -111.625 78.25 C-122.8347535 53.45666285 -142.51908726 35.71044768 -167.36328125 25.078125 C-169.1009221 24.42380909 -170.85996218 23.82633888 -172.625 23.25 C-171.1584802 18.92256454 -168.85419148 15.56132147 -166.0625 12 C-165.61414795 11.42717285 -165.1657959 10.8543457 -164.70385742 10.26416016 C-147.99232982 -10.76163687 -122.28580363 -26.476442 -95.39038086 -30.04663086 C-58.96662174 -34.0469281 -27.61458808 -23.90170229 0 0 Z " fill="#CBD0D8" transform="translate(357.625,54.75)"/>
<path d="M0 0 C0.89976562 0.41765625 1.79953125 0.8353125 2.7265625 1.265625 C21.55286648 10.70590423 36.6536367 28.34847818 44 48 C47.74503349 47.39596234 50.72908134 46.29761665 54.125 44.625 C69.99443702 37.37340295 86.41587659 36.46221428 102.89477539 42.44970703 C119.36759617 48.89390558 132.13159757 60.45240027 139.8125 76.5 C143.69438721 85.73259661 145.52405852 93.96524973 145 104 C144.40574219 104.14695312 143.81148438 104.29390625 143.19921875 104.4453125 C130.54013561 107.87094308 120.09013152 113.97063383 112.95703125 125.22265625 C109.06613653 132.21022181 106.1174299 138.89450941 105.375 146.9375 C105.25125 148.278125 105.1275 149.61875 105 151 C110.28 151 115.56 151 121 151 C121 148.69 121 146.38 121 144 C123.62902085 134.6128491 129.63485307 127.21033899 137.8515625 122.1875 C145.49764021 117.96130432 153.76235287 117.92361781 162.125 120.125 C171.78653817 123.4475892 178.0749343 129.05029612 183 138 C186.34595325 146.42102327 186.16349674 154.95814018 182.875 163.375 C178.03632933 173.5616751 172.34678003 177.55073528 162 182 C158.54076334 183.15307889 155.87394744 183.12296067 152.2233429 183.12025452 C151.18431746 183.12153615 151.18431746 183.12153615 150.12430161 183.12284368 C147.79809227 183.12449371 145.47195468 183.1189849 143.14575195 183.11352539 C141.48030601 183.11324339 139.81485994 183.1134015 138.14941406 183.1139679 C133.62286572 183.11425537 129.09634377 183.10836671 124.56980157 183.10139394 C119.84122872 183.09515209 115.11265531 183.09455594 110.38407898 183.09336853 C101.42747491 183.09025768 92.47088302 183.08204758 83.51428431 183.07201904 C73.31852163 183.06085029 63.12275838 183.05534553 52.92699111 183.05032361 C31.9513206 183.03986478 10.97566107 183.02227007 -10 183 C-10.40756531 182.24133133 -10.81513062 181.48266266 -11.23504639 180.70100403 C-11.77204163 179.70759506 -12.30903687 178.7141861 -12.86230469 177.69067383 C-13.39362 176.70513016 -13.9249353 175.71958649 -14.47235107 174.70417786 C-21.78471901 161.76014137 -33.2326593 156.02138818 -47 152 C-47.02578125 150.71867188 -47.0515625 149.43734375 -47.078125 148.1171875 C-47.65514894 128.15370828 -52.37868476 110.28317505 -66 95 C-66.58136719 94.32582031 -67.16273438 93.65164063 -67.76171875 92.95703125 C-83.06899758 76.36612316 -104.49434925 72.08961964 -126 71 C-127.5769089 53.33862027 -117.20598084 35.04258281 -106.390625 21.828125 C-105.60171875 20.89484375 -104.8128125 19.9615625 -104 19 C-103.43796875 18.33484375 -102.8759375 17.6696875 -102.296875 16.984375 C-76.09114038 -11.33899474 -33.78357205 -16.08741526 0 0 Z " fill="#E4E7EB" transform="translate(303,257)"/>
<path d="M0 0 C10.28000209 9.45258729 17.69351891 23.21346612 18.46875 37.1953125 C18.50724809 38.65086802 18.53840537 40.10663482 18.5625 41.5625 C18.58030518 42.26914795 18.59811035 42.9757959 18.61645508 43.70385742 C18.60864201 48.71203699 18.60864201 48.71203699 16.984375 51.1484375 C15.05728143 52.37240233 13.39250897 52.97423082 11.1875 53.5625 C-2.44346845 57.85536993 -10.78593606 66.61827851 -17.3046875 79.00390625 C-19.5006727 83.93597031 -20.8788362 88.81239218 -21.375 94.1875 C-21.560625 96.1984375 -21.560625 96.1984375 -21.75 98.25 C-16.47 98.25 -11.19 98.25 -5.75 98.25 C-5.75 95.94 -5.75 93.63 -5.75 91.25 C-3.12097915 81.8628491 2.88485307 74.46033899 11.1015625 69.4375 C18.74764021 65.21130432 27.01235287 65.17361781 35.375 67.375 C45.03653817 70.6975892 51.3249343 76.30029612 56.25 85.25 C59.59595325 93.67102327 59.41349674 102.20814018 56.125 110.625 C51.28632933 120.8116751 45.59678003 124.80073528 35.25 129.25 C31.51929055 130.49356982 28.05316854 130.39808627 24.16720581 130.39717102 C22.91719369 130.40268605 22.91719369 130.40268605 21.64192879 130.4083125 C18.83924192 130.41935783 16.03659211 130.42319464 13.23388672 130.42700195 C11.22836692 130.43326603 9.22284829 130.43991278 7.21733093 130.44691467 C1.76047078 130.46433101 -3.6963806 130.47487847 -9.15326166 130.4831202 C-12.5626748 130.48826971 -15.97208521 130.49434551 -19.38149643 130.50063133 C-30.04900931 130.51968639 -40.71651527 130.53391607 -51.38404191 130.5422433 C-63.69703339 130.5520136 -76.00984499 130.57832652 -88.3227731 130.61874419 C-97.83966986 130.6489113 -107.35651509 130.6637128 -116.87345874 130.66702431 C-122.55737399 130.66937437 -128.24109715 130.67832903 -133.92496109 130.70348549 C-139.27493935 130.72678106 -144.62459925 130.73099332 -149.9746151 130.72072411 C-151.93494285 130.72022898 -153.89528635 130.72654255 -155.85556602 130.74028015 C-158.53919093 130.75802986 -161.22167715 130.75087795 -163.90530396 130.73774719 C-164.67468642 130.74871644 -165.44406889 130.75968568 -166.23676598 130.77098733 C-175.10362659 130.66678413 -183.47854576 126.45543893 -189.75 120.25 C-196.46578524 111.10700192 -198.83666484 102.55131429 -197.75 91.25 C-196.85767452 87.92405958 -195.53969012 85.18263863 -193.75 82.25 C-193.32589844 81.55132812 -192.90179688 80.85265625 -192.46484375 80.1328125 C-187.87026188 73.34972506 -180.8956148 67.87912296 -172.75 66.25 C-162.39271607 65.34579267 -153.38896775 67.3144263 -144.859375 73.37890625 C-139.65118506 77.99876363 -135.12920289 84.35398553 -133.75 91.25 C-133.75 93.56 -133.75 95.87 -133.75 98.25 C-128.47 98.25 -123.19 98.25 -117.75 98.25 C-118.64828149 84.55120726 -124.25031773 71.69010402 -134.265625 62.140625 C-140.11477238 57.68938706 -147.52388353 53.66302773 -154.75 52.25 C-152.63538561 43.79154243 -146.75888953 37.20786712 -139.75 32.25 C-130.07981888 26.54177658 -120.31135093 24.39738519 -109.2265625 27.11328125 C-107.04707495 27.79904678 -104.87737807 28.51733441 -102.72265625 29.27734375 C-99.73433581 30.25512534 -96.85877475 30.8098605 -93.75 31.25 C-93.45867187 30.42757812 -93.16734375 29.60515625 -92.8671875 28.7578125 C-86.41927306 11.1983977 -77.33824155 -1.35892852 -60.1875 -9.5625 C-39.46969512 -18.34661811 -17.48086867 -13.62247874 0 0 Z " fill="#CACFD7" transform="translate(221.75,357.75)"/>
<path d="M0 0 C0 5.28 0 10.56 0 16 C-1.77375 16.268125 -3.5475 16.53625 -5.375 16.8125 C-21.21458565 19.50504387 -34.94501379 25.50859939 -44.6875 38.75 C-53.30250773 51.69218056 -55.30346882 63.89627127 -56 79 C-57.72807318 79.33895656 -59.45751974 79.67091525 -61.1875 80 C-62.15042969 80.185625 -63.11335938 80.37125 -64.10546875 80.5625 C-66.7934206 80.96877612 -69.28771019 81.07933572 -72 81 C-72.7824077 59.39685414 -68.89947118 40.65235014 -54 24 C-53.34515625 23.25234375 -52.6903125 22.5046875 -52.015625 21.734375 C-38.54063518 7.27580928 -19.65006513 -0.77566047 0 0 Z " fill="#030303" transform="translate(152,104)"/>
<path d="M0 0 C23.29323268 -1.17940419 46.13039776 8.27867219 63.4375 23.625 C64.96542196 25.07590476 66.48701476 26.53352606 68 28 C68.89912109 28.78890625 68.89912109 28.78890625 69.81640625 29.59375 C78.14605683 37.1696735 85.29616526 48.41761503 89 59 C88 62 88 62 85.34765625 63.38671875 C83.72150391 64.03060547 83.72150391 64.03060547 82.0625 64.6875 C80.98097656 65.12449219 79.89945312 65.56148438 78.78515625 66.01171875 C76 67 76 67 74 67 C73.55011719 65.99582031 73.10023438 64.99164063 72.63671875 63.95703125 C62.71345779 42.56443687 47.51606035 29.28571408 25.64453125 20.6796875 C17.20492703 17.84901279 8.81828626 16.920169 0 16 C0 10.72 0 5.44 0 0 Z " fill="#030303" transform="translate(280,40)"/>
<path d="M0 0 C19.47673008 0 37.20207346 7.01577417 51.1875 20.625 C57.72113111 27.22269661 64.69735127 35.56882321 66 45 C64.41925436 45.81752303 62.83528777 46.62881997 61.25 47.4375 C60.36828125 47.88996094 59.4865625 48.34242188 58.578125 48.80859375 C56.35801434 49.83455398 54.38555381 50.51508603 52 51 C51.23816406 49.71416016 51.23816406 49.71416016 50.4609375 48.40234375 C40.71435603 32.12312439 30.50375463 23.91652699 12.3125 17.75 C8.20756813 16.82058146 4.19084142 16.3868469 0 16 C0 10.72 0 5.44 0 0 Z " fill="#030303" transform="translate(264,264)"/>
<path d="M0 0 C14.86107263 0.77200377 26.70989101 5.77712622 37.078125 16.6015625 C44.82560165 26.27016141 48 35.84254486 48 48 C42.72 48 37.44 48 32 48 C31.7525 46.515 31.505 45.03 31.25 43.5 C29.78820912 36.26260179 26.81734022 28.84778352 21 24 C14.29916306 19.90504409 7.73022941 17.28837157 0 16 C0 10.72 0 5.44 0 0 Z " fill="#030303" transform="translate(384,312)"/>
<path d="M0 0 C0 5.28 0 10.56 0 16 C-1.32 16.20625 -2.64 16.4125 -4 16.625 C-11.37164213 18.28246042 -16.87923826 22.81381403 -21.03515625 29.0546875 C-22.77796704 32.56853273 -23.34808 36.14774545 -24 40 C-29.28 40 -34.56 40 -40 40 C-40 28.04213648 -35.71052223 18.80548245 -27.34375 10.3203125 C-19.34769261 3.0148237 -10.78054423 0 0 0 Z " fill="#030303" transform="translate(184,360)"/>
<path d="M0 0 C6.69034366 0.44602291 12.02812122 3.07345542 18 6 C16.6926925 9.43931834 15.18963666 12.61300905 13.375 15.8125 C12.92898437 16.60269531 12.48296875 17.39289063 12.0234375 18.20703125 C11.68570313 18.79871094 11.34796875 19.39039062 11 20 C7.33827525 19.37321829 4.1181005 18.35548154 0.6875 16.9375 C-0.19550781 16.57527344 -1.07851562 16.21304688 -1.98828125 15.83984375 C-2.65214844 15.56269531 -3.31601563 15.28554687 -4 15 C-2.9318153 9.88634986 -1.76892524 4.92772031 0 0 Z " fill="#060606" transform="translate(170,107)"/>
<path d="M0 0 C5.28 0 10.56 0 16 0 C16 5.28 16 10.56 16 16 C10.72 16 5.44 16 0 16 C0 10.72 0 5.44 0 0 Z " fill="#000000" transform="translate(120,216)"/>
<path d="M0 0 C5.28 0 10.56 0 16 0 C16 5.28 16 10.56 16 16 C10.72 16 5.44 16 0 16 C0 10.72 0 5.44 0 0 Z " fill="#000000" transform="translate(88,216)"/>
<path d="M0 0 C5.28 0 10.56 0 16 0 C16 5.28 16 10.56 16 16 C10.72 16 5.44 16 0 16 C0 10.72 0 5.44 0 0 Z " fill="#000000" transform="translate(56,216)"/>
</svg>
