<?xml version="1.0" encoding="UTF-8"?>
<svg version="1.1" xmlns="http://www.w3.org/2000/svg" width="512" height="512">
<path d="M0 0 C0.75667969 0.61488281 1.51335937 1.22976562 2.29296875 1.86328125 C3.12183594 2.52972656 3.95070313 3.19617188 4.8046875 3.8828125 C13.02779412 10.87182349 19.67205648 19.08548882 24.29296875 28.86328125 C24.88078125 28.71890625 25.46859375 28.57453125 26.07421875 28.42578125 C48.60009308 23.76525553 71.780708 26.26449133 91.29296875 38.86328125 C95.68936602 42.13622329 99.4937826 45.92759739 103.29296875 49.86328125 C104.0303125 50.5696875 104.76765625 51.27609375 105.52734375 52.00390625 C117.47969 64.1415602 123.45248744 82.26635603 123.85546875 98.98828125 C123.89607422 100.05453735 123.89607422 100.05453735 123.9375 101.14233398 C123.90735779 105.0801307 123.41242251 106.71807814 120.8828125 109.79296875 C117.68619513 112.34833407 116.18476803 112.98727311 112.19799805 113.05615234 C111.35339523 113.07221527 110.50879242 113.0882782 109.63859558 113.10482788 C105.77412723 113.1492967 101.90983041 113.19034345 98.04516602 113.21337891 C96.00728942 113.22993777 93.96947089 113.25722683 91.93188477 113.29541016 C88.99334595 113.35019365 86.0561683 113.37205501 83.1171875 113.38671875 C82.20869553 113.40938812 81.30020355 113.4320575 80.36418152 113.45541382 C75.83769714 113.44030872 73.89895921 113.31966262 70.17895508 110.51806641 C68.29296875 107.86328125 68.29296875 107.86328125 68.29296875 104.86328125 C62.02296875 104.86328125 55.75296875 104.86328125 49.29296875 104.86328125 C48.96296875 106.51328125 48.63296875 108.16328125 48.29296875 109.86328125 C45.84955875 112.70396437 44.30744674 112.86188689 40.54705811 113.2240448 C39.01282717 113.23272265 37.47844836 113.22480835 35.94433594 113.20385742 C35.10494476 113.2042955 34.26555359 113.20473358 33.40072632 113.20518494 C30.63019435 113.20309729 27.86026982 113.17976745 25.08984375 113.15625 C23.1674228 113.15065396 21.24499756 113.1463839 19.3225708 113.14338684 C14.26558598 113.13193872 9.20886012 113.10247172 4.15197754 113.0692749 C-1.00932309 113.03857338 -6.17066561 113.02488132 -11.33203125 113.00976562 C-21.45714495 112.97760207 -31.58206656 112.92640602 -41.70703125 112.86328125 C-41.49722122 113.75118851 -41.28741119 114.63909576 -41.07124329 115.5539093 C-40.79805771 116.7211705 -40.52487213 117.8884317 -40.2434082 119.09106445 C-39.97172318 120.24709671 -39.70003815 121.40312897 -39.42012024 122.5941925 C-34.13957275 146.80236094 -40.16845662 172.23780414 -52.62963867 193.21362305 C-54.10065703 195.46598448 -55.57295404 197.21843913 -57.70703125 198.86328125 C-59.6796875 199.0859375 -59.6796875 199.0859375 -61.76953125 198.92578125 C-68.06415861 199.26037938 -71.47565599 204.12205964 -75.421875 208.4921875 C-76.17597656 209.27464844 -76.93007813 210.05710937 -77.70703125 210.86328125 C-78.36703125 210.86328125 -79.02703125 210.86328125 -79.70703125 210.86328125 C-79.37703125 211.52328125 -79.04703125 212.18328125 -78.70703125 212.86328125 C-78.31254257 216.41367935 -78.32630089 218.26648641 -80.26953125 221.3125 C-83.1734036 224.35132796 -86.27636816 226.07996702 -90.01953125 227.86328125 C-91.07587769 228.37592529 -91.07587769 228.37592529 -92.15356445 228.89892578 C-116.08784131 240.22594592 -143.68758256 242.9606512 -168.92382812 234.08349609 C-181.33312381 229.32548447 -195.60593929 222.61688156 -204.14746094 212.08764648 C-207.53720297 208.08265707 -209.97344711 206.39247205 -215.26171875 205.828125 C-217.36765262 205.76805055 -219.47561357 205.76114564 -221.58203125 205.80078125 C-222.68232666 205.80730713 -223.78262207 205.81383301 -224.91625977 205.82055664 C-235.83985951 206.26565412 -243.15578518 210.4250844 -251.70703125 216.86328125 C-254.89369211 218.45661168 -258.23902978 218.24703551 -261.70703125 217.86328125 C-263.64453125 216.73828125 -263.64453125 216.73828125 -264.70703125 214.86328125 C-265.60713241 211.26287662 -265.89027515 209.41301294 -264.70703125 205.86328125 C-265.30540896 205.86604663 -265.90378668 205.86881201 -266.52029705 205.87166119 C-281.08439174 205.93793244 -295.64847752 205.98756738 -310.21268749 206.01871777 C-317.25586044 206.03418252 -324.2989327 206.05526445 -331.34204102 206.08959961 C-338.13715381 206.12270999 -344.93216186 206.14012748 -351.72735023 206.14791298 C-354.32173625 206.15346234 -356.91611645 206.16429865 -359.51045799 206.18047142 C-363.14015525 206.20220156 -366.76941824 206.20524995 -370.39916992 206.20385742 C-371.47522995 206.21464325 -372.55128998 206.22542908 -373.65995789 206.23654175 C-382.86760336 206.19823736 -382.86760336 206.19823736 -386.70703125 202.86328125 C-389.99780096 197.92712668 -389.20649478 192.63208504 -388.70703125 186.86328125 C-385.55628619 171.46759514 -377.52392582 158.37831647 -364.83203125 149.05078125 C-353.64963677 141.69987387 -342.87930975 138.48350706 -329.58203125 138.67578125 C-328.72738281 138.67642578 -327.87273437 138.67707031 -326.9921875 138.67773438 C-322.13251033 138.71132661 -317.4986634 139.05169044 -312.70703125 139.86328125 C-312.29453125 139.16203125 -311.88203125 138.46078125 -311.45703125 137.73828125 C-302.12805631 122.41210814 -289.43048943 113.43016973 -272.2890625 108.11328125 C-258.53173202 104.79493018 -243.65861457 106.41746011 -230.70703125 111.86328125 C-230.52140625 111.04150391 -230.52140625 111.04150391 -230.33203125 110.203125 C-227.21246853 98.21230581 -220.79262402 87.1807991 -212.70703125 77.86328125 C-212.06507813 77.07824219 -211.423125 76.29320312 -210.76171875 75.484375 C-194.33911476 56.12267029 -171.33228787 44.94336541 -146.2578125 42.13671875 C-139.02897848 41.58004286 -131.82933057 41.28054807 -124.70703125 42.86328125 C-124.61550781 42.033125 -124.52398437 41.20296875 -124.4296875 40.34765625 C-123.57103067 36.2075379 -122.05010799 32.86342757 -120.14453125 29.11328125 C-119.78810547 28.40880859 -119.43167969 27.70433594 -119.06445312 26.97851562 C-115.94388499 20.99514158 -112.27991723 15.83965717 -107.70703125 10.86328125 C-107.07023437 10.15816406 -106.4334375 9.45304687 -105.77734375 8.7265625 C-78.73263117 -19.78442968 -31.36430124 -23.69396961 0 0 Z " fill="#030303" transform="translate(388.70703125,66.13671875)"/>
<path d="M0 0 C0.78890625 0.38027344 1.5778125 0.76054687 2.390625 1.15234375 C16.95967451 8.71704253 28.06169182 20.79712332 36 35 C36 35.66 36 36.32 36 37 C36.61746094 36.79503906 37.23492187 36.59007812 37.87109375 36.37890625 C43.60500207 34.55487758 48.99350002 33.34412239 55 33 C55.721875 32.94714844 56.44375 32.89429688 57.1875 32.83984375 C76.98945819 32.07051091 95.13000848 39.24792331 110 52 C110.72574219 52.61359375 111.45148438 53.2271875 112.19921875 53.859375 C121.85321588 62.73574172 128.08243381 74.63826803 132 87 C132.36738281 88.09634766 132.36738281 88.09634766 132.7421875 89.21484375 C134.16429817 94.28963594 134.29292261 99.50976216 134.4375 104.75 C134.47206299 105.48379883 134.50662598 106.21759766 134.54223633 106.97363281 C134.5732968 111.02911028 134.18753561 112.76946842 131.59765625 115.953125 C127.69985373 119.02447616 125.7748335 119.12701247 120.84888744 119.13701439 C120.20818411 119.13966622 119.56748078 119.14231804 118.90736219 119.14505023 C116.73983725 119.15276816 114.57236872 119.15330335 112.40483093 119.15390015 C110.84336783 119.15791312 109.28190577 119.16235106 107.72044498 119.1671797 C103.41342102 119.1791693 99.10640827 119.18479916 94.79937088 119.18936086 C90.16054109 119.19530784 85.52172477 119.20691985 80.88290405 119.21765137 C69.67264721 119.24219479 58.4623859 119.25680467 47.25211045 119.26971143 C44.0876685 119.27342173 40.92322699 119.27739509 37.75878549 119.2814641 C18.12199702 119.30669721 -1.51479211 119.32875754 -21.15159321 119.34119225 C-25.70189224 119.3441221 -30.25219125 119.34708374 -34.80249023 119.35009766 C-35.93349068 119.35084371 -37.06449112 119.35158976 -38.22976431 119.35235842 C-56.56214247 119.36501921 -74.8944238 119.39825098 -93.22675667 119.43989949 C-112.03364118 119.48227712 -130.84047605 119.50588239 -149.64740819 119.51111281 C-160.2127467 119.5145315 -170.77793385 119.5263406 -181.34322548 119.55921555 C-190.33882122 119.58715985 -199.33423459 119.59824014 -208.32987038 119.58702008 C-212.92192869 119.58181913 -217.51360474 119.58481295 -222.10560799 119.60948563 C-226.30708277 119.63187222 -230.50789836 119.63132157 -234.70938387 119.61228175 C-236.23161922 119.60946678 -237.75389828 119.61516289 -239.276063 119.63009469 C-241.3419716 119.64912592 -243.40551128 119.63746819 -245.47136402 119.61803246 C-246.61969332 119.61938898 -247.76802261 119.62074551 -248.95114976 119.62214315 C-252.9429226 118.80758883 -254.47460823 117.12224145 -257 114 C-257 113.34 -257 112.68 -257 112 C-263.27 112 -269.54 112 -276 112 C-276.66 113.65 -277.32 115.3 -278 117 C-281.85438134 119.56958756 -285.03708586 119.29546002 -289.50708008 119.29052734 C-290.37570175 119.29724457 -291.24432343 119.30396179 -292.13926697 119.31088257 C-295.01607965 119.32990848 -297.89265953 119.33378928 -300.76953125 119.3359375 C-302.768693 119.34236298 -304.7678538 119.34909116 -306.76701355 119.35610962 C-310.96099019 119.36809441 -315.15488439 119.37178928 -319.34887695 119.37060547 C-324.71914296 119.37040238 -330.08887915 119.39768844 -335.45901966 119.43214989 C-339.58976155 119.45440637 -343.72037578 119.45844337 -347.85117149 119.45738602 C-349.83069367 119.45974448 -351.81021924 119.46858178 -353.78968239 119.48405075 C-356.56174211 119.50368225 -359.33265755 119.49788354 -362.10473633 119.48583984 C-362.92001801 119.49707886 -363.73529968 119.50831787 -364.57528687 119.51989746 C-369.82857821 119.46200134 -372.83129042 118.4836484 -377 115 C-380.3842189 108.2315622 -378.18251491 96.19014638 -376.171875 89.171875 C-372.38725141 78.92816048 -367.38619754 69.11064335 -360 61 C-358.98486328 59.86498047 -358.98486328 59.86498047 -357.94921875 58.70703125 C-344.67654565 44.63281128 -326.32117086 36.91541451 -307.14453125 35.83984375 C-298.52404244 35.59834406 -287.86986901 36.0650655 -280 40 C-279.73058594 39.28070313 -279.46117187 38.56140625 -279.18359375 37.8203125 C-271.67208465 19.92160104 -255.94897406 8.11217457 -238.69140625 0.5078125 C-218.3285555 -7.80971172 -195.7123064 -6.88830103 -175.49267578 1.39624023 C-158.17317966 9.0192739 -146.4078273 22.08799581 -137 38 C-136.12859375 37.855625 -135.2571875 37.71125 -134.359375 37.5625 C-115.23844745 34.58261519 -115.23844745 34.58261519 -107 37 C-106.73058594 36.28070313 -106.46117187 35.56140625 -106.18359375 34.8203125 C-98.67208465 16.92160104 -82.94897406 5.11217457 -65.69140625 -2.4921875 C-44.37494524 -11.19922872 -20.61858337 -9.98153964 0 0 Z " fill="#000101" transform="translate(378,356)"/>
<path d="M0 0 C1.06992188 0.474375 2.13984375 0.94875 3.2421875 1.4375 C18.43344276 8.87227905 28.88458263 20.71350247 35.95703125 35.96875 C36.94622528 38.1502575 36.94622528 38.1502575 39 40 C43.34792721 40.45290908 46.4653718 39.92998362 50.5859375 38.515625 C66.78083483 33.54181682 82.54782596 36.95739561 97.109375 44.640625 C111.84470141 53.35156382 120.30092529 66.41239424 125.40625 82.4765625 C126 85 126 85 126 89 C124.99686579 89.00331015 123.99373158 89.00662029 122.96019936 89.01003075 C98.5831141 89.09092465 74.20609242 89.18320914 49.82909584 89.28752708 C38.04069957 89.33770851 26.25231045 89.38415068 14.46386719 89.421875 C4.19240762 89.4547542 -6.07899735 89.49456264 -16.35039675 89.54279006 C-21.79204054 89.56809567 -27.23364793 89.58986484 -32.67533493 89.60334396 C-37.792122 89.61612759 -42.90878447 89.63814159 -48.02550316 89.66738319 C-49.90811635 89.67648803 -51.79074963 89.68215592 -53.67338371 89.68421364 C-56.23457807 89.68751577 -58.79541472 89.70293685 -61.35653687 89.7215271 C-62.48590072 89.718625 -62.48590072 89.718625 -63.63808 89.71566427 C-67.77331558 89.63136326 -67.77331558 89.63136326 -71 92 C-71.66 93.65 -72.32 95.3 -73 97 C-79.27 97 -85.54 97 -92 97 C-92.99 95.02 -93.98 93.04 -95 91 C-96.99657574 89.00342426 -100.99612598 89.81506573 -103.73266602 89.79467773 C-104.5423584 89.78477814 -105.35205078 89.77487854 -106.1862793 89.76467896 C-108.87545805 89.73297013 -111.5646545 89.70826965 -114.25390625 89.68359375 C-116.11336234 89.66303231 -117.97281368 89.64203606 -119.83226013 89.62062073 C-124.73623815 89.56531634 -129.64025893 89.5159441 -134.54431152 89.46777344 C-139.54455388 89.41761934 -144.54473382 89.36190155 -149.54492188 89.30664062 C-159.36322799 89.19895679 -169.18158819 89.09753468 -179 89 C-178.70591312 87.25373596 -178.40522502 85.50858289 -178.10180664 83.76391602 C-177.85171593 82.30599388 -177.85171593 82.30599388 -177.59657288 80.81861877 C-176.76073535 76.86954994 -175.29875641 73.49873725 -173.4375 69.9375 C-173.08743896 69.25631104 -172.73737793 68.57512207 -172.37670898 67.87329102 C-164.17336548 52.55033849 -150.83849288 43.4774815 -134.70703125 37.8515625 C-130.17180323 36.80975037 -125.9500226 36.65840528 -121.3125 36.6875 C-119.99282227 36.69160889 -119.99282227 36.69160889 -118.64648438 36.69580078 C-111.13896333 36.8157777 -103.647624 37.53285006 -96.91015625 41.109375 C-93.74358448 42.58581337 -91.29345317 41.83833354 -88 41 C-85.37569808 38.10994598 -83.88711941 34.83046727 -82.25 31.3125 C-74.28100226 15.21824966 -60.54680027 3.29924388 -43.51733398 -2.50854492 C-29.93509668 -6.43044725 -12.89053222 -5.90084309 0 0 Z " fill="#DDF3FA" transform="translate(194,371)"/>
<path d="M0 0 C4.25264913 3.40741855 8.14684563 7.15245429 12 11 C12.66902344 11.65742188 13.33804688 12.31484375 14.02734375 12.9921875 C28.93148421 28.74123388 34.79018476 50.29087491 34.21484375 71.45703125 C33.62325399 85.64635584 29.76476737 97.70514975 22.625 109.9375 C19.93909958 114.65540362 19.23088818 117.61621723 20 123 C20.66 123.99 21.32 124.98 22 126 C20.06852571 127.9853759 18.13033391 129.96329392 16.1875 131.9375 C15.64029297 132.50146484 15.09308594 133.06542969 14.52929688 133.64648438 C10.33984375 137.88671875 10.33984375 137.88671875 7 139 C6.01 138.34 5.02 137.68 4 137 C-0.7849735 136.21877984 -3.442529 137.06587918 -7.375 139.625 C-11.97873037 142.60680075 -16.60051001 144.51642333 -21.75 146.3125 C-22.47106934 146.56660645 -23.19213867 146.82071289 -23.93505859 147.08251953 C-43.33605597 153.68110153 -65.84074091 151.76963476 -84.1171875 143.0625 C-90.23398691 140.01096336 -95.18144168 136.96845084 -100 132 C-99.02067253 131.99453156 -99.02067253 131.99453156 -98.02156067 131.98895264 C-91.22421718 131.9471317 -84.42754917 131.87778843 -77.63061523 131.79248047 C-75.09422563 131.76426052 -72.55774792 131.74305115 -70.02124023 131.72900391 C-66.37437801 131.70758957 -62.72857636 131.6609438 -59.08203125 131.609375 C-57.94852737 131.60814636 -56.8150235 131.60691772 -55.64717102 131.60565186 C-49.41468116 131.52710911 -49.41468116 131.52710911 -43.7956543 129.08081055 C-40.75581919 125.55823887 -40.79415775 122.53516967 -41 118 C-42.59575256 104.15180249 -49.63263987 90.0097421 -60.359375 81.0234375 C-75.91415154 69.02018509 -91.54752825 65.11938069 -110.9375 67.5 C-111.948125 67.665 -112.95875 67.83 -114 68 C-114.44730469 67.34773438 -114.89460937 66.69546875 -115.35546875 66.0234375 C-121.21231428 57.09275437 -121.21231428 57.09275437 -129 50 C-129 37.22186726 -120.68415586 24.73782781 -113 15 C-112.43152344 14.25621094 -111.86304688 13.51242188 -111.27734375 12.74609375 C-84.25772694 -20.23963803 -33.91479174 -23.82218615 0 0 Z " fill="#FEE076" transform="translate(301,139)"/>
<path d="M0 0 C1.10359863 0.00757324 2.20719727 0.01514648 3.34423828 0.02294922 C11.46034136 0.1870682 18.24988176 0.98739096 25.6875 4.4375 C26.62078125 4.86160156 27.5540625 5.28570312 28.515625 5.72265625 C43.82789062 13.4001749 53.93491589 24.87748384 61.07495117 40.16821289 C62.6237321 43.97050376 62.6237321 43.97050376 65.6875 46.4375 C70.97912515 47.11591348 75.08405606 45.34319089 79.90625 43.41015625 C94.90572849 38.16455212 111.01493981 41.64853069 125.0390625 47.94140625 C139.43117827 55.65810915 149.00019638 68.16284735 154.6875 83.25 C155.55428324 86.30764729 155.79680411 89.02531499 155.75 92.19921875 C155.74097656 92.99674561 155.73195313 93.79427246 155.72265625 94.6159668 C155.70525391 95.51762573 155.70525391 95.51762573 155.6875 96.4375 C154.7087793 96.45208252 153.73005859 96.46666504 152.72167969 96.48168945 C149.08345374 96.53975106 145.44584164 96.6169826 141.80810547 96.69995117 C140.23496478 96.73316372 138.66170599 96.76120717 137.08837891 96.78393555 C134.82403328 96.81755028 132.56076635 96.86986624 130.296875 96.92578125 C129.59568542 96.93217117 128.89449585 96.9385611 128.17205811 96.94514465 C125.1556759 97.035557 122.95743722 97.29409244 120.27441406 98.71948242 C118.31576924 100.56413341 118.31576924 100.56413341 117.6875 104.4375 C110.7575 104.4375 103.8275 104.4375 96.6875 104.4375 C96.0275 102.7875 95.3675 101.1375 94.6875 99.4375 C90.77758214 96.83088809 87.52660217 97.19687989 82.99682617 97.26147461 C81.66463295 97.26809113 81.66463295 97.26809113 80.30552673 97.27484131 C78.3755532 97.28469278 76.44559696 97.29855608 74.5156765 97.31593132 C70.41237293 97.34825858 66.30932386 97.34590081 62.2059145 97.34564304 C54.56428439 97.34578687 46.92329561 97.36098113 39.28198242 97.43383789 C33.96777272 97.48317802 28.65506085 97.48879469 23.34069252 97.46570015 C21.31646982 97.46513135 19.2921743 97.48082205 17.26820946 97.51313591 C1.38471981 97.75641035 1.38471981 97.75641035 -2.84831238 94.46691895 C-4.41569276 92.14741252 -5.38838007 90.06782544 -6.3125 87.4375 C-20.05771042 66.9987302 -38.04941706 54.22238996 -61.3125 46.4375 C-59.66019502 32.93695931 -49.89450291 21.69839634 -39.734375 13.30859375 C-27.47519279 4.3840633 -15.17188994 -0.14568344 0 0 Z " fill="#DDF4FB" transform="translate(340.3125,66.5625)"/>
<path d="M0 0 C9.04189958 7.29927893 14.89017115 17.73564992 20 28 C21.51894806 30.09764165 21.51894806 30.09764165 24 31 C28.74305672 31.14579068 32.95724242 30.05168065 37.375 28.4375 C52.06209155 23.82351479 69.27266968 26.92440639 82.75 33.625 C97.11560075 42.19320698 106.83004297 54.86024499 111.34375 70.8671875 C112.11937766 74.56988622 112.54684132 78.24408588 113 82 C91.89509632 82.02332704 70.79019475 82.04097821 49.6852808 82.05181217 C39.88661837 82.05697554 30.08796394 82.06401902 20.28930664 82.07543945 C11.75201345 82.08538503 3.21472605 82.09185313 -5.32257277 82.09408849 C-9.84589928 82.09539582 -14.36920922 82.09848302 -18.89253044 82.10573006 C-23.14497932 82.11248829 -27.39740473 82.11461737 -31.64985847 82.11310768 C-33.21523287 82.1133841 -34.78060801 82.11539039 -36.34597778 82.11920547 C-38.47388093 82.12413967 -40.60169401 82.12299933 -42.729599 82.12025452 C-44.52018187 82.12163721 -44.52018187 82.12163721 -46.34693813 82.12304783 C-49 82 -49 82 -50 81 C-50.25750543 79.34643208 -50.51142925 77.69222543 -50.74707031 76.03540039 C-52.79262596 62.43055546 -58.72538669 50.20803263 -68 40 C-68.65355469 39.25492187 -69.30710937 38.50984375 -69.98046875 37.7421875 C-77.66942907 29.4790061 -87.22053081 23.38179426 -98 20 C-92.98582312 6.21101359 -79.77025168 -3.77611471 -67 -10 C-45.16258482 -20.13879991 -18.64430762 -13.73791088 0 0 Z " fill="#C6ECFB" transform="translate(384,378)"/>
<path d="M0 0 C2.03634095 1.4293547 3.8676275 2.95242402 5.71875 4.61328125 C6.37230469 5.16371094 7.02585938 5.71414062 7.69921875 6.28125 C12.73369158 10.84830562 15.82407756 15.84264448 18.66601562 21.953125 C19.63748621 24.00261778 19.63748621 24.00261778 21.71875 26.61328125 C25.90265553 27.81135711 28.83468025 27.9991451 32.78125 26.17578125 C43.41976152 22.3301031 53.92124941 24.35175259 64.0078125 28.7109375 C69.50172713 31.35165117 73.67308672 35.09665335 77.71875 39.61328125 C78.31171875 40.27457031 78.9046875 40.93585938 79.515625 41.6171875 C83.83042789 46.90388906 87.71875 53.65838 87.71875 60.61328125 C12.14875 60.61328125 -63.42125 60.61328125 -141.28125 60.61328125 C-139.67603721 49.37679171 -134.84382352 40.56504127 -125.703125 33.66796875 C-120.15066613 29.96115962 -114.74563111 27.27737936 -108.28125 25.61328125 C-107.64574219 25.42894531 -107.01023438 25.24460938 -106.35546875 25.0546875 C-98.3749341 23.35638163 -90.08424559 24.55485457 -82.65625 27.73828125 C-79.60041929 28.86411362 -77.51121363 29.09433966 -74.28125 28.61328125 C-71.22020618 25.83051414 -69.75820175 22.54668 -68.03125 18.86328125 C-63.1552544 8.91920538 -55.87630518 2.87420639 -46.28125 -2.38671875 C-45.559375 -2.82242188 -44.8375 -3.258125 -44.09375 -3.70703125 C-30.74611864 -10.52385726 -12.29151033 -7.47172289 0 0 Z " fill="#DEF5FC" transform="translate(157.28125,195.38671875)"/>
<path d="M0 0 C1.06992188 0.474375 2.13984375 0.94875 3.2421875 1.4375 C11.70032355 5.57701129 18.6372157 11.11064045 25 18 C25.33 18.99 25.66 19.98 26 21 C24.824375 20.5875 23.64875 20.175 22.4375 19.75 C20.62642885 19.16224554 18.81372332 18.57951855 17 18 C15.93265625 17.64035156 14.8653125 17.28070313 13.765625 16.91015625 C-6.20146632 10.78488042 -25.48591784 13.43991879 -43.83984375 23.14453125 C-48.25516565 25.73696376 -52.17412068 28.60520567 -56 32 C-56.58910156 32.49628906 -57.17820312 32.99257813 -57.78515625 33.50390625 C-64.4138183 39.52858998 -69.42930153 47.92770786 -73.453125 55.8671875 C-75 58 -75 58 -77.22265625 58.93359375 C-80.85394433 59.0204178 -83.99602401 58.08729323 -87.4375 57.0625 C-105.2151839 52.25237948 -121.91022318 55.71778758 -137.80859375 64.5625 C-147.73025802 70.50724198 -153.86288957 77.18062331 -160 87 C-139.54 87.33 -119.08 87.66 -98 88 C-98 88.33 -98 88.66 -98 89 C-124.73 89 -151.46 89 -179 89 C-176.65254857 76.08901715 -176.65254857 76.08901715 -173.4375 69.9375 C-173.08743896 69.25631104 -172.73737793 68.57512207 -172.37670898 67.87329102 C-164.17336548 52.55033849 -150.83849288 43.4774815 -134.70703125 37.8515625 C-130.17180323 36.80975037 -125.9500226 36.65840528 -121.3125 36.6875 C-119.99282227 36.69160889 -119.99282227 36.69160889 -118.64648438 36.69580078 C-111.13896333 36.8157777 -103.647624 37.53285006 -96.91015625 41.109375 C-93.74358448 42.58581337 -91.29345317 41.83833354 -88 41 C-85.37569808 38.10994598 -83.88711941 34.83046727 -82.25 31.3125 C-74.28100226 15.21824966 -60.54680027 3.29924388 -43.51733398 -2.50854492 C-29.93509668 -6.43044725 -12.89053222 -5.90084309 0 0 Z " fill="#C4EBF9" transform="translate(194,371)"/>
<path d="M0 0 C0.99 0.99 0.99 0.99 2 2 C1.24976563 2.4125 0.49953125 2.825 -0.2734375 3.25 C-22.47387324 15.77619044 -37.63377665 34.2278244 -45.1875 58.6875 C-47.29318616 66.36856569 -48.21980408 74.09538344 -49 82 C-50.7015625 81.98259766 -50.7015625 81.98259766 -52.4375 81.96484375 C-53.95833167 81.9554559 -55.47916514 81.94635678 -57 81.9375 C-57.74378906 81.92912109 -58.48757812 81.92074219 -59.25390625 81.91210938 C-64.26148844 81.89033728 -69.04279032 82.28458451 -74 83 C-74.44730469 82.34773438 -74.89460937 81.69546875 -75.35546875 81.0234375 C-81.21231428 72.09275437 -81.21231428 72.09275437 -89 65 C-89 52.22186726 -80.68415586 39.73782781 -73 30 C-72.43152344 29.25621094 -71.86304688 28.51242188 -71.27734375 27.74609375 C-53.93058697 6.56905522 -26.61272159 -2.25043663 0 0 Z " fill="#FDCF5A" transform="translate(261,124)"/>
<path d="M0 0 C3.84244619 2.70654056 6.85092875 5.64428448 9.578125 9.5078125 C8.60875 9.35054687 7.639375 9.19328125 6.640625 9.03125 C-10.68169864 6.58768929 -25.49960034 8.98107704 -40.25 18.859375 C-42.42185278 20.42383065 -42.42185278 20.42383065 -44.09375 22.21875 C-45.421875 23.5078125 -45.421875 23.5078125 -47.421875 23.5078125 C-47.68097656 24.06597656 -47.94007812 24.62414062 -48.20703125 25.19921875 C-49.56784696 27.78520617 -51.15767953 30.07025796 -52.859375 32.4453125 C-54.70001487 35.01743776 -56.38893128 37.44347642 -57.83203125 40.26171875 C-59.421875 42.5078125 -59.421875 42.5078125 -61.7578125 43.41015625 C-64.83209004 43.52284971 -67.10551938 42.962233 -70.046875 42.0703125 C-84.33963398 38.27871262 -97.23152477 41.55896417 -110.1328125 48.390625 C-113.54748912 50.58867099 -115.6025471 52.82856766 -118.171875 55.9453125 C-121.3146822 59.44261142 -123.42761766 60.77794262 -128.0390625 61.14453125 C-132.53105966 61.236465 -136.95284134 60.94595306 -141.421875 60.5078125 C-140.27053994 50.50099605 -135.90733737 42.28975397 -128.421875 35.5078125 C-122.21659273 30.82564497 -115.95290012 27.44649223 -108.421875 25.5078125 C-107.78636719 25.32347656 -107.15085938 25.13914063 -106.49609375 24.94921875 C-98.5155591 23.25091288 -90.22487059 24.44938582 -82.796875 27.6328125 C-79.74104429 28.75864487 -77.65183863 28.98887091 -74.421875 28.5078125 C-71.36083118 25.72504539 -69.89882675 22.44121125 -68.171875 18.7578125 C-63.2958794 8.81373663 -56.01693018 2.76873764 -46.421875 -2.4921875 C-45.7 -2.92789063 -44.978125 -3.36359375 -44.234375 -3.8125 C-30.83793509 -10.65425324 -12.29355729 -7.57441756 0 0 Z " fill="#C6ECFB" transform="translate(157.421875,195.4921875)"/>
<path d="M0 0 C1.14726562 0.01353516 2.29453125 0.02707031 3.4765625 0.04101562 C6.27654958 0.07601546 9.07551217 0.12511141 11.875 0.1875 C11.875 0.5175 11.875 0.8475 11.875 1.1875 C10.946875 1.3525 10.01875 1.5175 9.0625 1.6875 C1.96656003 3.6859484 -5.48019264 9.54087145 -10.125 15.1875 C-10.81838035 17.5130349 -11.48082035 19.84785869 -12.125 22.1875 C-13.57760479 25.29498884 -15.24775894 28.26620098 -16.9375 31.25 C-17.36353516 32.02666016 -17.78957031 32.80332031 -18.22851562 33.60351562 C-20.19403432 37.11528201 -22.10340133 40.28912198 -24.8359375 43.25390625 C-27.63214883 46.83744671 -28.26750589 49.65846231 -28.9375 54.0625 C-29.11829102 55.09503906 -29.11829102 55.09503906 -29.30273438 56.1484375 C-29.59384904 57.82525797 -29.86187395 59.50606035 -30.125 61.1875 C-30.80304688 60.81238281 -31.48109375 60.43726563 -32.1796875 60.05078125 C-41.97493861 54.66474983 -51.5230177 49.79539892 -62.125 46.1875 C-60.47269502 32.68695931 -50.70700291 21.44839634 -40.546875 13.05859375 C-27.86198647 3.82415446 -15.65562585 -0.35498221 0 0 Z " fill="#C4EAF9" transform="translate(341.125,66.8125)"/>
<path d="M0 0 C-0.99 0.66 -1.98 1.32 -3 2 C-18.54663431 12.7687674 -31.64750767 26.73840798 -35.39355469 46.02636719 C-36.10130347 50.33431705 -36.59711593 54.65246 -37 59 C-39.44987617 56.57168965 -41.87405825 54.13591953 -44.21875 51.60546875 C-52.32215558 43.01641386 -61.67701799 36.55230808 -73 33 C-67.98582312 19.21101359 -54.77025168 9.22388529 -42 3 C-29.50054711 -2.80331741 -13.35819284 -2.7801315 0 0 Z " fill="#97E3F9" transform="translate(359,365)"/>
<path d="M0 0 C1.90625 0.42578125 1.90625 0.42578125 4.40625 2.17578125 C6.70400826 7.15425749 6.21602833 12.03047531 5.90625 17.42578125 C6.71449219 17.379375 7.52273438 17.33296875 8.35546875 17.28515625 C16.97106828 16.99415892 16.97106828 16.99415892 21.15625 18.92578125 C23.26780949 21.94229481 23.46561433 23.82031871 23.47265625 27.42578125 C22.62867639 30.40590322 21.38613811 31.59123227 18.90625 33.42578125 C15.671875 33.81640625 15.671875 33.81640625 12.15625 33.67578125 C10.98578125 33.6396875 9.8153125 33.60359375 8.609375 33.56640625 C7.71734375 33.52 6.8253125 33.47359375 5.90625 33.42578125 C5.95845703 34.63814453 5.95845703 34.63814453 6.01171875 35.875 C6.03878906 36.94363281 6.06585938 38.01226562 6.09375 39.11328125 C6.14595703 40.69689453 6.14595703 40.69689453 6.19921875 42.3125 C5.86948813 45.8164374 4.99209712 47.62276636 2.90625 50.42578125 C0.05300563 51.85240344 -1.92829549 51.73611993 -5.09375 51.42578125 C-7.7734375 49.859375 -7.7734375 49.859375 -10.09375 47.42578125 C-10.58203125 43.97265625 -10.58203125 43.97265625 -10.40625 40.17578125 C-10.33857422 38.28085937 -10.33857422 38.28085937 -10.26953125 36.34765625 C-10.21152344 35.3834375 -10.15351563 34.41921875 -10.09375 33.42578125 C-11.05796875 33.48378906 -12.0221875 33.54179687 -13.015625 33.6015625 C-14.27890625 33.64667969 -15.5421875 33.69179688 -16.84375 33.73828125 C-18.09671875 33.79628906 -19.3496875 33.85429687 -20.640625 33.9140625 C-24.09375 33.42578125 -24.09375 33.42578125 -26.51953125 31.09765625 C-28.42800759 27.85845571 -28.64518369 26.12826459 -28.09375 22.42578125 C-26.31390595 19.28986555 -25.57066793 18.58475389 -22.09375 17.42578125 C-20.03229893 17.35679025 -17.96873599 17.34110398 -15.90625 17.36328125 C-14.27623047 17.37681641 -14.27623047 17.37681641 -12.61328125 17.390625 C-11.78183594 17.40222656 -10.95039063 17.41382813 -10.09375 17.42578125 C-10.14015625 16.53375 -10.1865625 15.64171875 -10.234375 14.72265625 C-10.28851563 12.96695312 -10.28851563 12.96695312 -10.34375 11.17578125 C-10.39015625 10.015625 -10.4365625 8.85546875 -10.484375 7.66015625 C-10.09375 4.42578125 -10.09375 4.42578125 -8.328125 2.0390625 C-5.34594475 -0.11415506 -3.58010962 -0.23377581 0 0 Z " fill="#000000" transform="translate(429.09375,302.57421875)"/>
<path d="M0 0 C3.1359157 1.77984405 3.84102736 2.52308207 5 6 C5.068991 8.06145107 5.08467727 10.12501401 5.0625 12.1875 C5.05347656 13.27417969 5.04445312 14.36085938 5.03515625 15.48046875 C5.02355469 16.31191406 5.01195312 17.14335938 5 18 C5.89203125 17.95359375 6.7840625 17.9071875 7.703125 17.859375 C8.87359375 17.82328125 10.0440625 17.7871875 11.25 17.75 C12.99023438 17.68039063 12.99023438 17.68039063 14.765625 17.609375 C18 18 18 18 20.39453125 19.76171875 C23.00441944 23.40032199 22.48919388 25.59725506 22 30 C20.18836733 32.67431489 19.12238923 32.95920359 16 34 C14.10529184 34.0685495 12.2083166 34.08480372 10.3125 34.0625 C9.31863281 34.05347656 8.32476562 34.04445312 7.30078125 34.03515625 C6.16189453 34.01775391 6.16189453 34.01775391 5 34 C5.05220703 35.10408203 5.05220703 35.10408203 5.10546875 36.23046875 C5.37509588 45.94988494 5.37509588 45.94988494 2 50 C0.1496801 51.8503199 -2.42472082 51.29140132 -4.89453125 51.42578125 C-8.03060663 50.79158419 -9.12871289 49.56312154 -11 47 C-11.390625 43.765625 -11.390625 43.765625 -11.25 40.25 C-11.21390625 39.07953125 -11.1778125 37.9090625 -11.140625 36.703125 C-11.09421875 35.81109375 -11.0478125 34.9190625 -11 34 C-12.21236328 34.05220703 -12.21236328 34.05220703 -13.44921875 34.10546875 C-14.51785156 34.13253906 -15.58648437 34.15960938 -16.6875 34.1875 C-18.27111328 34.23970703 -18.27111328 34.23970703 -19.88671875 34.29296875 C-23.39065615 33.96323813 -25.19698511 33.08584712 -28 31 C-29.42662219 28.14675563 -29.31033868 26.16545451 -29 23 C-27.43359375 20.3203125 -27.43359375 20.3203125 -25 18 C-21.546875 17.51171875 -21.546875 17.51171875 -17.75 17.6875 C-16.48671875 17.73261719 -15.2234375 17.77773438 -13.921875 17.82421875 C-12.95765625 17.88222656 -11.9934375 17.94023438 -11 18 C-11.05800781 17.03578125 -11.11601563 16.0715625 -11.17578125 15.078125 C-11.22089844 13.81484375 -11.26601562 12.5515625 -11.3125 11.25 C-11.37050781 9.99703125 -11.42851563 8.7440625 -11.48828125 7.453125 C-11 4 -11 4 -8.671875 1.57421875 C-5.43267446 -0.33425759 -3.70248334 -0.55143369 0 0 Z " fill="#000000" transform="translate(107,37)"/>
<path d="M0 0 C16.83 0 33.66 0 51 0 C51 0.33 51 0.66 51 1 C47.7 1.33 44.4 1.66 41 2 C46.41180122 7.09958192 51.87452604 10.88881931 58.36328125 14.51953125 C61 16 61 16 64 18 C41.55933255 18.76867801 24.19290894 17.34330806 5 5 C3.35 3.35 1.7 1.7 0 0 Z " fill="#F2C656" transform="translate(201,271)"/>
<path d="M0 0 C4.13011787 3.27180119 6.55263795 7.8359429 9.1875 12.3125 C9.63802734 13.04662109 10.08855469 13.78074219 10.55273438 14.53710938 C13.21199126 19.03033653 14.73151108 22.670495 15 28 C14.21270916 30.64816011 13.47719891 31.62884529 11.3125 33.3125 C7.58160206 34.42168587 5.73265594 34.2653071 2 33 C-0.91368083 30.00879329 -2.9202736 26.60425232 -5 23 C-5.33660645 22.42894531 -5.67321289 21.85789062 -6.02001953 21.26953125 C-7.06744738 19.46695827 -8.07115307 17.64644264 -9.0625 15.8125 C-9.67222656 14.68457031 -10.28195313 13.55664062 -10.91015625 12.39453125 C-12.27443892 8.14520636 -11.73977288 6.05947006 -10 2 C-6.2794164 -0.48038907 -4.40203429 -0.46337203 0 0 Z " fill="#000000" transform="translate(186,78)"/>
<path d="M0 0 C2.53942753 1.37503914 5.02084314 2.82077701 7.49755859 4.30566406 C8.35542969 4.80066406 9.21330078 5.29566406 10.09716797 5.80566406 C16.41304063 9.52263711 16.41304063 9.52263711 18.68505859 12.93066406 C19.1660015 16.61789298 18.91423358 18.49141201 17.18505859 21.80566406 C14.33162135 24.23108572 12.68056195 24.43461863 8.99414062 24.33154297 C4.45181295 23.54295108 0.75349789 21.06194298 -3.12744141 18.68066406 C-3.97242188 18.18953125 -4.81740234 17.69839844 -5.68798828 17.19238281 C-9.67802783 14.81547283 -12.80069238 12.93752062 -15.31494141 8.93066406 C-15.74346484 5.50247663 -15.71704452 3.63913146 -14.00244141 0.61816406 C-9.93078243 -3.45349491 -4.73763491 -2.18844557 0 0 Z " fill="#000000" transform="translate(362.31494140625,260.0693359375)"/>
<path d="M0 0 C2.5625 2.0625 2.5625 2.0625 4 5 C3.84860578 11.61088079 0.92532768 16.25336554 -2.4375 21.8125 C-2.94087891 22.67037109 -3.44425781 23.52824219 -3.96289062 24.41210938 C-7.67087958 30.67087958 -7.67087958 30.67087958 -10 33 C-12.05859375 33.30078125 -12.05859375 33.30078125 -14.4375 33.3125 C-15.61119141 33.33763672 -15.61119141 33.33763672 -16.80859375 33.36328125 C-19 33 -19 33 -20.72265625 31.85546875 C-22.54038108 29.21504277 -22.84090927 27.1897691 -23 24 C-22.03125 21.4296875 -22.03125 21.4296875 -20.5 18.875 C-19.67242187 17.46734375 -19.67242187 17.46734375 -18.828125 16.03125 C-18.22484375 15.0309375 -17.6215625 14.030625 -17 13 C-16.37609375 11.8965625 -15.7521875 10.793125 -15.109375 9.65625 C-8.78341273 -1.50721283 -8.78341273 -1.50721283 0 0 Z " fill="#000000" transform="translate(197,302)"/>
<path d="M0 0 C3.63480357 1.62797416 6.94760296 3.69077947 10.3125 5.8125 C11.67084961 6.63331055 11.67084961 6.63331055 13.05664062 7.47070312 C19.70879425 11.56319137 19.70879425 11.56319137 22 15 C22.42255137 18.87338754 22.56667558 21.11598609 20.4375 24.4375 C17.00323017 26.63895502 15.06234967 26.40866267 11 26 C7.76472646 24.70192535 4.81501979 23.01240238 1.8125 21.25 C1.01908203 20.8065625 0.22566406 20.363125 -0.59179688 19.90625 C-10.23364387 14.40124919 -10.23364387 14.40124919 -11.9375 9.0625 C-12.01221891 5.40127319 -11.21363944 3.8695326 -9 1 C-5.94728976 -0.52635512 -3.29148895 -0.61193243 0 0 Z " fill="#000000" transform="translate(135,129)"/>
<path d="M0 0 C1.23234375 0.00257813 2.4646875 0.00515625 3.734375 0.0078125 C5.01828125 0.03617188 6.3021875 0.06453125 7.625 0.09375 C8.90890625 0.09117187 10.1928125 0.08859375 11.515625 0.0859375 C22.26512161 0.19837993 22.26512161 0.19837993 25.625 3.59375 C26.625 6.96875 26.625 6.96875 26.625 10.59375 C24.85858828 13.39564446 23.59450178 15.10899911 20.625 16.59375 C16.52641725 16.86412128 12.41898957 16.82538672 8.3125 16.84375 C6.60030273 16.8746875 6.60030273 16.8746875 4.85351562 16.90625 C3.75072266 16.91140625 2.64792969 16.9165625 1.51171875 16.921875 C0.50326904 16.9312207 -0.50518066 16.94056641 -1.54418945 16.95019531 C-4.83922393 16.53529662 -6.70933197 15.54266204 -9.375 13.59375 C-10.80162219 10.74050563 -10.68533868 8.75920451 -10.375 5.59375 C-7.46183148 0.80983592 -5.52917195 -0.03479456 0 0 Z " fill="#000000" transform="translate(373.375,198.40625)"/>
<path d="M0 0 C4.04226599 4.01006369 3.44908961 8.31725258 3.5078125 13.70507812 C3.50523437 14.93677734 3.50265625 16.16847656 3.5 17.4375 C3.52835937 18.66533203 3.55671875 19.89316406 3.5859375 21.15820312 C3.60780862 31.20251495 3.60780862 31.20251495 0.6953125 34.34765625 C-2 36 -2 36 -5.625 36 C-8.81585187 35.05456241 -10.10187442 34.63628553 -12 32 C-14.10267836 27.79464329 -13.18492744 22.24531241 -13.1875 17.625 C-13.19974609 16.47515625 -13.21199219 15.3253125 -13.22460938 14.140625 C-13.22654297 13.03460938 -13.22847656 11.92859375 -13.23046875 10.7890625 C-13.23457764 9.77537598 -13.23868652 8.76168945 -13.24291992 7.71728516 C-12.99491633 4.94313439 -12.48121206 3.3353368 -11 1 C-7.44020669 -1.76872813 -4.1946238 -1.06772242 0 0 Z " fill="#000000" transform="translate(257,60)"/>
<path d="M0 0 C0.99 0.03287109 0.99 0.03287109 2 0.06640625 C2.66 0.06511719 3.32 0.06382812 4 0.0625 C6.92869996 0.89191698 8.09681203 2.27207969 10 4.62890625 C10.51757812 7.58984375 10.51757812 7.58984375 10.53125 11.00390625 C10.53640625 12.23625 10.5415625 13.46859375 10.546875 14.73828125 C10.53140625 16.0221875 10.5159375 17.30609375 10.5 18.62890625 C10.51546875 19.9128125 10.5309375 21.19671875 10.546875 22.51953125 C10.54171875 23.751875 10.5365625 24.98421875 10.53125 26.25390625 C10.52673828 27.38054687 10.52222656 28.5071875 10.51757812 29.66796875 C9.88756156 33.27213897 8.89834441 34.45449925 6 36.62890625 C1.87574512 37.30378432 -0.15128518 37.17292258 -3.6875 34.90625 C-7.74408183 30.57681429 -6.67463814 24.15701343 -6.5625 18.62890625 C-6.57345703 17.45328125 -6.58441406 16.27765625 -6.59570312 15.06640625 C-6.48467517 2.03912637 -6.48467517 2.03912637 0 0 Z " fill="#000000" transform="translate(250,317.37109375)"/>
<path d="M0 0 C4.68352213 3.88632687 7.44435648 8.64109412 10.375 13.875 C10.83777344 14.65230469 11.30054688 15.42960937 11.77734375 16.23046875 C13.99848641 20.17548333 15.02465401 22.32634582 14.85546875 26.94921875 C14 30 14 30 12.9375 31.9375 C9.80972014 33.65273412 6.41294798 33.83194701 3 33 C-1.12066749 29.76531781 -3.59631208 25.18567021 -6.25 20.75 C-6.70890625 20.02425781 -7.1678125 19.29851562 -7.640625 18.55078125 C-10.71253487 13.42178888 -11.65338766 9.97752667 -11 4 C-8.16650967 -0.53358453 -5.10426635 -0.80593679 0 0 Z " fill="#000000" transform="translate(315,302)"/>
<path d="M0 0 C4.36689189 1.42398649 4.36689189 1.42398649 5.875 3.9375 C6.67498628 10.56717356 4.36729278 14.60126244 1.125 20.125 C0.6815625 20.91841797 0.238125 21.71183594 -0.21875 22.52929688 C-4.56586176 30.14313527 -4.56586176 30.14313527 -8.125 32.9375 C-11.625 33.5 -11.625 33.5 -15.125 32.9375 C-17.625 30.875 -17.625 30.875 -19.125 27.9375 C-18.90779447 21.70059849 -16.52734754 17.43861828 -13.375 12.25 C-12.94445312 11.50427734 -12.51390625 10.75855469 -12.0703125 9.99023438 C-6.04512126 -0.12090243 -6.04512126 -0.12090243 0 0 Z " fill="#040505" transform="translate(323.125,78.0625)"/>
<path d="M0 0 C2 1 2 1 3 3 C3.70779977 8.57392317 3.70779977 8.57392317 3 11 C-0.9280369 14.75991081 -5.74251085 17.49818185 -10.375 20.3125 C-11.10460937 20.77978516 -11.83421875 21.24707031 -12.5859375 21.72851562 C-16.40731941 24.03840451 -18.34187358 25.02296553 -22.91796875 24.86328125 C-27.54527193 23.56716718 -27.54527193 23.56716718 -29 21 C-29.4375 17.5625 -29.4375 17.5625 -29 14 C-25.72285319 9.89298139 -21.19981281 7.41214888 -16.75 4.75 C-16.02425781 4.29109375 -15.29851562 3.8321875 -14.55078125 3.359375 C-9.41501039 0.28340529 -5.98175573 -0.60078769 0 0 Z " fill="#040505" transform="translate(377,130)"/>
<path d="M0 0 C4.0743356 0.84881992 5.54405875 2.30225596 8 5.625 C8.625 8.625 8.625 8.625 8 11.625 C5.54405875 14.94774404 4.0743356 16.40118008 0 17.25 C-4.0743356 16.40118008 -5.54405875 14.94774404 -8 11.625 C-8.625 8.625 -8.625 8.625 -8 5.625 C-5.54405875 2.30225596 -4.0743356 0.84881992 0 0 Z " fill="#000000" transform="translate(96,312.375)"/>
<path d="M0 0 C4.0743356 0.84881992 5.54405875 2.30225596 8 5.625 C8.625 8.625 8.625 8.625 8 11.625 C5.54405875 14.94774404 4.0743356 16.40118008 0 17.25 C-4.0743356 16.40118008 -5.54405875 14.94774404 -8 11.625 C-8.625 8.625 -8.625 8.625 -8 5.625 C-5.54405875 2.30225596 -4.0743356 0.84881992 0 0 Z " fill="#000000" transform="translate(438,228.375)"/>
<path d="M0 0 C4.0743356 0.84881992 5.54405875 2.30225596 8 5.625 C8.625 8.625 8.625 8.625 8 11.625 C5.54405875 14.94774404 4.0743356 16.40118008 0 17.25 C-4.0743356 16.40118008 -5.54405875 14.94774404 -8 11.625 C-8.625 8.625 -8.625 8.625 -8 5.625 C-5.54405875 2.30225596 -4.0743356 0.84881992 0 0 Z " fill="#000000" transform="translate(55,131.375)"/>
<path d="M0 0 C4.0743356 0.84881992 5.54405875 2.30225596 8 5.625 C8.625 8.625 8.625 8.625 8 11.625 C5.54405875 14.94774404 4.0743356 16.40118008 0 17.25 C-4.0743356 16.40118008 -5.54405875 14.94774404 -8 11.625 C-8.625 8.625 -8.625 8.625 -8 5.625 C-5.54405875 2.30225596 -4.0743356 0.84881992 0 0 Z " fill="#000000" transform="translate(429,45.375)"/>
</svg>
