<?xml version="1.0" encoding="UTF-8"?>
<svg version="1.1" xmlns="http://www.w3.org/2000/svg" width="512" height="512">
<path d="M0 0 C4.0727962 2.00067182 6.55299822 4.19355278 9 8 C10.485 7.505 10.485 7.505 12 7 C21.94985669 6.08560704 32.19375289 5.81985464 41 11 C41.763125 11.4125 42.52625 11.825 43.3125 12.25 C54.04337948 18.63052293 59.42157298 29.18919506 65.1640625 39.8203125 C68.31064991 45.62471891 71.65411555 51.30888629 75 57 C79.27764036 64.30611471 83.54030402 71.61886688 87.6875 79 C88.08517578 79.69867188 88.48285156 80.39734375 88.89257812 81.1171875 C93.08974261 88.64717893 95.55553635 95.11247124 95.4375 103.8125 C95.42614014 104.99380493 95.42614014 104.99380493 95.41455078 106.19897461 C95.14153886 115.90883304 92.01887059 123.19405242 86.3671875 131.02734375 C85.01664809 132.97597919 83.89055337 134.80115945 83 137 C83.33 137.66 83.66 138.32 84 139 C84.50805471 144.09720458 84.61864473 148.57442735 82.5625 153.3125 C75.92257326 160.27632561 66.59161201 164.6494053 58.3125 169.375 C55.99716037 170.69750528 53.68215125 172.02058662 51.3671875 173.34375 C50.26600586 173.9728125 49.16482422 174.601875 48.03027344 175.25 C45.5024821 176.70981375 42.99846436 178.19688069 40.5078125 179.71875 C28.81376949 186.82962064 28.81376949 186.82962064 22 186 C16.64281923 184.39284577 13.82427802 181.96736325 10 178 C9.40912598 178.34554932 8.81825195 178.69109863 8.20947266 179.04711914 C-6.7373841 187.78499483 -21.71523739 196.46694474 -36.71777344 205.10888672 C-42.14659942 208.23680148 -47.57319329 211.36858365 -53 214.5 C-55.13280164 215.73048758 -57.26561418 216.96095625 -59.3984375 218.19140625 C-61.00090332 219.11590576 -61.00090332 219.11590576 -62.63574219 220.05908203 C-77.31787109 228.52954102 -77.31787109 228.52954102 -92 237 C-91.76216797 238.8253125 -91.76216797 238.8253125 -91.51953125 240.6875 C-89.74826678 255.0086294 -92.20938316 269.64381545 -100 282 C-101.19757265 283.32723112 -102.40169185 284.6485783 -103.61157227 285.96459961 C-108.11586809 291.71497311 -107.98807757 297.04128467 -107.90234375 304.12890625 C-107.91463516 305.35915024 -107.92692657 306.58939423 -107.93959045 307.85691833 C-107.97120646 311.75939352 -107.95507355 315.65996748 -107.9375 319.5625 C-107.94673156 322.21948753 -107.96685791 324.87625465 -107.98632812 327.53320312 C-108.02708488 334.02241746 -108.02871672 340.51074097 -108 347 C-107.25951416 346.98952637 -106.51902832 346.97905273 -105.75610352 346.96826172 C-102.35827105 346.92634919 -98.96049325 346.90056255 -95.5625 346.875 C-94.39783203 346.85824219 -93.23316406 346.84148437 -92.03320312 346.82421875 C-81.16479368 346.76298827 -72.54303952 347.81218161 -64 355 C-57.41639103 362.93409286 -57.6545204 372.01705658 -57.68432617 381.81542969 C-57.68749222 383.99464699 -57.66395829 386.17251182 -57.63867188 388.3515625 C-57.63639882 389.75520664 -57.63569541 391.15885439 -57.63671875 392.5625 C-57.63224731 394.45162109 -57.63224731 394.45162109 -57.62768555 396.37890625 C-58.11065236 401.07619397 -59.35393917 405.08816893 -62.5 408.7421875 C-64.99548755 410.62680049 -67.01309834 412.00436611 -70 413 C-68.5265425 420.71080934 -66.08131061 428.0162103 -63.52903366 435.42443657 C-62.75838872 437.66484331 -61.99558213 439.9077796 -61.23501587 442.15162659 C-59.07412538 448.52516351 -56.90657865 454.89633456 -54.71679688 461.26000977 C-53.37219339 465.16934088 -52.04261358 469.08351509 -50.72230911 473.0011158 C-50.21993571 474.48241244 -49.71206772 475.96185846 -49.1983757 477.43926811 C-43.01779368 495.2289058 -43.01779368 495.2289058 -45.68978882 503.00828552 C-47.89991808 507.41978141 -50.7488227 509.67960682 -55 512 C-57.8851249 512.38381431 -60.37463878 512.56281114 -63.25 512.53125 C-64.02633789 512.5350769 -64.80267578 512.53890381 -65.60253906 512.54284668 C-67.2363414 512.54555654 -68.8701878 512.53826031 -70.50390625 512.52148438 C-72.99317896 512.50005871 -75.47956618 512.52131466 -77.96875 512.546875 C-79.56250632 512.54423156 -81.15626085 512.53910623 -82.75 512.53125 C-83.48766602 512.53934692 -84.22533203 512.54744385 -84.98535156 512.55578613 C-90.14866993 512.46290575 -93.08926402 511.34926603 -97 508 C-100.89943837 503.23372582 -102.59524171 498.00167196 -104.453125 492.2265625 C-104.91075226 490.8409462 -104.91075226 490.8409462 -105.37762451 489.42733765 C-106.34361979 486.49594859 -107.2969684 483.56062613 -108.25 480.625 C-108.90541727 478.62863267 -109.56165861 476.63253568 -110.21875 474.63671875 C-111.82205536 469.76089003 -113.41403682 464.88149579 -115 460 C-115.01401855 461.75473633 -115.01401855 461.75473633 -115.02832031 463.54492188 C-115.06840062 467.913789 -115.13420859 472.28196523 -115.20751953 476.65039062 C-115.23562497 478.53571654 -115.25689106 480.42115799 -115.27099609 482.30664062 C-115.29257089 485.027941 -115.33929349 487.74786731 -115.390625 490.46875 C-115.39185364 491.30241089 -115.39308228 492.13607178 -115.39434814 492.99499512 C-115.53617229 498.75053456 -116.60505609 503.26893345 -120 508 C-125.00897862 512.75664661 -129.89157417 512.58666787 -136.4375 512.53125 C-137.43579834 512.5350769 -138.43409668 512.53890381 -139.46264648 512.54284668 C-141.56723035 512.5455611 -143.67184822 512.53823292 -145.77636719 512.52148438 C-148.98970061 512.50006864 -152.20079826 512.52130265 -155.4140625 512.546875 C-157.46354658 512.54423164 -159.51302927 512.5391065 -161.5625 512.53125 C-162.51890381 512.53934692 -163.47530762 512.54744385 -164.46069336 512.55578613 C-170.08902062 512.47703484 -173.74004265 512.04535799 -178 508 C-181.97345877 502.46273683 -182.59955865 497.12938296 -182.609375 490.46875 C-182.62591125 489.59222778 -182.64244751 488.71570557 -182.65948486 487.81262207 C-182.70766503 485.04167465 -182.72926847 482.27127477 -182.75 479.5 C-182.77818484 477.60934789 -182.80811576 475.71872096 -182.83984375 473.828125 C-182.91341555 469.21879515 -182.96317268 464.60976392 -183 460 C-183.4031543 461.24088379 -183.80630859 462.48176758 -184.22167969 463.76025391 C-185.72577337 468.38147552 -187.24194484 472.9986599 -188.76171875 477.61474609 C-189.41669344 479.60976534 -190.06842704 481.60585179 -190.71679688 483.60302734 C-191.65156086 486.48043734 -192.59807344 489.35375525 -193.546875 492.2265625 C-193.83246277 493.11429352 -194.11805054 494.00202454 -194.41229248 494.91665649 C-196.91520079 502.42943261 -199.62568091 508.24801794 -207 512 C-209.87243037 512.39545462 -212.35040166 512.58574825 -215.21484375 512.56640625 C-215.98880997 512.57260483 -216.76277618 512.57880341 -217.56019592 512.58518982 C-219.18977609 512.59226277 -220.81942891 512.58915818 -222.44897461 512.57641602 C-224.92763726 512.56255515 -227.40251528 512.59664482 -229.88085938 512.63476562 C-231.47135508 512.63571706 -233.06185546 512.63385666 -234.65234375 512.62890625 C-235.38484848 512.64216446 -236.11735321 512.65542267 -236.87205505 512.66908264 C-242.43911735 512.56952868 -245.94489004 510.80847061 -250 507 C-253.42413212 502.13994151 -253.46925542 497.73174715 -253 492 C-252.33917592 488.87226739 -251.36254784 485.89590202 -250.32421875 482.875 C-250.04291611 482.02172119 -249.76161346 481.16844238 -249.4717865 480.28930664 C-248.55612918 477.52188942 -247.62194005 474.76112501 -246.6875 472 C-246.05066912 470.08505114 -245.41510117 468.16968185 -244.78076172 466.25390625 C-242.87038418 460.49700186 -240.93657912 454.74813217 -239 449 C-237.35786598 444.11414027 -235.71811791 439.22748645 -234.08129883 434.33984375 C-233.12885527 431.4961482 -232.16842757 428.65534484 -231.2019043 425.81640625 C-230.77252618 424.54430374 -230.34323985 423.27217025 -229.9140625 422 C-229.3564624 420.3603125 -229.3564624 420.3603125 -228.78759766 418.6875 C-227.85938416 415.98693499 -227.85938416 415.98693499 -228 413 C-229.60875 412.195625 -229.60875 412.195625 -231.25 411.375 C-235.95432579 408.6990576 -238.29610832 405.11167504 -240 400 C-240.2292749 395.51628615 -240.22833684 391.0300992 -240.24023438 386.54125977 C-240.24988975 384.33766198 -240.28089975 382.13501763 -240.3125 379.93164062 C-240.38956884 369.75978329 -239.50338914 360.63339836 -232 353 C-222.77929715 346.29245864 -213.54820598 346.85958719 -202.5625 346.9375 C-200.74975586 346.94426758 -200.74975586 346.94426758 -198.90039062 346.95117188 C-195.93354211 346.96289855 -192.9667973 346.97931104 -190 347 C-190.03480469 346.32453125 -190.06960937 345.6490625 -190.10546875 344.953125 C-190.13253906 344.06109375 -190.15960938 343.1690625 -190.1875 342.25 C-190.22230469 341.36828125 -190.25710937 340.4865625 -190.29296875 339.578125 C-189.94262147 336.49506897 -189.14001467 335.21484036 -187 333 C-186.01 332.67 -185.02 332.34 -184 332 C-183.67 327.38 -183.34 322.76 -183 318 C-184.32 317.67 -185.64 317.34 -187 317 C-188.73339844 315.76635742 -188.73339844 315.76635742 -190 314 C-190.32128906 311.58325195 -190.32128906 311.58325195 -190.265625 308.73828125 C-190.26949219 307.70123047 -190.27335938 306.66417969 -190.27734375 305.59570312 C-190.25927567 303.42624338 -190.22570281 301.25685118 -190.17578125 299.08789062 C-190.22619033 293.25844047 -190.56613982 289.79220456 -194.546875 285.35546875 C-195.18979492 284.74727295 -195.83271484 284.13907715 -196.49511719 283.51245117 C-198 282 -198 282 -198 280 C-208.03914546 284.80478911 -217.59592421 290.19830673 -227.1484375 295.89892578 C-229.52302032 297.31102606 -231.90965509 298.69904359 -234.3125 300.0625 C-234.94800781 300.42472656 -235.58351562 300.78695313 -236.23828125 301.16015625 C-241.20413299 303.52746916 -246.61009971 303.60764615 -252 303 C-254.4580432 302.12458493 -256.68976209 301.098429 -258.9921875 299.875 C-261.24612116 298.73366096 -261.24612116 298.73366096 -265 299 C-267.60358254 300.13906811 -267.60358254 300.13906811 -270.33203125 301.74609375 C-271.89135376 302.62563721 -271.89135376 302.62563721 -273.48217773 303.52294922 C-274.58118408 304.15475098 -275.68019043 304.78655273 -276.8125 305.4375 C-277.93148682 306.07187988 -279.05047363 306.70625977 -280.20336914 307.35986328 C-287.12198762 311.29780809 -294.00118087 315.30046911 -300.7590332 319.50952148 C-304.7954914 322 -304.7954914 322 -307 322 C-306.649375 322.78375 -306.29875 323.5675 -305.9375 324.375 C-304.72293332 329.07132451 -304.47192141 333.35436821 -306 338 C-309.77707858 343.83062766 -314.79705224 347.13241607 -320.8125 350.375 C-321.56853516 350.81199219 -322.32457031 351.24898438 -323.10351562 351.69921875 C-329.58902909 355.2709508 -335.49418018 356.99331561 -342.75 354.9375 C-350.18163226 350.50710385 -353.73690719 342.57307508 -357.875 335.25 C-358.87089055 333.50519188 -359.86679051 331.76038904 -360.86326599 330.01591492 C-361.89413181 328.20966734 -362.9225274 326.40202934 -363.95068359 324.59423828 C-366.54731617 320.03371685 -369.17414799 315.49075236 -371.80297852 310.94873047 C-373.05640772 308.77962731 -374.30561851 306.60808088 -375.55053711 304.43408203 C-378.50137562 299.28411124 -381.49070092 294.17147115 -384.609375 289.12109375 C-385.17180908 288.19143799 -385.73424316 287.26178223 -386.3137207 286.30395508 C-387.35332174 284.58879312 -388.4127042 282.88537186 -389.49682617 281.19799805 C-393.25320464 274.92692744 -394.24329861 269.24949511 -393 262 C-390.54830417 255.71027135 -385.04813893 252.73264095 -379.375 249.625 C-378.611875 249.18800781 -377.84875 248.75101563 -377.0625 248.30078125 C-370.27642144 244.45533673 -364.86755282 243.16709741 -357 244 C-353.34673177 245.89187105 -350.85078998 248.10777412 -348 251 C-346.13393466 249.93911851 -344.26810064 248.87783012 -342.40234375 247.81640625 C-341.82064423 247.48565094 -341.2389447 247.15489563 -340.63961792 246.81411743 C-337.44367964 244.9952748 -334.25194904 243.16956516 -331.06713867 241.33129883 C-329.78705114 240.59308044 -328.50685974 239.85504213 -327.2265625 239.1171875 C-326.59613541 238.75382797 -325.96570831 238.39046844 -325.31617737 238.01609802 C-321.86140581 236.03486936 -318.38288508 234.13087 -314.8359375 232.3203125 C-308.12536376 229.15810957 -308.12536376 229.15810957 -304.06640625 223.3671875 C-303.82299706 220.56639227 -303.82299706 220.56639227 -303.99609375 217.7734375 C-304.00293807 212.91397213 -301.92930644 208.80001324 -299 205 C-293.29707074 199.85722922 -286.46519115 196.24300099 -279.80358887 192.51068115 C-277.31768942 191.11765208 -274.83895243 189.71209359 -272.35980225 188.30709839 C-271.08754029 187.58609293 -269.81495646 186.86565517 -268.54205322 186.14578247 C-262.581826 182.77258963 -256.66162757 179.33260499 -250.75 175.875 C-249.78908447 175.31603027 -248.82816895 174.75706055 -247.83813477 174.18115234 C-242.67024785 171.17027012 -237.53158339 168.11787954 -232.41796875 165.015625 C-231.33354492 164.36480957 -230.24912109 163.71399414 -229.13183594 163.04345703 C-227.05583611 161.79665127 -224.9869893 160.53782918 -222.92675781 159.26513672 C-217.71227336 156.14990857 -214.12196171 154.04142968 -208 155 C-207.195625 155.433125 -206.39125 155.86625 -205.5625 156.3125 C-203.03682495 157.29022851 -203.03682495 157.29022851 -200.984375 156.01953125 C-199.55638561 155.10263878 -198.1499105 154.15117883 -196.76953125 153.1640625 C-195 152 -195 152 -193 152 C-193.12375 150.783125 -193.2475 149.56625 -193.375 148.3125 C-193.35570339 144.65900763 -193.17563154 144.19364504 -190.5625 141.3125 C-186.60282426 138.52078617 -182.28939187 136.24001576 -178 134 C-178.33 133.01 -178.66 132.02 -179 131 C-179.50442239 125.7325072 -179.6716659 121.36820832 -177.3125 116.5625 C-173.49888849 112.33660616 -169.2379976 109.42330133 -164.30078125 106.63671875 C-163.18751465 106.00499756 -162.07424805 105.37327637 -160.92724609 104.72241211 C-160.33901062 104.39127411 -159.75077515 104.06013611 -159.14471436 103.71896362 C-156.63313685 102.30504564 -154.12707484 100.8814735 -151.62054443 99.45863342 C-150.32383464 98.72272457 -149.02683499 97.98732624 -147.72955322 97.25242615 C-141.42563777 93.68042171 -135.14786912 90.06372472 -128.875 86.4375 C-126.72916975 85.19791133 -124.58333641 83.958328 -122.4375 82.71875 C-121.37789063 82.10644531 -120.31828125 81.49414062 -119.2265625 80.86328125 C-115.96475993 78.9796495 -112.70138156 77.09877679 -109.4375 75.21875 C-108.35162598 74.59307129 -107.26575195 73.96739258 -106.14697266 73.32275391 C-103.98539 72.07728746 -101.82360979 70.83216381 -99.66162109 69.58740234 C-94.12754555 66.39697191 -88.60574767 63.18703193 -83.1015625 59.9453125 C-81.99312988 59.29377197 -80.88469727 58.64223145 -79.74267578 57.97094727 C-77.62162506 56.7226222 -75.50271524 55.47065051 -73.38623047 54.21459961 C-71.97301514 53.38327515 -71.97301514 53.38327515 -70.53125 52.53515625 C-69.70173828 52.044104 -68.87222656 51.55305176 -68.01757812 51.04711914 C-66 50 -66 50 -64 50 C-64.350625 49.21625 -64.70125 48.4325 -65.0625 47.625 C-66.475529 42.16128785 -66.32170685 36.72036897 -63.82592773 31.58349609 C-61.62322507 28.46690302 -59.49108258 27.12379633 -56.203125 25.19921875 C-55.63281555 24.8614592 -55.0625061 24.52369965 -54.47491455 24.17570496 C-52.65714721 23.1042146 -50.8297025 22.05095735 -49 21 C-47.81946612 20.31364968 -46.63912554 19.62696676 -45.45898438 18.93994141 C-41.90075743 16.87721986 -38.32634567 14.84358894 -34.75 12.8125 C-33.53634904 12.1206344 -32.32280712 11.42857747 -31.109375 10.73632812 C-28.78752393 9.41205078 -26.46205924 8.09497446 -24.1340332 6.78149414 C-22.19689314 5.68035594 -20.26879278 4.56292323 -18.35620117 3.41967773 C-12.10864053 -0.26310175 -7.25815769 -1.1269789 0 0 Z " fill="#010101" transform="translate(405,0)"/>
<path d="M0 0 C0.35078613 0.63164063 0.70157227 1.26328125 1.06298828 1.9140625 C8.7084389 15.66448098 16.47746848 29.3289597 24.43359375 42.90234375 C28.78258034 50.32431011 33.07614544 57.7780687 37.35913086 65.23828125 C40.56173082 70.80845905 43.79729837 76.35595217 47.09375 81.87109375 C47.74923828 82.97388672 48.40472656 84.07667969 49.08007812 85.21289062 C50.33591438 87.32213341 51.59992692 89.42653489 52.87304688 91.52539062 C53.70932617 92.93401367 53.70932617 92.93401367 54.5625 94.37109375 C55.05878906 95.19536865 55.55507813 96.01964355 56.06640625 96.86889648 C57 99 57 99 56 102 C53.50433944 103.55482402 51.0354421 104.94808334 48.4375 106.3125 C46.7786002 107.20844659 45.12111882 108.10702299 43.46484375 109.0078125 C42.57651855 109.49024414 41.68819336 109.97267578 40.77294922 110.46972656 C35.96521693 113.12291075 31.23521152 115.90757042 26.5 118.6875 C18.05781235 123.63252812 9.60193024 128.55224057 1.125 133.4375 C0.06063721 134.05101318 -1.00372559 134.66452637 -2.1003418 135.29663086 C-5.4000072 137.19813716 -8.70000022 139.09907407 -12 141 C-16.1963131 143.41783662 -20.39220284 145.83640662 -24.58770752 148.25564575 C-26.27098222 149.22606473 -27.95457887 150.19592519 -29.63818359 151.16577148 C-30.66121582 151.75559814 -31.68424805 152.3454248 -32.73828125 152.953125 C-33.63587158 153.47036133 -34.53346191 153.98759766 -35.45825195 154.52050781 C-37.20853523 155.53930684 -38.93557627 156.59875498 -40.64135742 157.69042969 C-43 159 -43 159 -46 159 C-47.359375 157.27734375 -47.359375 157.27734375 -48.75 154.9375 C-51.89296156 150.00630169 -55.4230834 144.82453386 -60.76708984 142.09863281 C-67.69976783 138.4530148 -70.35444927 133.04435511 -73.875 126.25 C-75.10144756 123.97189281 -76.32931498 121.69454945 -77.55859375 119.41796875 C-78.14882324 118.31114746 -78.73905273 117.20432617 -79.34716797 116.06396484 C-81.4478017 112.16988015 -83.66548997 108.35831371 -85.9375 104.5625 C-89.95475148 97.7940451 -93.92278973 90.99764629 -97.86380005 84.18453979 C-98.84879135 82.48278042 -99.83634832 80.78250689 -100.82397461 79.08227539 C-104.0696999 73.46577431 -107.18116966 67.84305284 -110 62 C-91.26493121 50.59201257 -72.16521337 39.79756472 -53.11239624 28.93234253 C-44.75701423 24.16618817 -36.42945075 19.35439406 -28.125 14.5 C-27.13975342 13.92483643 -26.15450684 13.34967285 -25.1394043 12.75708008 C-20.92348809 10.29542807 -16.71027907 7.82948464 -12.50390625 5.3515625 C-11.23196129 4.60904864 -9.95984306 3.86683147 -8.6875 3.125 C-7.11548828 2.20074219 -7.11548828 2.20074219 -5.51171875 1.2578125 C-3 0 -3 0 0 0 Z " fill="#585252" transform="translate(351,63)"/>
<path d="M0 0 C2.83958631 2.66140132 4.86851561 5.17258565 6.7421875 8.578125 C7.49399292 9.92910278 7.49399292 9.92910278 8.26098633 11.30737305 C8.79361084 12.27843994 9.32623535 13.24950684 9.875 14.25 C11.04147544 16.34588389 12.20949225 18.44091053 13.37890625 20.53515625 C13.97848145 21.61039551 14.57805664 22.68563477 15.19580078 23.79345703 C18.00882761 28.7929556 20.90840583 33.74052007 23.8125 38.6875 C28.93298836 47.42574028 33.98647063 56.20015194 39 65 C44.52880035 74.70223301 50.11074738 84.37146964 55.75048828 94.00976562 C60.32070244 101.82339995 64.8545037 109.65753913 69.375 117.5 C69.71040802 118.08187073 70.04581604 118.66374146 70.39138794 119.26324463 C72.26173257 122.50836509 74.13123954 125.75396704 76 129 C73.40505124 131.94796088 70.40698012 133.62632083 67.00390625 135.546875 C66.41512192 135.88116516 65.82633759 136.21545532 65.2197113 136.55987549 C63.3365413 137.6278628 61.44968982 138.68913507 59.5625 139.75 C57.71511738 140.79414114 55.86852875 141.83966963 54.02230835 142.88586426 C52.80465799 143.57486825 51.58593056 144.26197233 50.36611938 144.94714355 C47.38799104 146.62398123 44.43559402 148.32922699 41.51904297 150.11132812 C39.91440186 151.08489258 39.91440186 151.08489258 38.27734375 152.078125 C36.85603149 152.95839355 36.85603149 152.95839355 35.40600586 153.85644531 C33 155 33 155 30 154 C28.59643555 151.97241211 28.59643555 151.97241211 27.13671875 149.27734375 C26.58701416 148.27646729 26.03730957 147.27559082 25.47094727 146.24438477 C24.88240967 145.15311279 24.29387207 144.06184082 23.6875 142.9375 C22.4211316 140.63178953 21.15285461 138.32712644 19.8828125 136.0234375 C19.39751823 135.1402459 19.39751823 135.1402459 18.90242004 134.23921204 C15.71876177 128.45653569 12.40554125 122.75404915 9.0625 117.0625 C7.89562073 115.07173919 6.72895613 113.08085253 5.5625 111.08984375 C4.97855469 110.0932373 4.39460938 109.09663086 3.79296875 108.06982422 C0.69562962 102.7667275 -2.37113858 97.44605065 -5.4375 92.125 C-6.06003662 91.04484619 -6.68257324 89.96469238 -7.32397461 88.85180664 C-8.58576826 86.66203666 -9.84740534 84.47217645 -11.10888672 82.28222656 C-13.61436638 77.93370235 -16.12222725 73.58655555 -18.63110352 69.23999023 C-19.86867934 67.09448158 -21.10486442 64.94817007 -22.33959961 62.80102539 C-25.27637238 57.69766005 -28.22659305 52.60346182 -31.2232666 47.5350647 C-32.64543937 45.12786634 -34.0601922 42.71634788 -35.47436523 40.30444336 C-36.48153359 38.59386344 -37.49946254 36.88963385 -38.51757812 35.18554688 C-39.12021484 34.15623047 -39.72285156 33.12691406 -40.34375 32.06640625 C-40.88193359 31.15834229 -41.42011719 30.25027832 -41.97460938 29.31469727 C-43 27 -43 27 -42 24 C-39.53833008 22.31762695 -39.53833008 22.31762695 -36.26953125 20.48828125 C-35.68266037 20.15636276 -35.09578949 19.82444427 -34.49113464 19.48246765 C-32.60299392 18.41711845 -30.70804178 17.36461375 -28.8125 16.3125 C-27.58610896 15.6239003 -26.36019229 14.93445505 -25.13476562 14.24414062 C-22.68016934 12.86259724 -20.22305058 11.48570082 -17.76416016 10.11181641 C-11.81850064 6.78395637 -5.91047402 3.38982234 0 0 Z " fill="#FEDE3F" transform="translate(398,15)"/>
<path d="M0 0 C0.25990723 0.48017578 0.51981445 0.96035156 0.78759766 1.45507812 C7.16306059 13.20560625 13.74139489 24.81380659 20.57861328 36.30273438 C21.44268799 37.76549805 21.44268799 37.76549805 22.32421875 39.2578125 C22.84072998 40.1255127 23.35724121 40.99321289 23.8894043 41.88720703 C25 44 25 44 25 46 C23.60201172 46.03867188 23.60201172 46.03867188 22.17578125 46.078125 C3.27870499 46.91884427 -11.80527691 53.15081864 -25 67 C-32.33428948 75.68330255 -37.61633102 87.96496403 -36.83227539 99.45874023 C-36.70260376 100.74566772 -36.70260376 100.74566772 -36.5703125 102.05859375 C-35.30593352 115.78145473 -35.30593352 115.78145473 -38.41943359 119.85888672 C-42.45377512 123.29715945 -46.9757795 125.4076241 -52 127 C-55.77016416 125.74327861 -56.00711403 124.70437669 -57.86328125 121.27734375 C-58.41322754 120.27606445 -58.96317383 119.27478516 -59.52978516 118.24316406 C-60.11808105 117.15229492 -60.70637695 116.06142578 -61.3125 114.9375 C-62.57492648 112.63828063 -63.83929962 110.34012919 -65.10546875 108.04296875 C-65.58983398 107.16132553 -65.58983398 107.16132553 -66.08398438 106.26187134 C-69.3305479 100.36514059 -72.71525401 94.55338672 -76.125 88.75 C-77.27634499 86.78403177 -78.4273885 84.81788696 -79.578125 82.8515625 C-80.14080078 81.89024414 -80.70347656 80.92892578 -81.28320312 79.93847656 C-84.16285518 75.00965232 -87.0260392 70.07162238 -89.875 65.125 C-90.39336426 64.23264648 -90.91172852 63.34029297 -91.44580078 62.42089844 C-91.9148584 61.60395508 -92.38391602 60.78701172 -92.8671875 59.9453125 C-93.28081543 59.22875488 -93.69444336 58.51219727 -94.12060547 57.77392578 C-95 56 -95 56 -95 54 C-92.35767008 52.47557889 -89.71533818 50.95116121 -87.07299805 49.42675781 C-84.75411792 48.08892341 -82.4352653 46.75104148 -80.11645508 45.41308594 C-74.56785387 42.21162719 -69.01902665 39.01056425 -63.46881104 35.81190491 C-61.68469579 34.78367401 -59.90068228 33.75526684 -58.11669922 32.72680664 C-55.86722699 31.43006902 -53.61755915 30.13367064 -51.36767578 28.83764648 C-50.34270996 28.24669189 -49.31774414 27.6557373 -48.26171875 27.046875 C-47.36412842 26.52963867 -46.46653809 26.01240234 -45.54174805 25.47949219 C-44.70297119 24.99125977 -43.86419434 24.50302734 -43 24 C-42.07759521 23.48824219 -41.15519043 22.97648437 -40.20483398 22.44921875 C-37.78301283 21.21706766 -37.78301283 21.21706766 -37.4609375 18.765625 C-37.41839844 17.52039063 -37.41839844 17.52039063 -37.375 16.25 C-36.8464312 12.49495914 -36.36111722 11.3115737 -33.4375 8.7890625 C-30.67497665 7.06248541 -27.90728016 5.4682251 -25 4 C-24.29875 4.495 -23.5975 4.99 -22.875 5.5 C-19.488791 7.26671774 -17.77301415 7.49796126 -14 7 C-10.80004913 5.51146309 -10.80004913 5.51146309 -7.75 3.5 C-2.16666667 0 -2.16666667 0 0 0 Z " fill="#726A6A" transform="translate(237,147)"/>
<path d="M0 0 C11.59821855 6.88544379 17.86671372 15.90092241 22.0859375 28.55859375 C23.06842875 46.4323768 23.06842875 46.4323768 19.0859375 54.55859375 C18.75722656 55.29078125 18.42851562 56.02296875 18.08984375 56.77734375 C13.15284632 66.75383683 5.36274839 73.49034906 -4.9140625 77.55859375 C-6.26177734 78.10580078 -6.26177734 78.10580078 -7.63671875 78.6640625 C-16.80582034 81.16671359 -29.2003842 81.13787343 -37.78515625 76.8828125 C-50.08865276 69.22981192 -57.13746248 60.46205458 -61.53125 46.61328125 C-63.92420635 33.76945433 -61.01865048 22.72065521 -53.859375 12.1015625 C-41.12406858 -4.5463983 -18.69562688 -9.24756879 0 0 Z " fill="#FBDB3F" transform="translate(275.9140625,212.44140625)"/>
<path d="M0 0 C1.52284434 0.00301699 1.52284434 0.00301699 3.07645321 0.00609493 C4.2471133 -0.00366871 5.4177734 -0.01343235 6.62390804 -0.02349186 C7.89940014 -0.00865757 9.17489223 0.00617672 10.48903561 0.02146053 C11.8527283 0.0195957 13.21641949 0.01555738 14.58010006 0.0095129 C18.2765288 -0.00045377 21.97218955 0.02069379 25.66850686 0.04799294 C29.53835031 0.07184169 33.40817901 0.06887814 37.27808285 0.06929684 C43.77545309 0.07392325 50.27253008 0.09755473 56.76979733 0.13376522 C64.28102991 0.17551537 71.79199854 0.19308119 79.30334049 0.19638497 C87.3022429 0.19998496 95.30105038 0.21885902 103.29991317 0.24350524 C105.60420664 0.24973251 107.90849288 0.25336965 110.2127924 0.25653934 C113.83340236 0.26244214 117.45382393 0.27876126 121.07435513 0.3031435 C123.03683092 0.31412832 124.99935344 0.31542238 126.9618597 0.31644344 C128.12969997 0.32641857 129.29754025 0.3363937 130.50076962 0.3466711 C131.51562215 0.35132161 132.53047468 0.35597212 133.57608032 0.36076355 C136.33297371 0.63141405 137.92586734 1.09812188 140.22511959 2.62082577 C146.33801754 11.7901727 142.22511959 24.60064226 142.22511959 35.62082577 C92.72511959 35.62082577 43.22511959 35.62082577 -7.77488041 35.62082577 C-7.77488041 1.73947896 -7.77488041 1.73947896 0 0 Z " fill="#726A6A" transform="translate(188.77488040924072,362.3791742324829)"/>
<path d="M0 0 C2.44958627 0.44342247 4.77258956 0.91917087 7.12109375 1.75390625 C19.07524589 5.92677217 35.52465417 6.31898461 47.07421875 0.875 C49 0 49 0 52 0 C52 15.18 52 30.36 52 46 C34.84 46 17.68 46 0 46 C-0.33 42.37 -0.66 38.74 -1 35 C-3.89459074 31.78918149 -3.89459074 31.78918149 -8 30 C-8 25.38 -8 20.76 -8 16 C-6.02 15.01 -4.04 14.02 -2 13 C-0.18884044 11.18884044 -0.61800552 8.38721773 -0.4375 5.9375 C-0.35371094 4.83277344 -0.26992187 3.72804688 -0.18359375 2.58984375 C-0.12300781 1.73519531 -0.06242188 0.88054687 0 0 Z " fill="#F1F3F7" transform="translate(230,302)"/>
<path d="M0 0 C3.10758592 3.10758592 4.73065458 4.92201288 6.7421875 8.578125 C7.24339111 9.47877686 7.74459473 10.37942871 8.26098633 11.30737305 C8.79361084 12.27843994 9.32623535 13.24950684 9.875 14.25 C11.04147544 16.34588389 12.20949225 18.44091053 13.37890625 20.53515625 C13.97848145 21.61039551 14.57805664 22.68563477 15.19580078 23.79345703 C18.00882761 28.7929556 20.90840583 33.74052007 23.8125 38.6875 C28.93298836 47.42574028 33.98647063 56.20015194 39 65 C44.52880035 74.70223301 50.11074738 84.37146964 55.75048828 94.00976562 C60.32070244 101.82339995 64.8545037 109.65753913 69.375 117.5 C69.71040802 118.08187073 70.04581604 118.66374146 70.39138794 119.26324463 C72.26173257 122.50836509 74.13123954 125.75396704 76 129 C73.40505124 131.94796088 70.40698012 133.62632083 67.00390625 135.546875 C66.41512192 135.88116516 65.82633759 136.21545532 65.2197113 136.55987549 C63.3365413 137.6278628 61.44968982 138.68913507 59.5625 139.75 C57.71511738 140.79414114 55.86852875 141.83966963 54.02230835 142.88586426 C52.80465799 143.57486825 51.58593056 144.26197233 50.36611938 144.94714355 C47.38799104 146.62398123 44.43559402 148.32922699 41.51904297 150.11132812 C39.91440186 151.08489258 39.91440186 151.08489258 38.27734375 152.078125 C36.85603149 152.95839355 36.85603149 152.95839355 35.40600586 153.85644531 C33 155 33 155 30 154 C29.67 153.01 29.34 152.02 29 151 C29.83660156 150.59910156 30.67320312 150.19820312 31.53515625 149.78515625 C38.28014239 146.49109325 44.8625927 143.03114698 51.3125 139.1875 C51.96420166 138.80279541 52.61590332 138.41809082 53.28735352 138.02172852 C56.71658091 136.08310945 56.71658091 136.08310945 59 133 C59.40954628 127.68268422 58.69162369 124.60369194 55.9921875 120.03515625 C55.34241943 118.91802246 54.69265137 117.80088867 54.02319336 116.64990234 C53.30737638 115.45395341 52.59130547 114.25815642 51.875 113.0625 C51.13993566 111.81024103 50.40631239 110.55713514 49.67407227 109.30322266 C48.17992241 106.74987663 46.67759342 104.2016519 45.16748047 101.65771484 C42.62949696 97.38101467 40.12929834 93.08263456 37.62963867 88.78344727 C35.92165805 85.84777086 34.20742577 82.91581585 32.4921875 79.984375 C26.92597396 70.45933728 21.42839727 60.89457941 15.921875 51.33496094 C13.94955497 47.91246454 11.9751696 44.49116473 10 41.0703125 C9.01700928 39.3675415 9.01700928 39.3675415 8.01416016 37.63037109 C6.73025299 35.40658092 5.44608068 33.1829438 4.16162109 30.95947266 C1.54340477 26.42398533 -1.07121294 21.8870562 -3.6484375 17.328125 C-4.02363525 16.66522461 -4.39883301 16.00232422 -4.78540039 15.31933594 C-5.72072608 13.66256222 -6.65162125 12.00328925 -7.58203125 10.34375 C-8.92118648 7.91949674 -8.92118648 7.91949674 -11 6 C-7.37 4.02 -3.74 2.04 0 0 Z " fill="#FBBB3F" transform="translate(398,15)"/>
<path d="M0 0 C8.46230827 -0.6481768 15.40463245 0.73418318 22.40576172 5.7097168 C25.26357164 8.23269016 26.89294912 10.63517732 28.83203125 13.91015625 C29.17144241 14.47863785 29.51085358 15.04711945 29.86054993 15.63282776 C30.91914564 17.41509219 31.96184018 19.20576566 33 21 C33.63728027 22.09812012 34.27456055 23.19624023 34.93115234 24.32763672 C36.86377388 27.68990967 38.77817793 31.06194647 40.6875 34.4375 C44.68101362 41.48358425 48.68521831 48.51734657 52.85546875 55.4609375 C53.45077393 56.45295166 54.0460791 57.44496582 54.65942383 58.46704102 C55.77075906 60.31030444 56.88868393 62.14961739 58.0144043 63.98413086 C62.47216833 71.38152378 65.16444143 78.22408778 64 87 C63.02018338 90.52531958 61.91579308 93.8720539 60 97 C57.92089844 98.12915039 57.92089844 98.12915039 56 99 C55.59386475 98.2879541 55.18772949 97.5759082 54.76928711 96.84228516 C45.5155543 80.62263799 36.2240025 64.42568755 26.88085938 48.25732422 C24.94421753 44.90339437 23.01075427 41.5476497 21.078125 38.19140625 C19.78126811 35.94009373 18.48439336 33.68879151 17.1875 31.4375 C16.56665527 30.35903809 15.94581055 29.28057617 15.30615234 28.16943359 C12.5086402 23.31727682 9.69870551 18.47415059 6.8359375 13.66015625 C6.36260986 12.86359619 5.88928223 12.06703613 5.40161133 11.24633789 C4.5357448 9.7938606 3.66604464 8.34365882 2.79174805 6.89624023 C0 2.21802943 0 2.21802943 0 0 Z " fill="#7582FB" transform="translate(421,22)"/>
<path d="M0 0 C6.55848237 3.63556818 11.49190376 8.80075493 13.8125 16 C14.92232466 24.25943192 13.82873229 31.23951428 8.8125 38 C6.33444155 40.36519639 3.76166322 42.26450832 0.8125 44 C0.20792969 44.37125 -0.39664063 44.7425 -1.01953125 45.125 C-6.85140236 47.4787642 -14.33908204 47.05455263 -20.15234375 44.90234375 C-26.6556934 41.23504131 -30.32987205 36.89217285 -33.5 30.25 C-34.99469486 23.18416975 -35.29844203 16.24303452 -31.58203125 9.84765625 C-23.78906134 -0.47748316 -12.22788898 -5.5006917 0 0 Z " fill="#040301" transform="translate(266.1875,228)"/>
<path d="M0 0 C11.22 0 22.44 0 34 0 C34 16.83 34 33.66 34 51 C22.78 51 11.56 51 0 51 C0 34.17 0 17.34 0 0 Z " fill="#F2F4F8" transform="translate(239,446)"/>
<path d="M0 0 C1.55483307 2.49567508 2.94808688 4.96453815 4.3125 7.5625 C5.20973588 9.22401072 6.10961397 10.88409653 7.01171875 12.54296875 C7.73560791 13.87593994 7.73560791 13.87593994 8.47412109 15.23583984 C11.10388704 19.99971346 13.86809285 24.68393985 16.625 29.375 C21.70950423 38.05892698 26.77282151 46.75460625 31.78533936 55.48028564 C32.50939755 56.73928629 33.23501496 57.99739156 33.96221924 59.25457764 C34.97634021 61.00848185 35.98440879 62.76588142 36.9921875 64.5234375 C37.57339355 65.53325684 38.15459961 66.54307617 38.75341797 67.58349609 C40 70 40 70 40 72 C37.92111288 73.47686988 35.86716626 74.81395738 33.6875 76.125 C33.09259766 76.49753906 32.49769531 76.87007813 31.88476562 77.25390625 C27.38338484 80 27.38338484 80 24 80 C22.47623463 77.35880669 20.9524704 74.71761273 19.42871094 72.07641602 C18.08432862 69.74616432 16.73993029 67.41592188 15.39550781 65.08569336 C11.9468146 59.10817017 8.49840815 53.13048203 5.05078125 47.15234375 C4.41865723 46.05647949 3.7865332 44.96061523 3.13525391 43.83154297 C1.88309881 41.66029761 0.63146718 39.48875028 -0.61962891 37.31689453 C-3.5263569 32.27357084 -6.44233607 27.23629168 -9.38671875 22.21484375 C-9.90459961 21.32917725 -10.42248047 20.44351074 -10.95605469 19.53100586 C-11.91788708 17.88774342 -12.88318523 16.24650284 -13.85253906 14.60766602 C-17 9.22318174 -17 9.22318174 -17 7 C-14.73595458 5.63319847 -12.46498979 4.28155555 -10.1875 2.9375 C-9.54490234 2.54755859 -8.90230469 2.15761719 -8.24023438 1.75585938 C-3.33984375 -1.11328125 -3.33984375 -1.11328125 0 0 Z " fill="#FBBB3F" transform="translate(44,260)"/>
<path d="M0 0 C2.8455204 3.40833646 5.18211602 6.83466984 7.36328125 10.69921875 C7.99564697 11.81361328 8.6280127 12.92800781 9.27954102 14.07617188 C9.61075958 14.66454834 9.94197815 15.2529248 10.28323364 15.85913086 C11.68806553 18.35464745 13.10241758 20.84472428 14.51609802 23.3352356 C15.24834299 24.62553771 15.98007876 25.91612893 16.71131897 27.20700073 C20.46099149 33.82441159 24.25779155 40.41409169 28.0625 47 C28.95352417 48.54433716 28.95352417 48.54433716 29.86254883 50.11987305 C30.721427 51.60741089 30.721427 51.60741089 31.59765625 53.125 C32.42547607 54.56552734 32.42547607 54.56552734 33.27001953 56.03515625 C34.49809441 58.13983327 35.7518255 60.22963301 37.02294922 62.30859375 C37.67408691 63.38238281 38.32522461 64.45617187 38.99609375 65.5625 C39.59478271 66.53316406 40.19347168 67.50382812 40.81030273 68.50390625 C42 71 42 71 41 74 C35.82941671 77.69327378 32.33771 78.91999016 26 78 C21.59127971 74.3388757 19.18118398 70.16338735 16.5625 65.1875 C15.69265602 63.57804529 14.82010863 61.97004966 13.9453125 60.36328125 C13.47641602 59.5017041 13.00751953 58.64012695 12.52441406 57.75244141 C9.74971477 52.7425183 6.83625989 47.81380113 3.9375 42.875 C2.74726499 40.83210748 1.55715854 38.78914005 0.3671875 36.74609375 C-1.70277384 33.19901268 -3.79865339 29.67083217 -5.9296875 26.16015625 C-6.7658735 24.75275178 -7.60183006 23.34521095 -8.4375 21.9375 C-8.82107666 21.32567871 -9.20465332 20.71385742 -9.59985352 20.08349609 C-11.47613136 16.87996362 -11.99964915 14.98748646 -11.89453125 11.23828125 C-10.42981516 5.93588108 -6.59554281 4.00588568 -2.125 1.1875 C-1.42375 0.795625 -0.7225 0.40375 0 0 Z " fill="#716969" transform="translate(128,209)"/>
<path d="M0 0 C8.25 0 16.5 0 25 0 C27.5860504 6.465126 30.04807885 12.84504815 32.234375 19.4375 C32.65870819 20.70762939 32.65870819 20.70762939 33.09161377 22.00341797 C33.68120076 23.77083107 34.2693045 25.53873961 34.85595703 27.30712891 C35.75753157 30.02268521 36.66558662 32.73601685 37.57421875 35.44921875 C38.1488229 37.17435085 38.72305543 38.89960677 39.296875 40.625 C39.70459137 41.84207642 39.70459137 41.84207642 40.12054443 43.08374023 C42 48.77000772 42 48.77000772 42 51 C33.42 51 24.84 51 16 51 C13.71718526 44.22034596 11.43711468 37.43989771 9.1640625 30.65698242 C8.38964039 28.34882122 7.61360512 26.04120061 6.8359375 23.73413086 C5.71972964 20.42181251 4.60929889 17.10760631 3.5 13.79296875 C3.15001953 12.7585112 2.80003906 11.72405365 2.43945312 10.6582489 C2.11912109 9.6974794 1.79878906 8.7367099 1.46875 7.74682617 C1.18451172 6.90077316 0.90027344 6.05472015 0.60742188 5.18302917 C0 3 0 3 0 0 Z " fill="#CCD4E2" transform="translate(303,446)"/>
<path d="M0 0 C1.5631897 0.00785522 1.5631897 0.00785522 3.15795898 0.01586914 C4.28266602 0.0190918 5.40737305 0.02231445 6.56616211 0.02563477 C7.75016602 0.03401367 8.93416992 0.04239258 10.15405273 0.05102539 C11.34192383 0.05553711 12.52979492 0.06004883 13.75366211 0.06469727 C16.69967499 0.07652864 19.64558954 0.09301252 22.59155273 0.11352539 C21.24739505 6.64682402 19.47540635 12.86699848 17.33374023 19.17993164 C17.0258255 20.099431 16.71791077 21.01893036 16.40066528 21.96629333 C15.42688567 24.87098783 14.44683273 27.77351904 13.46655273 30.67602539 C12.80077047 32.65830703 12.13540187 34.64072766 11.47045898 36.62329102 C9.84969645 41.45526509 8.22044749 46.28425646 6.59155273 51.11352539 C-1.65844727 51.11352539 -9.90844727 51.11352539 -18.40844727 51.11352539 C-17.28333553 42.11263153 -17.28333553 42.11263153 -16.02563477 38.36572266 C-15.61015381 37.11016319 -15.61015381 37.11016319 -15.1862793 35.82923889 C-14.88834473 34.9549675 -14.59041016 34.08069611 -14.28344727 33.17993164 C-13.82301025 31.80211769 -13.82301025 31.80211769 -13.35327148 30.39646912 C-12.70788285 28.46999264 -12.05889957 26.54471702 -11.40649414 24.62060547 C-10.40412206 21.66326454 -9.41321259 18.70226825 -8.42407227 15.74047852 C-7.79452449 13.86590759 -7.16433903 11.99155067 -6.53344727 10.11743164 C-6.2355127 9.22899063 -5.93757812 8.34054962 -5.63061523 7.42518616 C-5.35362793 6.61021164 -5.07664063 5.79523712 -4.79125977 4.95556641 C-4.54778809 4.23579117 -4.30431641 3.51601593 -4.0534668 2.77442932 C-3.05403321 0.20092093 -2.86031171 0.13482463 0 0 Z " fill="#CED6E5" transform="translate(186.408447265625,445.886474609375)"/>
<path d="M0 0 C2.67431489 1.81163267 2.95920359 2.87761077 4 6 C4.06802967 7.72795352 4.08495645 9.45835365 4.0625 11.1875 C4.05347656 12.08855469 4.04445313 12.98960937 4.03515625 13.91796875 C4.02355469 14.60503906 4.01195312 15.29210937 4 16 C5.10408203 15.91298828 5.10408203 15.91298828 6.23046875 15.82421875 C14.16162295 15.45752074 14.16162295 15.45752074 18.1875 18.0625 C20.46334187 21.75093338 20.69758716 23.73696737 20 28 C18.35546875 30.19921875 18.35546875 30.19921875 16 32 C12.984375 32.390625 12.984375 32.390625 9.75 32.25 C8.67234375 32.21390625 7.5946875 32.1778125 6.484375 32.140625 C5.66453125 32.09421875 4.8446875 32.0478125 4 32 C4.04640625 32.73605469 4.0928125 33.47210938 4.140625 34.23046875 C4.43411441 42.1651646 4.43411441 42.1651646 2.375 46.125 C-0.5630404 48.44450558 -2.2581623 49 -6 49 C-8.32731556 47.86220128 -10.16840714 46.83159286 -12 45 C-12.07258946 42.81360547 -12.08373783 40.62499611 -12.0625 38.4375 C-12.05347656 37.23996094 -12.04445313 36.04242188 -12.03515625 34.80859375 C-12.02355469 33.88175781 -12.01195312 32.95492187 -12 32 C-12.80824219 32.05800781 -13.61648438 32.11601562 -14.44921875 32.17578125 C-23.10368883 32.54116901 -23.10368883 32.54116901 -27.3125 30 C-29.27506093 26.5110028 -29.50293057 24.66342147 -28.6875 20.8046875 C-28 19 -28 19 -26.125 17 C-21.4377526 15.50008083 -16.87906888 15.76929096 -12 16 C-12.04640625 15.18015625 -12.0928125 14.3603125 -12.140625 13.515625 C-12.19476563 11.89914062 -12.19476563 11.89914062 -12.25 10.25 C-12.29640625 9.18265625 -12.3428125 8.1153125 -12.390625 7.015625 C-12 4 -12 4 -10.23828125 1.63671875 C-6.60886217 -1.01725436 -4.41726357 -0.49080706 0 0 Z " fill="#000000" transform="translate(426,265)"/>
<path d="M0 0 C1.703125 1.1328125 1.703125 1.1328125 3 3 C3.29296875 6.13671875 3.29296875 6.13671875 3.1875 9.6875 C3.14689453 11.45673828 3.14689453 11.45673828 3.10546875 13.26171875 C3.07066406 14.16535156 3.03585938 15.06898437 3 16 C3.89203125 15.94199219 4.7840625 15.88398437 5.703125 15.82421875 C6.87359375 15.77910156 8.0440625 15.73398437 9.25 15.6875 C10.41015625 15.62949219 11.5703125 15.57148437 12.765625 15.51171875 C16 16 16 16 18.41796875 18.26171875 C20.42935488 21.74315499 20.40931479 23.37441108 19.65234375 27.1953125 C19 29 19 29 17.125 31 C12.4377526 32.49991917 7.87906888 32.23070904 3 32 C3.04640625 32.81984375 3.0928125 33.6396875 3.140625 34.484375 C3.19476563 36.10085937 3.19476563 36.10085937 3.25 37.75 C3.29640625 38.81734375 3.3428125 39.8846875 3.390625 40.984375 C3 44 3 44 1.203125 46.36328125 C-1.97296984 48.72282688 -4.14160802 48.482299 -8 48 C-11.1850357 46.23984869 -11.83296972 45.50109084 -13 42 C-13.06802967 40.27204648 -13.08495645 38.54164635 -13.0625 36.8125 C-13.05347656 35.91144531 -13.04445312 35.01039062 -13.03515625 34.08203125 C-13.02355469 33.39496094 -13.01195312 32.70789062 -13 32 C-13.99580078 32.05220703 -13.99580078 32.05220703 -15.01171875 32.10546875 C-23.96988245 32.38009859 -23.96988245 32.38009859 -28 29 C-29.54586876 25.90826248 -29.29359521 23.40570448 -29 20 C-27.37109375 17.7890625 -27.37109375 17.7890625 -25 16 C-21.984375 15.609375 -21.984375 15.609375 -18.75 15.75 C-17.67234375 15.78609375 -16.5946875 15.8221875 -15.484375 15.859375 C-14.25460938 15.92898437 -14.25460938 15.92898437 -13 16 C-13.02320313 15.25234375 -13.04640625 14.5046875 -13.0703125 13.734375 C-13.09738281 12.25710937 -13.09738281 12.25710937 -13.125 10.75 C-13.14820313 9.77546875 -13.17140625 8.8009375 -13.1953125 7.796875 C-12.99640456 4.94851324 -12.52073868 3.38663971 -11 1 C-7.4367155 -1.7714435 -4.20758349 -0.99451973 0 0 Z " fill="#000000" transform="translate(211,17)"/>
<path d="M0 0 C2.875 1.75 2.875 1.75 5 5 C5.41449604 9.03477791 5.28999494 12.95940379 5 17 C5.81984375 16.95359375 6.6396875 16.9071875 7.484375 16.859375 C8.56203125 16.82328125 9.6396875 16.7871875 10.75 16.75 C12.35101563 16.68039063 12.35101563 16.68039063 13.984375 16.609375 C17 17 17 17 19.36328125 18.796875 C21.72282688 21.97296984 21.482299 24.14160802 21 28 C19.67092728 30.52523817 18.91653026 31.69778205 16.1875 32.59765625 C13.82335387 33.03249027 11.65193179 33.09782253 9.25 33.0625 C8.45078125 33.05347656 7.6515625 33.04445312 6.828125 33.03515625 C6.22484375 33.02355469 5.6215625 33.01195312 5 33 C5.05800781 33.73605469 5.11601563 34.47210938 5.17578125 35.23046875 C5.5435454 43.1846819 5.5435454 43.1846819 2.875 47.1875 C-0.53610376 49.33797846 -2.04490483 49.74158034 -6 49 C-8.875 47.75 -8.875 47.75 -11 45 C-11.4236426 40.96735149 -11.28579987 37.03930483 -11 33 C-11.59167969 33.02320313 -12.18335937 33.04640625 -12.79296875 33.0703125 C-18.35798057 33.19740902 -22.54997359 33.20502377 -26.875 29.3125 C-28.53583755 25.89855615 -27.91952707 23.61242777 -27 20 C-25.86328125 18.296875 -25.86328125 18.296875 -24 17 C-20.86328125 16.70703125 -20.86328125 16.70703125 -17.3125 16.8125 C-16.13300781 16.83957031 -14.95351563 16.86664063 -13.73828125 16.89453125 C-12.83464844 16.92933594 -11.93101563 16.96414062 -11 17 C-11.05800781 16.19175781 -11.11601563 15.38351563 -11.17578125 14.55078125 C-11.54389122 5.83183363 -11.54389122 5.83183363 -8.875 1.75 C-5.44812458 -0.33592417 -3.9330652 -0.81938858 0 0 Z " fill="#000000" transform="translate(77,99)"/>
<path d="M0 0 C11.51641021 0.55724566 20.25370675 5.496885 28 14 C30.32647665 17.19509567 32.21816138 20.4762999 34 24 C34.3403125 24.59941406 34.680625 25.19882813 35.03125 25.81640625 C38.79406896 33.60335104 38.34529581 45.79374159 35.8125 54 C35.24875109 55.35091906 34.64419117 56.68553704 34 58 C33.67128906 58.7321875 33.34257812 59.464375 33.00390625 60.21875 C28.12820244 70.0713833 20.29359455 77.18399454 10 81 C6.99646743 81.84669316 4.07901347 82.45372342 1 83 C1 82.34 1 81.68 1 81 C2.16629452 79.93139005 3.38505932 78.9197002 4.625 77.9375 C12.85999044 70.92466362 19.57899305 59.84817499 21 49 C22.22499951 32.92652159 18.05473173 21.24073961 9.0625 8.1875 C6.33053394 5.28996023 3.27298119 3.26591005 0 1 C0 0.67 0 0.34 0 0 Z " fill="#FBBB3F" transform="translate(261,209)"/>
<path d="M0 0 C1.48291016 2.17041016 1.48291016 2.17041016 3.0390625 5.0390625 C3.6158374 6.08811768 4.1926123 7.13717285 4.78686523 8.21801758 C5.39344971 9.34232178 6.00003418 10.46662598 6.625 11.625 C7.87672796 13.91395297 9.13063173 16.20171745 10.38671875 18.48828125 C10.99950684 19.60412598 11.61229492 20.7199707 12.24365234 21.86962891 C14.86455013 26.54090377 17.66098488 31.10325839 20.59814453 35.58251953 C21.99565178 37.80185444 22.97964021 39.49193077 23.0859375 42.14453125 C21.39140101 45.03987238 19.05778868 46.20211107 16.1875 47.875 C14.60001953 48.83019531 14.60001953 48.83019531 12.98046875 49.8046875 C10 51 10 51 8.00976562 50.39575195 C5.37785998 48.56793312 4.38396351 46.67976124 2.86328125 43.86328125 C2.28980957 42.8172876 1.71633789 41.77129395 1.12548828 40.69360352 C0.52720215 39.57783936 -0.07108398 38.4620752 -0.6875 37.3125 C-1.9316779 35.03541049 -3.17776964 32.75936562 -4.42578125 30.484375 C-5.03244629 29.37513672 -5.63911133 28.26589844 -6.26416016 27.12304688 C-8.88130691 22.41439128 -11.66049197 17.81212705 -14.51049805 13.24145508 C-17 9.20148963 -17 9.20148963 -17 7 C-14.73595458 5.63319847 -12.46498979 4.28155555 -10.1875 2.9375 C-9.54490234 2.54755859 -8.90230469 2.15761719 -8.24023438 1.75585938 C-3.33984375 -1.11328125 -3.33984375 -1.11328125 0 0 Z " fill="#EFF1F5" transform="translate(81,258)"/>
<path d="M0 0 C2.9567039 1.28752214 3.65026741 3.10500504 5.16235352 5.92114258 C5.73598633 6.97019775 6.30961914 8.01925293 6.90063477 9.10009766 C7.49875977 10.22440186 8.09688477 11.34870605 8.71313477 12.50708008 C9.95432291 14.79608992 11.19781005 17.08385467 12.44360352 19.37036133 C13.04994629 20.48620605 13.65628906 21.60205078 14.28100586 22.75170898 C16.89534508 27.44259305 19.72203437 32.0034702 22.71191406 36.46459961 C25.13871378 40.28297874 25.13871378 40.28297874 24.61938477 43.03442383 C22.41011336 45.59566249 19.96818646 46.97689475 17.02563477 48.63208008 C15.95313477 49.24567383 14.88063477 49.85926758 13.77563477 50.49145508 C11.02563477 51.88208008 11.02563477 51.88208008 9.02563477 51.88208008 C8.76049072 51.39143066 8.49534668 50.90078125 8.22216797 50.39526367 C6.93176133 48.01352442 5.63553317 45.63501812 4.33813477 43.25708008 C3.85642822 42.37149414 3.37472168 41.4859082 2.87841797 40.57348633 C0.13673342 35.57669308 -2.69045373 30.65550481 -5.66967773 25.79614258 C-6.27207275 24.8082373 -6.87446777 23.82033203 -7.49511719 22.80249023 C-8.67799121 20.87449745 -9.8742356 18.95463639 -11.08447266 17.04370117 C-11.62177002 16.16536621 -12.15906738 15.28703125 -12.71264648 14.38208008 C-13.19773682 13.60864258 -13.68282715 12.83520508 -14.18261719 12.03833008 C-14.97436523 9.88208008 -14.97436523 9.88208008 -14.26953125 7.70947266 C-12.44864774 5.14032788 -10.35674234 4.05915511 -7.59936523 2.56958008 C-6.64288086 2.03719727 -5.68639648 1.50481445 -4.70092773 0.95629883 C-1.97436523 -0.11791992 -1.97436523 -0.11791992 0 0 Z " fill="#EFF1F5" transform="translate(107.974365234375,241.117919921875)"/>
<path d="M0 0 C4.95 0 9.9 0 15 0 C15 16.83 15 33.66 15 51 C10.05 51 5.1 51 0 51 C0 34.17 0 17.34 0 0 Z " fill="#CFD7E6" transform="translate(258,446)"/>
<path d="M0 0 C0 15.18 0 30.36 0 46 C-17.16 46 -34.32 46 -52 46 C-52 42.7 -52 39.4 -52 36 C-51.67 36 -51.34 36 -51 36 C-51 38.97 -51 41.94 -51 45 C-39.45 45 -27.9 45 -16 45 C-16 31.8 -16 18.6 -16 5 C-3 0 -3 0 0 0 Z " fill="#CAD1DF" transform="translate(282,302)"/>
<path d="M0 0 C1.74965358 -0.05429959 3.49979787 -0.09292823 5.25 -0.125 C6.22453125 -0.14820313 7.1990625 -0.17140625 8.203125 -0.1953125 C11.08170091 0.00570537 12.61784582 0.40838371 15 2 C21.11289795 11.16934693 17 23.9798165 17 35 C-32.5 35 -82 35 -133 35 C-133 34.67 -133 34.34 -133 34 C-88.45 34 -43.9 34 2 34 C1.91762201 16.89313876 1.91762201 16.89313876 0 0 Z " fill="#534E4E" transform="translate(314,363)"/>
<path d="M0 0 C11.22 0 22.44 0 34 0 C34 5.94 34 11.88 34 18 C22.78 18 11.56 18 0 18 C0 12.06 0 6.12 0 0 Z " fill="#F2F4F8" transform="translate(239,413)"/>
<path d="M0 0 C3.3 0 6.6 0 10 0 C13.54402007 8.49016459 16.51489455 17.13930834 19.42871094 25.8605957 C20.25485174 28.32698456 21.0921463 30.78941587 21.9296875 33.25195312 C22.45902003 34.83049906 22.98768983 36.40926743 23.515625 37.98828125 C23.76556213 38.71856033 24.01549927 39.44883942 24.27301025 40.20124817 C25.56238427 44.10384071 26 46.80009042 26 51 C22.7 51 19.4 51 16 51 C13.71562093 44.22090766 11.43710969 37.43988279 9.1640625 30.65698242 C8.38964039 28.34882122 7.61360512 26.04120061 6.8359375 23.73413086 C5.71972964 20.42181251 4.60929889 17.10760631 3.5 13.79296875 C3.15001953 12.7585112 2.80003906 11.72405365 2.43945312 10.6582489 C2.11912109 9.6974794 1.79878906 8.7367099 1.46875 7.74682617 C1.18451172 6.90077316 0.90027344 6.05472015 0.60742188 5.18302917 C0 3 0 3 0 0 Z " fill="#F0F2F6" transform="translate(303,446)"/>
<path d="M0 0 C1.37478516 0.01740234 1.37478516 0.01740234 2.77734375 0.03515625 C3.69644531 0.04417969 4.61554688 0.05320312 5.5625 0.0625 C6.27277344 0.07410156 6.98304688 0.08570313 7.71484375 0.09765625 C6.37068606 6.63095488 4.59869737 12.85112934 2.45703125 19.1640625 C2.14911652 20.08356186 1.84120178 21.00306122 1.5239563 21.95042419 C0.55017668 24.85511869 -0.42987626 27.7576499 -1.41015625 30.66015625 C-2.07593851 32.64243789 -2.74130711 34.62485852 -3.40625 36.60742188 C-5.02777593 41.43911939 -6.6549272 46.26888859 -8.28515625 51.09765625 C-11.58515625 51.09765625 -14.88515625 51.09765625 -18.28515625 51.09765625 C-17.71316175 44.7539256 -16.21050845 39.18069988 -14.16015625 33.1640625 C-13.69971924 31.78624855 -13.69971924 31.78624855 -13.22998047 30.38059998 C-12.58459183 28.4541235 -11.93560855 26.52884788 -11.28320312 24.60473633 C-10.28083104 21.6473954 -9.28992158 18.68639911 -8.30078125 15.72460938 C-7.67123347 13.85003845 -7.04104801 11.97568153 -6.41015625 10.1015625 C-6.11222168 9.21312149 -5.81428711 8.32468048 -5.50732422 7.40931702 C-5.23033691 6.5943425 -4.95334961 5.77936798 -4.66796875 4.93969727 C-4.42449707 4.21992203 -4.18102539 3.50014679 -3.93017578 2.75856018 C-2.95661534 0.25167429 -2.77185047 0.11845515 0 0 Z " fill="#ECEEF2" transform="translate(186.28515625,445.90234375)"/>
<path d="M0 0 C3.4821051 0.19897743 4.78571012 0.77899022 7.2421875 3.3125 C11.06742505 8.11198995 13.92870337 13.54526599 16.9375 18.875 C17.93149412 20.61968149 18.92550388 22.36435442 19.92066956 24.10836792 C20.60089285 25.30063433 21.28044375 26.49328461 21.95933533 27.68630981 C24.80656932 32.68353073 27.72185227 37.63902051 30.64819336 42.59033203 C35.20112761 50.31211846 39.73027118 58.04966519 43.875 66 C44.20298584 66.60408691 44.53097168 67.20817383 44.86889648 67.83056641 C47.19300692 72.43980303 47.27600807 75.96561274 47 81 C46.34 81 45.68 81 45 81 C44.44054687 79.9790625 43.88109375 78.958125 43.3046875 77.90625 C37.8847273 68.06079654 32.30189533 58.32160806 26.61694336 48.62695312 C21.14010636 39.27484912 15.76556022 29.86608331 10.41748047 20.43994141 C7.71298138 15.68593373 5.01216192 10.96433271 2.03515625 6.375 C0 3 0 3 0 0 Z " fill="#89AFF9" transform="translate(422,23)"/>
<path d="M0 0 C8.25 0 16.5 0 25 0 C29 10 29 10 31 18 C22.42 18 13.84 18 5 18 C3.7625 14.3803125 3.7625 14.3803125 2.5 10.6875 C2.23896484 9.93170654 1.97792969 9.17591309 1.70898438 8.3972168 C0.72282302 5.47512677 0 3.10385594 0 0 Z " fill="#C8CFDD" transform="translate(292,413)"/>
<path d="M0 0 C8.25 0 16.5 0 25 0 C23 9 23 9 20 18 C11.42 18 2.84 18 -6 18 C-3 7 -3 7 0 0 Z " fill="#CAD1DF" transform="translate(195,413)"/>
<path d="M0 0 C0.99 1.98 0.99 1.98 2 4 C-15.72517583 14.36586844 -33.49764862 24.64716201 -51.29101562 34.89550781 C-53.48136454 36.15726852 -55.67155028 37.41931254 -57.86157227 38.68164062 C-60.02046662 39.92590801 -62.17980236 41.1694099 -64.33959961 42.41210938 C-69.86574784 45.59614113 -75.37524557 48.80534648 -80.86328125 52.0546875 C-81.96720215 52.70622803 -83.07112305 53.35776855 -84.20849609 54.02905273 C-86.3175927 55.27559804 -88.42354193 56.52748825 -90.52587891 57.78540039 C-91.4647998 58.3396167 -92.4037207 58.89383301 -93.37109375 59.46484375 C-94.19536865 59.955896 -95.01964355 60.44694824 -95.86889648 60.95288086 C-98 62 -98 62 -101 62 C-101.495 60.515 -101.495 60.515 -102 59 C-88.85530222 51.21936413 -75.63190942 43.57806544 -62.39501953 35.95556641 C-56.92830019 32.80667946 -51.46425758 29.6531562 -46 26.5 C-43.85808373 25.26430417 -41.7161566 24.02862717 -39.57421875 22.79296875 C-35.59537568 20.49750542 -31.61669227 18.20176586 -27.63821411 15.90567017 C-25.84933082 14.87326522 -24.06041283 13.84092044 -22.27148438 12.80859375 C-20.02662364 11.51314052 -17.7818281 10.2175743 -15.53710938 8.921875 C-10.36428226 5.93692086 -5.18854991 2.95754683 0 0 Z " fill="#3E3737" transform="translate(406,160)"/>
<path d="M0 0 C0.3717334 0.66829834 0.7434668 1.33659668 1.12646484 2.02514648 C9.99652317 17.99242132 9.99652317 17.99242132 19.125 33.8125 C19.50881836 34.46573242 19.89263672 35.11896484 20.28808594 35.79199219 C22.56956574 39.65107092 24.90880464 43.46958024 27.28125 47.2734375 C27.8366748 48.17344482 28.39209961 49.07345215 28.96435547 50.00073242 C30.0456785 51.75021198 31.13794382 53.49299056 32.24267578 55.2277832 C37.02946607 62.99863871 37.02946607 62.99863871 36 68 C35.01 68.66 34.02 69.32 33 70 C24.76599425 56.1496995 16.64392932 42.23870402 8.61328125 28.26953125 C6.29365611 24.23634263 3.95904889 20.21268497 1.60546875 16.19921875 C1.08871582 15.31580811 0.57196289 14.43239746 0.03955078 13.5222168 C-0.92081056 11.8823006 -1.8845002 10.24432742 -2.85205078 8.60864258 C-6 3.22297263 -6 3.22297263 -6 1 C-4 0 -4 0 0 0 Z " fill="#F9D83E" transform="translate(33,266)"/>
<path d="M0 0 C4.95 0 9.9 0 15 0 C15 5.94 15 11.88 15 18 C3.78 18 -7.44 18 -19 18 C-19 17.67 -19 17.34 -19 17 C-12.73 17 -6.46 17 0 17 C0 11.39 0 5.78 0 0 Z " fill="#CAD1DF" transform="translate(258,413)"/>
<path d="M0 0 C2.69990662 1.79993774 4.5418865 3.083773 6 6 C6.25491388 9.9086795 6.23289019 12.70942498 4 16 C0.82164728 18.11890181 -1.19479215 18.5434002 -4.9921875 18.4453125 C-7 18 -7 18 -10 15.375 C-12.17817423 11.69933099 -12.79812987 10.16801155 -12 6 C-8.54235344 0.81353016 -6.24330406 -0.61208863 0 0 Z " fill="#EBEDF1" transform="translate(259,241)"/>
<path d="M0 0 C3.3 0 6.6 0 10 0 C12.44588437 5.75966319 14.45776686 10.76431889 15 17 C11.7 17 8.4 17 5 17 C4.16080602 14.73117913 3.32848276 12.46022973 2.5 10.1875 C2.26152344 9.54490234 2.02304687 8.90230469 1.77734375 8.24023438 C0.72931254 5.35066261 0 3.09923939 0 0 Z " fill="#F0F2F6" transform="translate(292,413)"/>
<path d="M0 0 C3.3 0 6.6 0 10 0 C8.7915371 5.94935584 7.25422333 11.36444167 5 17 C1.7 17 -1.6 17 -5 17 C-4.45776686 10.76431889 -2.44588437 5.75966319 0 0 Z " fill="#EDEFF3" transform="translate(195,413)"/>
<path d="M0 0 C0.33 0 0.66 0 1 0 C1.63121465 5.08748222 1.63121465 5.08748222 1 8 C-1.08096556 10.32939438 -3.56500638 11.62694089 -6.3125 13.0625 C-7.34793945 13.66481445 -7.34793945 13.66481445 -8.40429688 14.27929688 C-10.42578125 15.41015625 -10.42578125 15.41015625 -14 17 C-14.99 16.67 -15.98 16.34 -17 16 C-17.33 15.01 -17.66 14.02 -18 13 C-17.19175781 12.60167969 -16.38351563 12.20335937 -15.55078125 11.79296875 C-14.48214844 11.26316406 -13.41351563 10.73335938 -12.3125 10.1875 C-11.25675781 9.66542969 -10.20101562 9.14335937 -9.11328125 8.60546875 C-3.61414486 6.22456419 -3.61414486 6.22456419 -0.1875 1.8125 C-0.0946875 0.9153125 -0.0946875 0.9153125 0 0 Z " fill="#544E4E" transform="translate(199,257)"/>
<path d="M0 0 C0.66 1.32 1.32 2.64 2 4 C-11.36893204 13 -11.36893204 13 -14 13 C-14.33 11.68 -14.66 10.36 -15 9 C-13.50146484 8.15115234 -13.50146484 8.15115234 -11.97265625 7.28515625 C-10.66922254 6.5443558 -9.36583975 5.80346575 -8.0625 5.0625 C-7.40314453 4.68931641 -6.74378906 4.31613281 -6.06445312 3.93164062 C-2.84167167 2.23037187 -2.84167167 2.23037187 0 0 Z " fill="#C4CBD9" transform="translate(131,280)"/>
<path d="M0 0 C0.66 0.66 1.32 1.32 2 2 C1.98828125 3.8828125 1.98828125 3.8828125 1 6 C-1.58203125 7.9921875 -1.58203125 7.9921875 -4.8125 9.875 C-5.87082031 10.51179688 -6.92914063 11.14859375 -8.01953125 11.8046875 C-11 13 -11 13 -13.38671875 12.1953125 C-13.91910156 11.80085938 -14.45148438 11.40640625 -15 11 C-11.79880702 7.35238215 -7.65136091 5.59578062 -3.3984375 3.40234375 C-0.88536268 2.22606038 -0.88536268 2.22606038 0 0 Z " fill="#C6CEDC" transform="translate(102,296)"/>
<path d="M0 0 C0.66 1.32 1.32 2.64 2 4 C-3.52240576 8.11242982 -7.09296024 9.61669998 -14 9 C-14.33 8.34 -14.66 7.68 -15 7 C-14.16855469 6.66226562 -13.33710938 6.32453125 -12.48046875 5.9765625 C-11.39378906 5.53054688 -10.30710938 5.08453125 -9.1875 4.625 C-8.10855469 4.18414062 -7.02960938 3.74328125 -5.91796875 3.2890625 C-2.89269888 2.0520881 -2.89269888 2.0520881 0 0 Z " fill="#565050" transform="translate(168,278)"/>
</svg>
